<?xml version="1.0" encoding="UTF-8" standalone="no"?>
<!DOCTYPE svg PUBLIC "-//W3C//DTD SVG 1.1//EN" "http://www.w3.org/Graphics/SVG/1.1/DTD/svg11.dtd">
<svg width="100%" height="100%" viewBox="0 0 210 164" version="1.1" xmlns="http://www.w3.org/2000/svg" xmlns:xlink="http://www.w3.org/1999/xlink" xml:space="preserve" xmlns:serif="http://www.serif.com/" style="fill-rule:evenodd;clip-rule:evenodd;stroke-linejoin:round;stroke-miterlimit:2;">
    <g transform="matrix(1,0,0,1,-256.25,-438.542)">
        <g id="Artboard14" transform="matrix(0.709906,0,0,0.695153,729.175,-140.752)">
            <rect x="-666.179" y="833.333" width="294.444" height="235.774" style="fill:none;"/>
            <clipPath id="_clip1">
                <rect x="-666.179" y="833.333" width="294.444" height="235.774"/>
            </clipPath>
            <g clip-path="url(#_clip1)">
                <g transform="matrix(1.40864,0,0,1.43853,-727.807,776.391)">
                    <rect x="0" y="0" width="294.444" height="235.774" style="fill:rgb(235,235,235);"/>
                </g>
                <g transform="matrix(5.86932,0,0,5.99389,-1529.76,-1206.81)">
                    <path d="M187.39,374.099L165.974,374.099L165.974,373.371L187.39,373.371L187.39,374.099ZM162.376,374.099L154.124,374.099L154.124,353.24L155.176,353.24L155.176,361.718L154.124,361.718L154.124,365.316L155.176,365.316L155.176,373.371L162.376,373.371L162.376,374.099Z" style="fill:rgb(205,218,221);fill-rule:nonzero;"/>
                </g>
                <g transform="matrix(5.86932,0,0,5.99389,-1529.76,-1206.81)">
                    <path d="M155.176,365.316L154.124,365.316L154.124,361.718L155.176,361.718L155.176,362.296L154.124,362.296L154.124,364.736L155.176,364.736L155.176,365.316Z" style="fill:rgb(205,218,221);fill-rule:nonzero;"/>
                </g>
                <g transform="matrix(5.86932,0,0,5.99389,-1529.76,-1206.81)">
                    <path d="M165.974,374.099L165.259,374.099L165.259,373.371L165.974,373.371L165.974,374.099ZM163.092,374.099L162.376,374.099L162.376,373.371L163.092,373.371L163.092,374.099Z" style="fill:rgb(205,218,221);fill-rule:nonzero;"/>
                </g>
                <g transform="matrix(5.86932,0,0,5.99389,-1529.76,-1206.81)">
                    <path d="M165.259,374.099L163.092,374.099L163.092,373.371L165.259,373.371L165.259,374.099Z" style="fill:rgb(205,218,221);fill-rule:nonzero;"/>
                </g>
                <g transform="matrix(5.86932,0,0,5.99389,-1529.76,-1206.81)">
                    <rect x="154.124" y="362.296" width="1.052" height="2.44" style="fill:rgb(205,218,221);fill-rule:nonzero;"/>
                </g>
                <g transform="matrix(5.86932,0,0,5.99389,-1529.76,-1206.81)">
                    <path d="M188.441,373.371L187.39,373.371L187.39,364.587L188.441,364.587L188.441,373.371Z" style="fill:rgb(195,208,211);fill-rule:nonzero;"/>
                </g>
                <g transform="matrix(5.86932,0,0,5.99389,-1529.76,-1206.81)">
                    <rect x="167.026" y="365.316" width="20.364" height="8.055" style="fill:rgb(178,190,194);fill-rule:nonzero;"/>
                </g>
                <g transform="matrix(5.86932,0,0,5.99389,-1529.76,-1206.81)">
                    <rect x="167.026" y="364.736" width="20.364" height="0.58" style="fill:rgb(178,190,194);fill-rule:nonzero;"/>
                </g>
                <g transform="matrix(5.86932,0,0,5.99389,-1529.76,-1206.81)">
                    <rect x="167.026" y="364.587" width="20.364" height="0.149" style="fill:rgb(178,190,194);fill-rule:nonzero;"/>
                </g>
                <g transform="matrix(5.86932,0,0,5.99389,-1529.76,-1206.81)">
                    <path d="M188.441,360.99L187.39,360.99L187.39,353.24L167.026,353.24L167.026,352.511L163.429,352.511L163.429,353.24L155.176,353.24L155.176,352.511L188.441,352.511L188.441,360.99Z" style="fill:rgb(195,208,211);fill-rule:nonzero;"/>
                </g>
                <g transform="matrix(5.86932,0,0,5.99389,-1529.76,-1206.81)">
                    <path d="M162.376,373.371L155.176,373.371L155.176,365.316L162.376,365.316L162.376,373.371ZM155.176,361.718L155.176,353.24L163.429,353.24L162.376,353.24L162.376,360.99L155.176,360.99L155.176,361.718ZM187.39,360.99L167.026,360.99L167.026,353.24L187.39,353.24L187.39,360.99Z" style="fill:rgb(178,190,194);fill-rule:nonzero;"/>
                </g>
                <g transform="matrix(5.86932,0,0,5.99389,-1529.76,-1206.81)">
                    <rect x="155.176" y="364.736" width="7.2" height="0.58" style="fill:rgb(178,190,194);fill-rule:nonzero;"/>
                </g>
                <g transform="matrix(5.86932,0,0,5.99389,-1529.76,-1206.81)">
                    <path d="M163.092,373.371L162.376,373.371L162.376,364.736L163.092,364.736L163.092,373.371ZM163.092,360.99L162.376,360.99L162.376,353.24L163.429,353.24L163.092,353.24L163.092,360.99Z" style="fill:rgb(178,190,194);fill-rule:nonzero;"/>
                </g>
                <g transform="matrix(5.86932,0,0,5.99389,-1529.76,-1206.81)">
                    <path d="M163.429,373.371L163.092,373.371L163.092,364.736L163.429,364.736L163.429,373.371ZM163.429,360.99L163.092,360.99L163.092,353.24L163.429,353.24L163.429,360.99Z" style="fill:rgb(178,190,194);fill-rule:nonzero;"/>
                </g>
                <g transform="matrix(5.86932,0,0,5.99389,-1529.76,-1206.81)">
                    <path d="M163.429,364.736L155.176,364.736L155.176,362.296L155.176,364.587L163.429,364.587L163.429,364.736Z" style="fill:rgb(178,190,194);fill-rule:nonzero;"/>
                </g>
                <g transform="matrix(5.86932,0,0,5.99389,-1529.76,-1206.81)">
                    <rect x="187.39" y="364.007" width="1.051" height="0.58" style="fill:rgb(195,208,211);fill-rule:nonzero;"/>
                </g>
                <g transform="matrix(5.86932,0,0,5.99389,-1529.76,-1206.81)">
                    <rect x="167.026" y="364.007" width="20.364" height="0.58" style="fill:rgb(178,190,194);fill-rule:nonzero;"/>
                </g>
                <g transform="matrix(5.86932,0,0,5.99389,-1529.76,-1206.81)">
                    <path d="M155.176,361.718L155.176,360.99L162.376,360.99L162.376,361.568L155.176,361.568L155.176,361.718Z" style="fill:rgb(178,190,194);fill-rule:nonzero;"/>
                </g>
                <g transform="matrix(5.86932,0,0,5.99389,-1529.76,-1206.81)">
                    <rect x="162.376" y="360.99" width="0.716" height="0.578" style="fill:rgb(178,190,194);fill-rule:nonzero;"/>
                </g>
                <g transform="matrix(5.86932,0,0,5.99389,-1529.76,-1206.81)">
                    <rect x="163.092" y="360.99" width="0.337" height="0.578" style="fill:rgb(178,190,194);fill-rule:nonzero;"/>
                </g>
                <g transform="matrix(5.86932,0,0,5.99389,-1529.76,-1206.81)">
                    <path d="M163.429,364.587L155.176,364.587L155.176,362.296L155.176,364.007L163.429,364.007L163.429,364.587Z" style="fill:rgb(178,190,194);fill-rule:nonzero;"/>
                </g>
                <g transform="matrix(5.86932,0,0,5.99389,-1529.76,-1206.81)">
                    <rect x="187.39" y="360.99" width="1.051" height="0.578" style="fill:rgb(195,208,211);fill-rule:nonzero;"/>
                </g>
                <g transform="matrix(5.86932,0,0,5.99389,-1529.76,-1206.81)">
                    <rect x="167.026" y="360.99" width="20.364" height="0.578" style="fill:rgb(178,190,194);fill-rule:nonzero;"/>
                </g>
                <g transform="matrix(5.86932,0,0,5.99389,-1529.76,-1206.81)">
                    <rect x="166.311" y="365.316" width="0.715" height="8.055" style="fill:rgb(178,190,194);fill-rule:nonzero;"/>
                </g>
                <g transform="matrix(5.86932,0,0,5.99389,-1529.76,-1206.81)">
                    <rect x="166.311" y="364.736" width="0.715" height="0.58" style="fill:rgb(178,190,194);fill-rule:nonzero;"/>
                </g>
                <g transform="matrix(5.86932,0,0,5.99389,-1529.76,-1206.81)">
                    <path d="M167.026,364.736L166.311,364.736L166.311,364.007L167.026,364.007L167.026,364.736Z" style="fill:rgb(178,190,194);fill-rule:nonzero;"/>
                </g>
                <g transform="matrix(5.86932,0,0,5.99389,-1529.76,-1206.81)">
                    <rect x="163.429" y="364.736" width="0.715" height="8.635" style="fill:rgb(178,190,194);fill-rule:nonzero;"/>
                </g>
                <g transform="matrix(5.86932,0,0,5.99389,-1529.76,-1206.81)">
                    <path d="M164.144,364.736L163.429,364.736L163.429,364.007L164.144,364.007L164.144,364.736Z" style="fill:rgb(178,190,194);fill-rule:nonzero;"/>
                </g>
                <g transform="matrix(5.86932,0,0,5.99389,-1529.76,-1206.81)">
                    <path d="M167.026,353.24L166.311,353.24L166.311,352.511L164.144,352.511L164.144,353.24L163.429,353.24L163.429,352.511L167.026,352.511L167.026,353.24Z" style="fill:rgb(195,208,211);fill-rule:nonzero;"/>
                </g>
                <g transform="matrix(5.86932,0,0,5.99389,-1529.76,-1206.81)">
                    <path d="M167.026,361.568L166.311,361.568L166.311,353.24L167.026,353.24L167.026,361.568Z" style="fill:rgb(178,190,194);fill-rule:nonzero;"/>
                </g>
                <g transform="matrix(5.86932,0,0,5.99389,-1529.76,-1206.81)">
                    <path d="M164.144,361.568L163.429,361.568L163.429,353.24L164.144,353.24L164.144,361.568Z" style="fill:rgb(178,190,194);fill-rule:nonzero;"/>
                </g>
                <g transform="matrix(5.86932,0,0,5.99389,-1529.76,-1206.81)">
                    <rect x="165.974" y="365.316" width="0.337" height="8.055" style="fill:rgb(178,190,194);fill-rule:nonzero;"/>
                </g>
                <g transform="matrix(5.86932,0,0,5.99389,-1529.76,-1206.81)">
                    <rect x="165.974" y="364.736" width="0.337" height="0.58" style="fill:rgb(178,190,194);fill-rule:nonzero;"/>
                </g>
                <g transform="matrix(5.86932,0,0,5.99389,-1529.76,-1206.81)">
                    <path d="M165.974,373.371L165.259,373.371L165.259,364.736L165.974,364.736L165.974,373.371Z" style="fill:rgb(178,190,194);fill-rule:nonzero;"/>
                </g>
                <g transform="matrix(5.86932,0,0,5.99389,-1529.76,-1206.81)">
                    <rect x="164.144" y="364.736" width="1.115" height="8.635" style="fill:rgb(178,190,194);fill-rule:nonzero;"/>
                </g>
                <g transform="matrix(5.86932,0,0,5.99389,-1529.76,-1206.81)">
                    <path d="M166.311,364.736L164.144,364.736L164.144,364.007L166.311,364.007L166.311,364.736Z" style="fill:rgb(178,190,194);fill-rule:nonzero;"/>
                </g>
                <g transform="matrix(5.86932,0,0,5.99389,-1529.76,-1206.81)">
                    <rect x="164.144" y="352.511" width="2.167" height="0.729" style="fill:rgb(195,208,211);fill-rule:nonzero;"/>
                </g>
                <g transform="matrix(5.86932,0,0,5.99389,-1529.76,-1206.81)">
                    <path d="M166.311,361.568L165.974,361.568L165.974,353.24L164.144,353.24L166.311,353.24L166.311,361.568Z" style="fill:rgb(178,190,194);fill-rule:nonzero;"/>
                </g>
                <g transform="matrix(5.86932,0,0,5.99389,-1529.76,-1206.81)">
                    <path d="M165.974,361.568L165.259,361.568L165.259,353.24L164.144,353.24L165.974,353.24L165.974,361.568Z" style="fill:rgb(178,190,194);fill-rule:nonzero;"/>
                </g>
                <g transform="matrix(5.86932,0,0,5.99389,-1529.76,-1206.81)">
                    <rect x="164.144" y="353.24" width="1.115" height="8.328" style="fill:rgb(178,190,194);fill-rule:nonzero;"/>
                </g>
                <g transform="matrix(5.86932,0,0,5.99389,-1529.76,-1206.81)">
                    <path d="M188.441,364.007L187.39,364.007L187.39,361.568L188.441,361.568L188.441,364.007Z" style="fill:rgb(195,208,211);fill-rule:nonzero;"/>
                </g>
                <g transform="matrix(5.86932,0,0,5.99389,-1529.76,-1206.81)">
                    <path d="M187.39,361.718L165.974,361.718L165.974,361.568L187.39,361.568L187.39,361.718ZM162.376,361.718L155.176,361.718L155.176,361.568L162.376,361.568L162.376,361.718Z" style="fill:rgb(178,190,194);fill-rule:nonzero;"/>
                </g>
                <g transform="matrix(5.86932,0,0,5.99389,-1529.76,-1206.81)">
                    <path d="M187.39,362.296L165.974,362.296L165.974,361.718L187.39,361.718L187.39,362.296ZM162.376,362.296L155.176,362.296L155.176,361.718L162.376,361.718L162.376,362.296Z" style="fill:rgb(178,190,194);fill-rule:nonzero;"/>
                </g>
                <g transform="matrix(5.86932,0,0,5.99389,-1529.76,-1206.81)">
                    <path d="M165.974,362.296L165.259,362.296L165.259,361.568L165.974,361.568L165.974,362.296ZM163.092,362.296L162.376,362.296L162.376,361.568L163.092,361.568L163.092,362.296Z" style="fill:rgb(178,190,194);fill-rule:nonzero;"/>
                </g>
                <g transform="matrix(5.86932,0,0,5.99389,-1529.76,-1206.81)">
                    <path d="M165.259,362.296L163.092,362.296L163.092,361.568L165.259,361.568L165.259,362.296Z" style="fill:rgb(178,190,194);fill-rule:nonzero;"/>
                </g>
                <g transform="matrix(5.86932,0,0,5.99389,-1529.76,-1206.81)">
                    <path d="M187.39,364.007L155.176,364.007L155.176,362.296L187.39,362.296L187.39,364.007Z" style="fill:rgb(178,190,194);fill-rule:nonzero;"/>
                </g>
                <g transform="matrix(5.86932,0,0,5.99389,-1529.76,-1206.81)">
                    <rect x="157.048" y="350.972" width="33.265" height="20.86" style="fill:rgb(55,85,166);fill-rule:nonzero;"/>
                </g>
                <g transform="matrix(5.86932,0,0,5.99389,-1529.76,-1206.81)">
                    <rect x="157.048" y="359.451" width="33.265" height="3.595" style="fill:white;fill-rule:nonzero;"/>
                </g>
                <g transform="matrix(5.86932,0,0,5.99389,-1529.76,-1206.81)">
                    <rect x="165.301" y="350.972" width="3.596" height="20.86" style="fill:white;fill-rule:nonzero;"/>
                </g>
                <g transform="matrix(5.86932,0,0,5.99389,-1529.76,-1206.81)">
                    <rect x="166.017" y="350.972" width="2.166" height="20.86" style="fill:rgb(238,53,47);fill-rule:nonzero;"/>
                </g>
                <g transform="matrix(5.86932,0,0,5.99389,-1529.76,-1206.81)">
                    <rect x="157.048" y="360.029" width="33.265" height="2.439" style="fill:rgb(238,53,47);fill-rule:nonzero;"/>
                </g>
                <g transform="matrix(5.86932,0,0,5.99389,-1529.76,-1206.81)">
                    <rect x="167.534" y="346.037" width="0.235" height="2.349" style="fill-rule:nonzero;"/>
                </g>
                <g transform="matrix(5.86932,0,0,5.99389,-1529.76,-1206.81)">
                    <path d="M169.956,347.009L169.778,347.119C169.626,346.916 169.417,346.814 169.152,346.814C168.94,346.814 168.765,346.882 168.625,347.019C168.485,347.154 168.415,347.32 168.415,347.515C168.415,347.642 168.448,347.761 168.512,347.873C168.576,347.984 168.665,348.07 168.776,348.132C168.889,348.193 169.015,348.224 169.153,348.224C169.409,348.224 169.617,348.123 169.778,347.92L169.956,348.037C169.873,348.162 169.762,348.257 169.622,348.328C169.481,348.396 169.322,348.431 169.144,348.431C168.868,348.431 168.642,348.343 168.46,348.17C168.279,347.994 168.188,347.781 168.188,347.531C168.188,347.363 168.231,347.207 168.315,347.062C168.4,346.92 168.517,346.806 168.665,346.726C168.813,346.644 168.978,346.603 169.161,346.603C169.276,346.603 169.388,346.621 169.494,346.656C169.601,346.691 169.692,346.738 169.767,346.795L169.956,347.009Z" style="fill-rule:nonzero;"/>
                </g>
                <g transform="matrix(5.86932,0,0,5.99389,-1529.76,-1206.81)">
                    <path d="M171.849,347.341C171.819,347.222 171.775,347.127 171.718,347.056C171.661,346.984 171.586,346.927 171.491,346.882C171.397,346.839 171.3,346.818 171.196,346.818C171.025,346.818 170.879,346.873 170.757,346.982C170.667,347.062 170.599,347.181 170.554,347.341L171.849,347.341ZM171.849,347.81L172.037,347.908C171.976,348.029 171.903,348.128 171.823,348.203C171.741,348.277 171.65,348.334 171.55,348.373C171.448,348.412 171.333,348.431 171.206,348.431C170.923,348.431 170.7,348.337 170.541,348.152C170.381,347.966 170.302,347.755 170.302,347.521C170.302,347.302 170.368,347.105 170.505,346.933C170.676,346.714 170.905,346.603 171.192,346.603C171.489,346.603 171.726,346.716 171.902,346.941C172.028,347.099 172.093,347.296 172.095,347.535L170.531,347.535C170.535,347.736 170.601,347.902 170.725,348.031C170.849,348.16 171.003,348.224 171.187,348.224L171.444,348.179L171.658,348.056C171.717,348.005 171.78,347.923 171.849,347.81Z" style="fill-rule:nonzero;"/>
                </g>
                <g transform="matrix(5.86932,0,0,5.99389,-1529.76,-1206.81)">
                    <rect x="172.478" y="345.978" width="0.223" height="2.408" style="fill-rule:nonzero;"/>
                </g>
                <g transform="matrix(5.86932,0,0,5.99389,-1529.76,-1206.81)">
                    <path d="M174.003,346.82C173.88,346.82 173.765,346.849 173.659,346.912C173.554,346.972 173.47,347.058 173.407,347.17C173.346,347.279 173.314,347.396 173.314,347.519C173.314,347.642 173.347,347.759 173.409,347.871C173.472,347.982 173.556,348.07 173.661,348.13C173.767,348.193 173.881,348.224 174.002,348.224C174.124,348.224 174.24,348.193 174.35,348.132C174.459,348.07 174.544,347.988 174.603,347.882C174.661,347.777 174.69,347.658 174.69,347.527C174.69,347.326 174.625,347.158 174.493,347.021C174.36,346.886 174.197,346.82 174.003,346.82ZM174.897,346.648L174.897,348.386L174.677,348.386L174.677,348.087C174.583,348.201 174.478,348.287 174.361,348.343C174.245,348.402 174.117,348.431 173.979,348.431C173.733,348.431 173.522,348.341 173.349,348.164C173.175,347.984 173.088,347.767 173.088,347.513C173.088,347.261 173.176,347.048 173.351,346.871C173.526,346.693 173.738,346.603 173.985,346.603C174.128,346.603 174.257,346.634 174.372,346.695C174.487,346.755 174.589,346.847 174.677,346.968L174.677,346.648L174.897,346.648Z" style="fill-rule:nonzero;"/>
                </g>
                <g transform="matrix(5.86932,0,0,5.99389,-1529.76,-1206.81)">
                    <path d="M175.399,346.648L175.624,346.648L175.624,346.961C175.713,346.841 175.812,346.752 175.921,346.693C176.029,346.632 176.147,346.603 176.274,346.603C176.405,346.603 176.521,346.636 176.62,346.703C176.722,346.769 176.796,346.857 176.843,346.97C176.892,347.082 176.915,347.255 176.915,347.492L176.915,348.386L176.692,348.386L176.692,347.556C176.692,347.357 176.684,347.224 176.667,347.156C176.642,347.041 176.591,346.955 176.519,346.896C176.444,346.839 176.349,346.81 176.23,346.81C176.095,346.81 175.974,346.855 175.867,346.945C175.761,347.033 175.689,347.144 175.655,347.277C175.634,347.363 175.624,347.519 175.624,347.75L175.624,348.386L175.399,348.386L175.399,346.648Z" style="fill-rule:nonzero;"/>
                </g>
                <g transform="matrix(5.86932,0,0,5.99389,-1529.76,-1206.81)">
                    <path d="M178.235,346.82C178.11,346.82 177.995,346.849 177.89,346.912C177.785,346.972 177.701,347.058 177.64,347.17C177.577,347.279 177.546,347.396 177.546,347.519C177.546,347.642 177.577,347.759 177.64,347.871C177.702,347.982 177.787,348.07 177.893,348.13C177.999,348.193 178.112,348.224 178.233,348.224C178.355,348.224 178.472,348.193 178.581,348.132C178.69,348.07 178.774,347.988 178.833,347.882C178.893,347.777 178.923,347.658 178.923,347.527C178.923,347.326 178.856,347.158 178.724,347.021C178.591,346.886 178.429,346.82 178.235,346.82ZM179.128,345.978L179.128,348.386L178.907,348.386L178.907,348.087C178.813,348.201 178.709,348.287 178.593,348.343C178.476,348.402 178.349,348.431 178.21,348.431C177.964,348.431 177.755,348.341 177.58,348.164C177.406,347.984 177.319,347.767 177.319,347.513C177.319,347.261 177.407,347.048 177.583,346.871C177.759,346.693 177.97,346.603 178.216,346.603C178.358,346.603 178.488,346.634 178.604,346.695C178.72,346.755 178.821,346.847 178.907,346.968L178.907,345.978L179.128,345.978Z" style="fill-rule:nonzero;"/>
                </g>
            </g>
        </g>
    </g>
</svg>
