<?xml version="1.0" encoding="UTF-8" standalone="no"?>
<!DOCTYPE svg PUBLIC "-//W3C//DTD SVG 1.1//EN" "http://www.w3.org/Graphics/SVG/1.1/DTD/svg11.dtd">
<svg width="100%" height="100%" viewBox="0 0 210 164" version="1.1" xmlns="http://www.w3.org/2000/svg" xmlns:xlink="http://www.w3.org/1999/xlink" xml:space="preserve" xmlns:serif="http://www.serif.com/" style="fill-rule:evenodd;clip-rule:evenodd;stroke-linejoin:round;stroke-miterlimit:2;">
    <g transform="matrix(1,0,0,1,-476.042,0)">
        <g id="Artboard3" transform="matrix(0.709906,0,0,0.695153,948.966,-579.294)">
            <rect x="-666.179" y="833.333" width="294.444" height="235.774" style="fill:none;"/>
            <clipPath id="_clip1">
                <rect x="-666.179" y="833.333" width="294.444" height="235.774"/>
            </clipPath>
            <g clip-path="url(#_clip1)">
                <g transform="matrix(1.40864,0,0,1.43853,-727.807,776.391)">
                    <rect x="0" y="0" width="294.444" height="235.774" style="fill:rgb(235,235,235);"/>
                </g>
                <g transform="matrix(5.86932,0,0,5.99389,-1239.81,720.563)">
                    <path d="M137.961,52.735L104.731,52.735L104.731,31.878L105.784,31.878L105.784,38.738L104.731,38.738L104.731,45.755L105.784,45.755L105.784,52.007L137.961,52.007L137.961,52.735Z" style="fill:rgb(205,218,221);fill-rule:nonzero;"/>
                </g>
                <g transform="matrix(5.86932,0,0,5.99389,-1239.81,720.563)">
                    <rect x="104.731" y="38.738" width="1.053" height="7.017" style="fill:rgb(205,218,221);fill-rule:nonzero;"/>
                </g>
                <g transform="matrix(5.86932,0,0,5.99389,-1239.81,720.563)">
                    <path d="M139.013,52.007L137.961,52.007L137.961,45.755L137.979,45.755L137.979,45.026L139.013,45.026L139.013,52.007ZM139.013,38.009L137.961,38.009L137.961,31.878L105.784,31.878L105.784,31.15L139.013,31.15L139.013,38.009Z" style="fill:rgb(195,208,211);fill-rule:nonzero;"/>
                </g>
                <g transform="matrix(5.86932,0,0,5.99389,-1239.81,720.563)">
                    <path d="M137.961,52.007L105.784,52.007L105.784,45.755L137.961,45.755L137.961,52.007ZM105.784,38.738L105.784,31.878L137.961,31.878L137.961,38.009L105.784,38.009L105.784,38.738Z" style="fill:rgb(178,190,194);fill-rule:nonzero;"/>
                </g>
                <g transform="matrix(5.86932,0,0,5.99389,-1239.81,720.563)">
                    <path d="M137.979,45.755L105.784,45.755L105.784,38.738L105.784,45.026L137.979,45.026L137.979,45.755Z" style="fill:rgb(178,190,194);fill-rule:nonzero;"/>
                </g>
                <g transform="matrix(5.86932,0,0,5.99389,-1239.81,720.563)">
                    <path d="M139.03,45.026L137.979,45.026L137.979,38.738L137.961,38.738L137.961,38.009L139.03,38.009L139.03,45.026Z" style="fill:rgb(195,208,211);fill-rule:nonzero;"/>
                </g>
                <g transform="matrix(5.86932,0,0,5.99389,-1239.81,720.563)">
                    <rect x="105.784" y="38.009" width="32.177" height="0.729" style="fill:rgb(178,190,194);fill-rule:nonzero;"/>
                </g>
                <g transform="matrix(5.86932,0,0,5.99389,-1239.81,720.563)">
                    <path d="M137.979,45.026L105.784,45.026L105.784,38.738L137.979,38.738L137.979,45.026Z" style="fill:rgb(178,190,194);fill-rule:nonzero;"/>
                </g>
                <g transform="matrix(5.86932,0,0,5.99389,-1239.81,720.563)">
                    <rect x="107.655" y="29.61" width="33.231" height="20.857" style="fill:rgb(239,66,63);fill-rule:nonzero;"/>
                </g>
                <g transform="matrix(5.86932,0,0,5.99389,-1239.81,720.563)">
                    <rect x="107.655" y="36.469" width="33.248" height="7.017" style="fill:white;fill-rule:nonzero;"/>
                </g>
                <g transform="matrix(5.86932,0,0,5.99389,-1239.81,720.563)">
                    <path d="M120.064,24.832L119.662,25.682L120.465,25.682L120.064,24.832ZM120.095,24.333L121.189,26.682L120.937,26.682L120.566,25.909L119.555,25.909L119.188,26.682L118.927,26.682L120.036,24.333L120.095,24.333Z" style="fill-rule:nonzero;"/>
                </g>
                <g transform="matrix(5.86932,0,0,5.99389,-1239.81,720.563)">
                    <path d="M121.487,24.944L121.712,24.944L121.712,25.755C121.712,25.954 121.722,26.09 121.743,26.164C121.775,26.271 121.837,26.355 121.927,26.417C122.017,26.479 122.124,26.509 122.249,26.509C122.374,26.509 122.479,26.479 122.566,26.419C122.653,26.359 122.713,26.28 122.746,26.182C122.769,26.115 122.78,25.973 122.78,25.755L122.78,24.944L123.009,24.944L123.009,25.797C123.009,26.037 122.979,26.217 122.925,26.338C122.868,26.46 122.784,26.555 122.672,26.624C122.56,26.692 122.419,26.727 122.249,26.727C122.081,26.727 121.938,26.692 121.825,26.624C121.712,26.555 121.628,26.459 121.571,26.336C121.517,26.213 121.487,26.028 121.487,25.781L121.487,24.944Z" style="fill-rule:nonzero;"/>
                </g>
                <g transform="matrix(5.86932,0,0,5.99389,-1239.81,720.563)">
                    <path d="M124.378,25.134L124.234,25.283C124.114,25.167 123.997,25.109 123.884,25.109L123.697,25.181L123.62,25.348L123.684,25.51C123.726,25.562 123.815,25.623 123.952,25.693C124.118,25.779 124.231,25.862 124.292,25.942C124.351,26.023 124.38,26.114 124.38,26.215C124.38,26.358 124.329,26.479 124.229,26.578C124.129,26.677 124.003,26.727 123.854,26.727C123.753,26.727 123.657,26.705 123.566,26.661C123.476,26.617 123.399,26.557 123.34,26.48L123.48,26.321C123.595,26.45 123.716,26.514 123.844,26.514L124.073,26.428L124.167,26.225L124.104,26.054C124.063,26.005 123.97,25.943 123.823,25.869C123.667,25.788 123.56,25.708 123.503,25.629C123.446,25.551 123.419,25.46 123.419,25.359C123.419,25.228 123.464,25.118 123.554,25.031C123.644,24.943 123.757,24.899 123.896,24.899C124.055,24.899 124.216,24.978 124.378,25.134Z" style="fill-rule:nonzero;"/>
                </g>
                <g transform="matrix(5.86932,0,0,5.99389,-1239.81,720.563)">
                    <path d="M124.969,24.299L125.192,24.299L125.192,24.944L125.547,24.944L125.547,25.138L125.192,25.138L125.192,26.682L124.969,26.682L124.969,25.138L124.664,25.138L124.664,24.944L124.969,24.944L124.969,24.299Z" style="fill-rule:nonzero;"/>
                </g>
                <g transform="matrix(5.86932,0,0,5.99389,-1239.81,720.563)">
                    <path d="M125.798,24.944L126.026,24.944L126.026,25.198C126.095,25.098 126.166,25.023 126.241,24.974L126.478,24.899L126.676,24.959L126.56,25.147L126.441,25.117L126.226,25.209C126.156,25.27 126.104,25.365 126.067,25.494C126.04,25.593 126.026,25.793 126.026,26.094L126.026,26.682L125.798,26.682L125.798,24.944Z" style="fill-rule:nonzero;"/>
                </g>
                <g transform="matrix(5.86932,0,0,5.99389,-1239.81,720.563)">
                    <path d="M126.832,24.944L127.056,24.944L127.056,26.682L126.832,26.682L126.832,24.944ZM126.943,24.229L127.073,24.283L127.128,24.414L127.073,24.543L126.943,24.598L126.814,24.543L126.761,24.414L126.814,24.283L126.943,24.229Z" style="fill-rule:nonzero;"/>
                </g>
                <g transform="matrix(5.86932,0,0,5.99389,-1239.81,720.563)">
                    <path d="M128.358,25.115C128.233,25.115 128.118,25.146 128.014,25.207C127.908,25.268 127.825,25.354 127.763,25.464C127.7,25.575 127.669,25.692 127.669,25.815C127.669,25.938 127.7,26.055 127.763,26.167C127.825,26.278 127.91,26.365 128.017,26.427C128.121,26.489 128.235,26.521 128.356,26.521C128.479,26.521 128.595,26.49 128.703,26.428C128.813,26.366 128.897,26.283 128.957,26.177C129.017,26.072 129.046,25.954 129.046,25.822C129.046,25.621 128.979,25.453 128.847,25.318C128.714,25.183 128.552,25.115 128.358,25.115ZM129.251,24.944L129.251,26.682L129.031,26.682L129.031,26.383C128.938,26.497 128.832,26.583 128.716,26.64C128.599,26.698 128.472,26.727 128.332,26.727C128.087,26.727 127.878,26.637 127.704,26.459C127.529,26.281 127.442,26.064 127.442,25.808C127.442,25.558 127.53,25.344 127.706,25.167C127.882,24.989 128.093,24.899 128.34,24.899C128.481,24.899 128.61,24.93 128.728,24.991C128.843,25.051 128.944,25.143 129.031,25.264L129.031,24.944L129.251,24.944Z" style="fill-rule:nonzero;"/>
                </g>
            </g>
        </g>
    </g>
</svg>
