<?xml version="1.0" encoding="UTF-8" standalone="no"?>
<!DOCTYPE svg PUBLIC "-//W3C//DTD SVG 1.1//EN" "http://www.w3.org/Graphics/SVG/1.1/DTD/svg11.dtd">
<svg width="100%" height="100%" viewBox="0 0 210 164" version="1.1" xmlns="http://www.w3.org/2000/svg" xmlns:xlink="http://www.w3.org/1999/xlink" xml:space="preserve" xmlns:serif="http://www.serif.com/" style="fill-rule:evenodd;clip-rule:evenodd;stroke-linejoin:round;stroke-miterlimit:2;">
    <g transform="matrix(1,0,0,1,-250,-215.625)">
        <g id="Artboard8" transform="matrix(0.709906,0,0,0.695153,722.925,-363.669)">
            <rect x="-666.179" y="833.333" width="294.444" height="235.774" style="fill:none;"/>
            <clipPath id="_clip1">
                <rect x="-666.179" y="833.333" width="294.444" height="235.774"/>
            </clipPath>
            <g clip-path="url(#_clip1)">
                <g transform="matrix(1.40864,0,0,1.43853,-727.807,776.391)">
                    <rect x="0" y="0" width="294.444" height="235.774" style="fill:rgb(235,235,235);"/>
                </g>
                <g transform="matrix(5.86932,0,0,5.99389,-1237.2,172.028)">
                    <path d="M104.286,144.346L104.286,123.489L105.339,123.489L105.339,130.348L104.286,130.348L104.286,144.346Z" style="fill:rgb(205,218,221);fill-rule:nonzero;"/>
                </g>
                <g transform="matrix(5.86932,0,0,5.99389,-1237.2,172.028)">
                    <path d="M137.517,144.346L104.286,144.346L104.286,133.572L104.286,137.366L105.339,137.366L105.339,143.618L137.517,143.618L137.517,144.346Z" style="fill:rgb(205,218,221);fill-rule:nonzero;"/>
                </g>
                <g transform="matrix(5.86932,0,0,5.99389,-1237.2,172.028)">
                    <path d="M105.339,137.366L104.286,137.366L104.286,130.348L105.339,130.348L105.339,137.366Z" style="fill:rgb(205,218,221);fill-rule:nonzero;"/>
                </g>
                <g transform="matrix(5.86932,0,0,5.99389,-1237.2,172.028)">
                    <path d="M138.569,129.62L137.517,129.62L137.517,123.489L105.339,123.489L105.339,122.761L138.569,122.761L138.569,129.62Z" style="fill:rgb(195,208,211);fill-rule:nonzero;"/>
                </g>
                <g transform="matrix(5.86932,0,0,5.99389,-1237.2,172.028)">
                    <path d="M105.339,130.348L105.339,123.489L137.517,123.489L137.517,129.62L105.339,129.62L105.339,130.348Z" style="fill:rgb(178,190,194);fill-rule:nonzero;"/>
                </g>
                <g transform="matrix(5.86932,0,0,5.99389,-1237.2,172.028)">
                    <path d="M138.569,143.618L137.517,143.618L137.517,137.366L137.534,137.366L137.534,136.637L138.569,136.637L138.569,143.618Z" style="fill:rgb(195,208,211);fill-rule:nonzero;"/>
                </g>
                <g transform="matrix(5.86932,0,0,5.99389,-1237.2,172.028)">
                    <rect x="105.339" y="137.366" width="32.178" height="6.252" style="fill:rgb(178,190,194);fill-rule:nonzero;"/>
                </g>
                <g transform="matrix(5.86932,0,0,5.99389,-1237.2,172.028)">
                    <path d="M137.534,137.366L105.339,137.366L105.339,132.844L105.339,136.637L137.534,136.637L137.534,137.366Z" style="fill:rgb(178,190,194);fill-rule:nonzero;"/>
                </g>
                <g transform="matrix(5.86932,0,0,5.99389,-1237.2,172.028)">
                    <path d="M138.586,136.637L137.534,136.637L137.534,130.348L137.517,130.348L137.517,129.62L138.586,129.62L138.586,136.637Z" style="fill:rgb(195,208,211);fill-rule:nonzero;"/>
                </g>
                <g transform="matrix(5.86932,0,0,5.99389,-1237.2,172.028)">
                    <rect x="105.339" y="129.62" width="32.178" height="0.728" style="fill:rgb(178,190,194);fill-rule:nonzero;"/>
                </g>
                <g transform="matrix(5.86932,0,0,5.99389,-1237.2,172.028)">
                    <path d="M137.534,136.637L105.339,136.637L105.339,130.348L137.534,130.348L137.534,136.637Z" style="fill:rgb(178,190,194);fill-rule:nonzero;"/>
                </g>
                <g transform="matrix(5.86932,0,0,5.99389,-1237.2,172.028)">
                    <rect x="107.211" y="121.221" width="33.229" height="20.857" style="fill:rgb(238,233,64);fill-rule:nonzero;"/>
                </g>
                <g transform="matrix(5.86932,0,0,5.99389,-1237.2,172.028)">
                    <rect x="107.211" y="131.304" width="33.229" height="10.774" style="fill:rgb(225,58,55);fill-rule:nonzero;"/>
                </g>
                <g transform="matrix(5.86932,0,0,5.99389,-1237.2,172.028)">
                    <rect x="107.211" y="128.08" width="33.247" height="7.017" style="fill:rgb(36,153,76);fill-rule:nonzero;"/>
                </g>
                <g transform="matrix(5.86932,0,0,5.99389,-1237.2,172.028)">
                    <path d="M117.175,116.301L117.409,116.301L117.409,118.423L118.313,118.423L118.313,118.65L117.175,118.65L117.175,116.301Z" style="fill-rule:nonzero;"/>
                </g>
                <g transform="matrix(5.86932,0,0,5.99389,-1237.2,172.028)">
                    <path d="M118.614,116.913L118.839,116.913L118.839,118.65L118.614,118.65L118.614,116.913ZM118.726,116.197L118.856,116.252L118.91,116.382L118.856,116.512L118.726,116.566L118.597,116.512L118.543,116.382L118.597,116.252L118.726,116.197Z" style="fill-rule:nonzero;"/>
                </g>
                <g transform="matrix(5.86932,0,0,5.99389,-1237.2,172.028)">
                    <path d="M119.498,116.268L119.722,116.268L119.722,116.913L120.076,116.913L120.076,117.106L119.722,117.106L119.722,118.65L119.498,118.65L119.498,117.106L119.193,117.106L119.193,116.913L119.498,116.913L119.498,116.268Z" style="fill-rule:nonzero;"/>
                </g>
                <g transform="matrix(5.86932,0,0,5.99389,-1237.2,172.028)">
                    <path d="M120.411,116.242L120.636,116.242L120.636,117.224C120.726,117.105 120.825,117.016 120.935,116.957C121.042,116.898 121.16,116.868 121.286,116.868C121.417,116.868 121.532,116.901 121.632,116.967C121.733,117.033 121.808,117.122 121.854,117.233C121.903,117.344 121.927,117.519 121.927,117.756L121.927,118.65L121.704,118.65L121.704,117.821C121.704,117.621 121.695,117.487 121.68,117.42C121.651,117.305 121.602,117.219 121.528,117.161C121.456,117.103 121.36,117.074 121.242,117.074C121.106,117.074 120.985,117.119 120.879,117.208C120.772,117.297 120.701,117.408 120.667,117.54C120.646,117.626 120.636,117.783 120.636,118.013L120.636,118.65L120.411,118.65L120.411,116.242Z" style="fill-rule:nonzero;"/>
                </g>
                <g transform="matrix(5.86932,0,0,5.99389,-1237.2,172.028)">
                    <path d="M122.377,116.913L122.601,116.913L122.601,117.724C122.601,117.922 122.611,118.058 122.633,118.132C122.665,118.239 122.726,118.323 122.815,118.385C122.905,118.447 123.013,118.478 123.138,118.478C123.263,118.478 123.368,118.447 123.456,118.387C123.542,118.327 123.603,118.248 123.636,118.15C123.657,118.083 123.669,117.941 123.669,117.724L123.669,116.913L123.897,116.913L123.897,117.765C123.897,118.005 123.869,118.185 123.813,118.307C123.757,118.428 123.673,118.523 123.562,118.592C123.448,118.66 123.308,118.695 123.139,118.695C122.97,118.695 122.828,118.66 122.715,118.592C122.602,118.523 122.517,118.427 122.461,118.304C122.405,118.181 122.377,117.996 122.377,117.75L122.377,116.913Z" style="fill-rule:nonzero;"/>
                </g>
                <g transform="matrix(5.86932,0,0,5.99389,-1237.2,172.028)">
                    <path d="M125.231,117.084C125.106,117.084 124.991,117.114 124.887,117.175C124.781,117.236 124.698,117.322 124.636,117.433C124.573,117.544 124.542,117.66 124.542,117.784C124.542,117.906 124.573,118.023 124.636,118.135C124.698,118.246 124.783,118.333 124.89,118.396C124.995,118.458 125.108,118.489 125.229,118.489C125.353,118.489 125.468,118.458 125.577,118.396C125.687,118.335 125.771,118.251 125.83,118.146C125.89,118.041 125.919,117.922 125.919,117.79C125.919,117.589 125.853,117.421 125.72,117.286C125.587,117.151 125.425,117.084 125.231,117.084ZM126.124,116.913L126.124,118.65L125.904,118.65L125.904,118.351C125.811,118.465 125.706,118.551 125.589,118.608C125.472,118.666 125.345,118.695 125.206,118.695C124.96,118.695 124.751,118.606 124.577,118.427C124.402,118.249 124.315,118.032 124.315,117.776C124.315,117.526 124.403,117.313 124.579,117.135C124.755,116.957 124.966,116.868 125.213,116.868C125.355,116.868 125.484,116.899 125.601,116.959C125.716,117.02 125.817,117.111 125.904,117.232L125.904,116.913L126.124,116.913Z" style="fill-rule:nonzero;"/>
                </g>
                <g transform="matrix(5.86932,0,0,5.99389,-1237.2,172.028)">
                    <path d="M126.628,116.913L126.851,116.913L126.851,117.224C126.94,117.105 127.04,117.016 127.147,116.957C127.257,116.898 127.375,116.868 127.503,116.868C127.632,116.868 127.747,116.901 127.849,116.967C127.948,117.033 128.022,117.122 128.071,117.233C128.119,117.345 128.144,117.52 128.144,117.756L128.144,118.65L127.919,118.65L127.919,117.821C127.919,117.621 127.911,117.487 127.895,117.42C127.868,117.305 127.819,117.219 127.745,117.161C127.672,117.103 127.576,117.074 127.458,117.074C127.323,117.074 127.202,117.119 127.095,117.208C126.987,117.297 126.917,117.408 126.883,117.54C126.862,117.627 126.851,117.784 126.851,118.013L126.851,118.65L126.628,118.65L126.628,116.913Z" style="fill-rule:nonzero;"/>
                </g>
                <g transform="matrix(5.86932,0,0,5.99389,-1237.2,172.028)">
                    <path d="M128.588,116.913L128.812,116.913L128.812,118.65L128.588,118.65L128.588,116.913ZM128.699,116.197L128.828,116.252L128.884,116.382L128.828,116.512L128.699,116.566L128.57,116.512L128.517,116.382L128.57,116.252L128.699,116.197Z" style="fill-rule:nonzero;"/>
                </g>
                <g transform="matrix(5.86932,0,0,5.99389,-1237.2,172.028)">
                    <path d="M130.114,117.084C129.989,117.084 129.873,117.114 129.77,117.175C129.664,117.236 129.58,117.322 129.519,117.433C129.455,117.544 129.425,117.66 129.425,117.784C129.425,117.906 129.455,118.023 129.519,118.135C129.58,118.246 129.666,118.333 129.772,118.396C129.878,118.458 129.991,118.489 130.112,118.489C130.235,118.489 130.351,118.458 130.46,118.396C130.569,118.335 130.653,118.251 130.713,118.146C130.772,118.041 130.802,117.922 130.802,117.79C130.802,117.589 130.735,117.421 130.603,117.286C130.47,117.151 130.308,117.084 130.114,117.084ZM131.007,116.913L131.007,118.65L130.787,118.65L130.787,118.351C130.692,118.465 130.589,118.551 130.472,118.608C130.354,118.666 130.228,118.695 130.089,118.695C129.843,118.695 129.634,118.606 129.46,118.427C129.285,118.249 129.198,118.032 129.198,117.776C129.198,117.526 129.285,117.313 129.462,117.135C129.638,116.957 129.849,116.868 130.095,116.868C130.238,116.868 130.367,116.899 130.483,116.959C130.599,117.02 130.7,117.111 130.787,117.232L130.787,116.913L131.007,116.913Z" style="fill-rule:nonzero;"/>
                </g>
            </g>
        </g>
    </g>
</svg>
