<?xml version="1.0" encoding="UTF-8" standalone="no"?>
<!DOCTYPE svg PUBLIC "-//W3C//DTD SVG 1.1//EN" "http://www.w3.org/Graphics/SVG/1.1/DTD/svg11.dtd">
<svg width="100%" height="100%" viewBox="0 0 210 164" version="1.1" xmlns="http://www.w3.org/2000/svg" xmlns:xlink="http://www.w3.org/1999/xlink" xml:space="preserve" xmlns:serif="http://www.serif.com/" style="fill-rule:evenodd;clip-rule:evenodd;stroke-linejoin:round;stroke-miterlimit:2;">
    <g transform="matrix(1,0,0,1,-985.417,-223.958)">
        <g id="Artboard11" transform="matrix(0.709906,0,0,0.695153,1458.34,-355.335)">
            <rect x="-666.179" y="833.333" width="294.444" height="235.774" style="fill:none;"/>
            <clipPath id="_clip1">
                <rect x="-666.179" y="833.333" width="294.444" height="235.774"/>
            </clipPath>
            <g clip-path="url(#_clip1)">
                <g transform="matrix(1.40864,0,0,1.43853,-727.807,776.391)">
                    <rect x="0" y="0" width="294.444" height="235.774" style="fill:rgb(235,235,235);"/>
                </g>
                <g transform="matrix(5.86932,0,0,5.99389,-947.133,449.598)">
                    <path d="M72.127,97.92L54.856,97.92L54.856,77.063L55.908,77.063L55.908,97.191L65.915,97.191L65.915,97.837L72.127,97.837L72.127,97.92Z" style="fill:rgb(205,218,221);fill-rule:nonzero;"/>
                </g>
                <g transform="matrix(5.86932,0,0,5.99389,-947.133,449.598)">
                    <path d="M88.124,97.92L72.127,97.92L72.127,97.837L77.156,97.837L77.156,97.191L88.124,97.191L88.124,97.92Z" style="fill:rgb(205,218,221);fill-rule:nonzero;"/>
                </g>
                <g transform="matrix(5.86932,0,0,5.99389,-947.133,449.598)">
                    <path d="M77.156,97.837L65.915,97.837L65.915,97.191L77.156,97.191L77.156,97.837Z" style="fill:rgb(205,218,221);fill-rule:nonzero;"/>
                </g>
                <g transform="matrix(5.86932,0,0,5.99389,-947.133,449.598)">
                    <path d="M66.967,77.063L55.908,77.063L55.908,76.334L89.175,76.334L73.178,76.334L73.178,76.364L66.967,76.364L66.967,77.063Z" style="fill:rgb(195,208,211);fill-rule:nonzero;"/>
                </g>
                <g transform="matrix(5.86932,0,0,5.99389,-947.133,449.598)">
                    <path d="M65.915,97.191L55.908,97.191L55.908,77.063L66.967,77.063L66.967,77.092L65.915,77.092L65.915,97.191Z" style="fill:rgb(178,190,194);fill-rule:nonzero;"/>
                </g>
                <g transform="matrix(5.86932,0,0,5.99389,-947.133,449.598)">
                    <path d="M73.178,97.191L65.915,97.191L65.915,77.092L66.967,77.092L66.967,97.109L73.178,97.109L73.178,97.191Z" style="fill:rgb(178,190,194);fill-rule:nonzero;"/>
                </g>
                <g transform="matrix(5.86932,0,0,5.99389,-947.133,449.598)">
                    <path d="M89.175,97.191L88.124,97.191L88.124,77.063L78.208,77.063L78.208,76.364L73.178,76.364L73.178,76.334L89.175,76.334L89.175,97.191Z" style="fill:rgb(195,208,211);fill-rule:nonzero;"/>
                </g>
                <g transform="matrix(5.86932,0,0,5.99389,-947.133,449.598)">
                    <path d="M88.124,97.191L77.156,97.191L77.156,97.109L78.208,97.109L78.208,77.063L88.124,77.063L88.124,97.191Z" style="fill:rgb(178,190,194);fill-rule:nonzero;"/>
                </g>
                <g transform="matrix(5.86932,0,0,5.99389,-947.133,449.598)">
                    <rect x="73.178" y="97.109" width="3.978" height="0.082" style="fill:rgb(178,190,194);fill-rule:nonzero;"/>
                </g>
                <g transform="matrix(5.86932,0,0,5.99389,-947.133,449.598)">
                    <path d="M78.208,77.063L66.967,77.063L66.967,76.364L78.208,76.364L78.208,77.063Z" style="fill:rgb(195,208,211);fill-rule:nonzero;"/>
                </g>
                <g transform="matrix(5.86932,0,0,5.99389,-947.133,449.598)">
                    <path d="M72.127,77.092L66.967,77.092L66.967,77.063L78.208,77.063L72.127,77.063L72.127,77.092Z" style="fill:rgb(178,190,194);fill-rule:nonzero;"/>
                </g>
                <g transform="matrix(5.86932,0,0,5.99389,-947.133,449.598)">
                    <path d="M78.208,97.109L77.156,97.109L77.156,77.092L72.127,77.092L72.127,77.063L78.208,77.063L78.208,97.109Z" style="fill:rgb(178,190,194);fill-rule:nonzero;"/>
                </g>
                <g transform="matrix(5.86932,0,0,5.99389,-947.133,449.598)">
                    <path d="M77.156,97.109L66.967,97.109L66.967,77.092L77.156,77.092L77.156,97.109Z" style="fill:rgb(178,190,194);fill-rule:nonzero;"/>
                </g>
                <g transform="matrix(5.86932,0,0,5.99389,-947.133,449.598)">
                    <rect x="57.78" y="74.794" width="33.267" height="20.857" style="fill:rgb(61,183,99);fill-rule:nonzero;"/>
                </g>
                <g transform="matrix(5.86932,0,0,5.99389,-947.133,449.598)">
                    <rect x="75.051" y="74.794" width="15.996" height="20.857" style="fill:rgb(250,164,62);fill-rule:nonzero;"/>
                </g>
                <g transform="matrix(5.86932,0,0,5.99389,-947.133,449.598)">
                    <rect x="68.839" y="74.824" width="11.242" height="20.745" style="fill:white;fill-rule:nonzero;"/>
                </g>
                <g transform="matrix(5.86932,0,0,5.99389,-947.133,449.598)">
                    <rect x="69.284" y="69.517" width="0.234" height="2.349" style="fill-rule:nonzero;"/>
                </g>
                <g transform="matrix(5.86932,0,0,5.99389,-947.133,449.598)">
                    <path d="M69.935,70.128L70.163,70.128L70.163,70.382C70.231,70.282 70.303,70.208 70.379,70.158L70.615,70.084L70.813,70.143L70.697,70.331L70.579,70.301L70.363,70.393C70.293,70.454 70.241,70.549 70.205,70.678C70.177,70.777 70.163,70.977 70.163,71.278L70.163,71.866L69.935,71.866L69.935,70.128Z" style="fill-rule:nonzero;"/>
                </g>
                <g transform="matrix(5.86932,0,0,5.99389,-947.133,449.598)">
                    <path d="M72.454,70.821C72.423,70.702 72.379,70.607 72.323,70.536C72.266,70.464 72.19,70.407 72.096,70.363C72.002,70.319 71.904,70.298 71.801,70.298C71.63,70.298 71.483,70.353 71.361,70.462C71.272,70.542 71.204,70.662 71.158,70.821L72.454,70.821ZM72.454,71.289L72.641,71.388C72.58,71.51 72.508,71.607 72.427,71.682C72.346,71.757 72.254,71.814 72.154,71.852C72.053,71.891 71.938,71.911 71.81,71.911C71.527,71.911 71.305,71.817 71.146,71.632C70.985,71.446 70.906,71.236 70.906,71.002C70.906,70.782 70.973,70.585 71.109,70.413C71.28,70.193 71.51,70.084 71.797,70.084C72.094,70.084 72.331,70.196 72.506,70.42C72.633,70.579 72.697,70.777 72.699,71.015L71.136,71.015C71.14,71.216 71.205,71.382 71.329,71.511C71.454,71.64 71.608,71.705 71.791,71.705L72.049,71.658L72.262,71.536C72.321,71.485 72.385,71.403 72.454,71.289Z" style="fill-rule:nonzero;"/>
                </g>
                <g transform="matrix(5.86932,0,0,5.99389,-947.133,449.598)">
                    <rect x="73.083" y="69.458" width="0.222" height="2.408" style="fill-rule:nonzero;"/>
                </g>
                <g transform="matrix(5.86932,0,0,5.99389,-947.133,449.598)">
                    <path d="M74.608,70.299C74.484,70.299 74.369,70.33 74.264,70.391C74.159,70.452 74.075,70.538 74.012,70.648C73.95,70.759 73.918,70.876 73.918,71C73.918,71.122 73.951,71.239 74.013,71.351C74.076,71.462 74.161,71.549 74.266,71.611C74.372,71.673 74.485,71.705 74.606,71.705C74.729,71.705 74.844,71.674 74.954,71.612C75.063,71.55 75.148,71.467 75.208,71.361C75.266,71.256 75.295,71.138 75.295,71.006C75.295,70.805 75.229,70.637 75.097,70.502C74.964,70.367 74.801,70.299 74.608,70.299ZM75.502,70.128L75.502,71.866L75.282,71.866L75.282,71.567C75.188,71.681 75.083,71.767 74.965,71.824C74.849,71.882 74.721,71.911 74.584,71.911C74.337,71.911 74.127,71.821 73.954,71.643C73.78,71.465 73.692,71.248 73.692,70.992C73.692,70.742 73.78,70.528 73.956,70.351C74.131,70.173 74.342,70.084 74.59,70.084C74.733,70.084 74.862,70.114 74.977,70.175C75.092,70.235 75.194,70.327 75.282,70.448L75.282,70.128L75.502,70.128Z" style="fill-rule:nonzero;"/>
                </g>
                <g transform="matrix(5.86932,0,0,5.99389,-947.133,449.598)">
                    <path d="M76.004,70.128L76.228,70.128L76.228,70.44C76.317,70.321 76.417,70.231 76.525,70.172C76.633,70.113 76.752,70.084 76.879,70.084C77.009,70.084 77.125,70.117 77.225,70.183C77.326,70.249 77.4,70.337 77.448,70.449C77.497,70.561 77.52,70.735 77.52,70.972L77.52,71.866L77.296,71.866L77.296,71.037C77.296,70.837 77.288,70.703 77.272,70.636C77.246,70.521 77.196,70.435 77.123,70.377C77.049,70.319 76.954,70.29 76.835,70.29C76.7,70.29 76.579,70.335 76.471,70.424C76.365,70.513 76.293,70.624 76.26,70.756C76.239,70.842 76.228,71 76.228,71.229L76.228,71.866L76.004,71.866L76.004,70.128Z" style="fill-rule:nonzero;"/>
                </g>
                <g transform="matrix(5.86932,0,0,5.99389,-947.133,449.598)">
                    <path d="M78.839,70.299C78.715,70.299 78.6,70.33 78.495,70.391C78.389,70.452 78.305,70.538 78.244,70.648C78.181,70.759 78.151,70.876 78.151,71C78.151,71.122 78.182,71.239 78.245,71.351C78.307,71.462 78.391,71.549 78.497,71.611C78.603,71.673 78.716,71.705 78.838,71.705C78.96,71.705 79.076,71.674 79.186,71.612C79.295,71.55 79.379,71.467 79.438,71.361C79.497,71.256 79.527,71.138 79.527,71.006C79.527,70.805 79.46,70.637 79.329,70.502C79.196,70.367 79.033,70.299 78.839,70.299ZM79.733,69.458L79.733,71.866L79.512,71.866L79.512,71.567C79.418,71.681 79.313,71.767 79.197,71.824C79.081,71.882 78.954,71.911 78.815,71.911C78.569,71.911 78.359,71.821 78.184,71.643C78.01,71.465 77.923,71.248 77.923,70.992C77.923,70.742 78.011,70.528 78.187,70.351C78.363,70.173 78.574,70.084 78.821,70.084C78.963,70.084 79.092,70.114 79.208,70.175C79.324,70.235 79.425,70.327 79.512,70.448L79.512,69.458L79.733,69.458Z" style="fill-rule:nonzero;"/>
                </g>
            </g>
        </g>
    </g>
</svg>
