<?xml version="1.0" encoding="UTF-8" standalone="no"?>
<!DOCTYPE svg PUBLIC "-//W3C//DTD SVG 1.1//EN" "http://www.w3.org/Graphics/SVG/1.1/DTD/svg11.dtd">
<svg width="100%" height="100%" viewBox="0 0 210 164" version="1.1" xmlns="http://www.w3.org/2000/svg" xmlns:xlink="http://www.w3.org/1999/xlink" xml:space="preserve" xmlns:serif="http://www.serif.com/" style="fill-rule:evenodd;clip-rule:evenodd;stroke-linejoin:round;stroke-miterlimit:2;">
    <g transform="matrix(1,0,0,1,-750,-443.75)">
        <g id="Artboard16" transform="matrix(0.709906,0,0,0.695153,1222.92,-135.544)">
            <rect x="-666.179" y="833.333" width="294.444" height="235.774" style="fill:none;"/>
            <clipPath id="_clip1">
                <rect x="-666.179" y="833.333" width="294.444" height="235.774"/>
            </clipPath>
            <g clip-path="url(#_clip1)">
                <g transform="matrix(1.40864,0,0,1.43853,-727.807,776.391)">
                    <rect x="0" y="0" width="294.444" height="235.774" style="fill:rgb(235,235,235);"/>
                </g>
                <g transform="matrix(5.86932,0,0,5.99389,-947.327,-380.673)">
                    <path d="M65.947,236.572L54.888,236.572L54.888,215.714L55.94,215.714L55.94,235.843L65.947,235.843L65.947,236.572Z" style="fill:rgb(205,218,221);fill-rule:nonzero;"/>
                </g>
                <g transform="matrix(5.86932,0,0,5.99389,-947.327,-380.673)">
                    <path d="M88.156,236.572L77.188,236.572L77.188,235.863L78.241,235.863L78.241,235.843L88.156,235.843L88.156,236.572Z" style="fill:rgb(205,218,221);fill-rule:nonzero;"/>
                </g>
                <g transform="matrix(5.86932,0,0,5.99389,-947.327,-380.673)">
                    <path d="M77.188,236.591L65.947,236.591L65.947,235.843L66.999,235.843L66.999,235.863L77.188,235.863L77.188,236.591Z" style="fill:rgb(205,218,221);fill-rule:nonzero;"/>
                </g>
                <g transform="matrix(5.86932,0,0,5.99389,-947.327,-380.673)">
                    <path d="M65.947,215.714L55.94,215.714L55.94,214.986L66.999,214.986L66.999,215.71L65.947,215.71L65.947,215.714Z" style="fill:rgb(195,208,211);fill-rule:nonzero;"/>
                </g>
                <g transform="matrix(5.86932,0,0,5.99389,-947.327,-380.673)">
                    <rect x="55.94" y="215.714" width="10.007" height="20.129" style="fill:rgb(178,190,194);fill-rule:nonzero;"/>
                </g>
                <g transform="matrix(5.86932,0,0,5.99389,-947.327,-380.673)">
                    <path d="M66.999,235.843L65.947,235.843L65.947,215.71L66.999,215.71L66.999,235.843Z" style="fill:rgb(178,190,194);fill-rule:nonzero;"/>
                </g>
                <g transform="matrix(5.86932,0,0,5.99389,-947.327,-380.673)">
                    <path d="M89.208,235.843L88.156,235.843L88.156,215.714L78.241,215.714L78.241,214.986L89.208,214.986L89.208,235.843Z" style="fill:rgb(195,208,211);fill-rule:nonzero;"/>
                </g>
                <g transform="matrix(5.86932,0,0,5.99389,-947.327,-380.673)">
                    <rect x="78.241" y="215.714" width="9.915" height="20.129" style="fill:rgb(178,190,194);fill-rule:nonzero;"/>
                </g>
                <g transform="matrix(5.86932,0,0,5.99389,-947.327,-380.673)">
                    <path d="M78.241,235.863L77.188,235.863L77.188,215.714L78.241,215.714L78.241,235.863Z" style="fill:rgb(178,190,194);fill-rule:nonzero;"/>
                </g>
                <g transform="matrix(5.86932,0,0,5.99389,-947.327,-380.673)">
                    <path d="M77.188,235.863L66.999,235.863L66.999,215.71L77.188,215.71L77.188,235.863ZM73.188,227.691L72.669,226.232L72.959,226.017L72.961,226.009L72.963,226.017L74.241,226.962L73.706,225.459L73.961,225.287L73.933,225.287L75.013,224.558L73.417,224.56L73.413,224.562L73.415,224.558L72.925,223.046L72.492,224.56L72.127,224.56L71.873,223.775L71.648,224.559L70.91,224.558L71.529,224.977L71.44,225.289L69.857,225.287L71.172,226.175L71.179,226.175L71.165,226.185L70.63,227.691L71.707,226.893L71.683,226.962L71.944,226.769L73.188,227.691Z" style="fill:rgb(178,190,194);fill-rule:nonzero;"/>
                </g>
                <g transform="matrix(5.86932,0,0,5.99389,-947.327,-380.673)">
                    <path d="M73.188,227.691L71.944,226.769L72.669,226.232L73.188,227.691ZM70.63,227.691L71.165,226.185L71.179,226.175L71.172,226.175L69.857,225.287L71.44,225.289L71.529,224.977L72.225,225.447L72.231,225.447L72.217,225.457L71.707,226.893L70.63,227.691ZM72.127,224.56L71.648,224.559L71.873,223.775L72.127,224.56Z" style="fill:rgb(178,190,194);fill-rule:nonzero;"/>
                </g>
                <g transform="matrix(5.86932,0,0,5.99389,-947.327,-380.673)">
                    <path d="M78.241,215.714L77.188,215.714L77.188,215.71L66.999,215.71L66.999,214.982L78.241,214.982L78.241,215.714Z" style="fill:rgb(195,208,211);fill-rule:nonzero;"/>
                </g>
                <g transform="matrix(5.86932,0,0,5.99389,-947.327,-380.673)">
                    <path d="M73.706,225.459L73.706,225.457L73.691,225.447L73.696,225.447L73.933,225.287L73.961,225.287L73.706,225.459Z" style="fill:rgb(178,190,194);fill-rule:nonzero;"/>
                </g>
                <g transform="matrix(5.86932,0,0,5.99389,-947.327,-380.673)">
                    <path d="M71.683,226.962L71.707,226.893L71.907,226.746L71.909,226.738L71.912,226.746L71.944,226.769L71.683,226.962ZM72.36,225.291L72.362,225.287L72.127,224.56L72.492,224.56L72.925,223.046L73.415,224.558L73.413,224.562L73.417,224.56L75.013,224.558L73.933,225.287L72.365,225.289L72.36,225.291ZM71.529,224.977L70.91,224.558L71.648,224.559L71.529,224.977Z" style="fill:rgb(178,190,194);fill-rule:nonzero;"/>
                </g>
                <g transform="matrix(5.86932,0,0,5.99389,-947.327,-380.673)">
                    <path d="M71.707,226.893L72.217,225.457L72.231,225.447L72.225,225.447L71.529,224.977L71.648,224.559L72.127,224.56L72.362,225.287L72.36,225.291L72.365,225.289L73.933,225.287L73.696,225.447L73.691,225.447L73.706,225.457L73.706,225.459L72.643,226.175L72.639,226.175L72.653,226.185L72.669,226.232L71.944,226.769L71.912,226.746L71.909,226.738L71.907,226.746L71.707,226.893Z" style="fill:rgb(178,190,194);fill-rule:nonzero;"/>
                </g>
                <g transform="matrix(5.86932,0,0,5.99389,-947.327,-380.673)">
                    <path d="M74.241,226.962L72.963,226.017L72.961,226.009L72.959,226.017L72.669,226.232L72.653,226.185L72.639,226.175L72.643,226.175L73.706,225.459L74.241,226.962Z" style="fill:rgb(178,190,194);fill-rule:nonzero;"/>
                </g>
                <g transform="matrix(5.86932,0,0,5.99389,-947.327,-380.673)">
                    <rect x="57.813" y="213.447" width="33.268" height="20.857" style="fill:rgb(61,183,99);fill-rule:nonzero;"/>
                </g>
                <g transform="matrix(5.86932,0,0,5.99389,-947.327,-380.673)">
                    <rect x="75.084" y="213.447" width="15.997" height="20.857" style="fill:rgb(225,58,55);fill-rule:nonzero;"/>
                </g>
                <g transform="matrix(5.86932,0,0,5.99389,-947.327,-380.673)">
                    <rect x="68.871" y="213.441" width="11.242" height="20.883" style="fill:rgb(241,234,59);fill-rule:nonzero;"/>
                </g>
                <g transform="matrix(5.86932,0,0,5.99389,-947.327,-380.673)">
                    <path d="M75.578,223.918L76.113,225.423L74.836,224.478L74.834,224.47L74.831,224.478L73.555,225.423L74.089,223.918L74.104,223.908L74.096,223.908L72.782,223.019L74.364,223.021L74.797,221.507L75.286,223.019L75.284,223.023L75.29,223.021L76.885,223.019L75.568,223.908L75.563,223.908L75.578,223.918Z" style="fill:rgb(61,183,99);fill-rule:nonzero;"/>
                </g>
                <g transform="matrix(5.86932,0,0,5.99389,-947.327,-380.673)">
                    <path d="M67.083,209.796L67.282,209.675C67.423,209.935 67.585,210.064 67.769,210.064L67.991,210.009L68.149,209.861L68.204,209.666L68.124,209.433C68.05,209.33 67.916,209.203 67.721,209.056C67.525,208.908 67.404,208.802 67.356,208.736C67.272,208.625 67.231,208.505 67.231,208.377C67.231,208.273 67.256,208.181 67.305,208.097L67.511,207.898C67.6,207.849 67.697,207.826 67.801,207.826C67.912,207.826 68.016,207.853 68.112,207.908C68.208,207.962 68.31,208.064 68.418,208.211L68.226,208.355C68.138,208.238 68.063,208.162 68,208.125L67.796,208.068C67.702,208.068 67.624,208.097 67.564,208.154L67.474,208.367L67.506,208.515L67.623,208.671C67.653,208.701 67.754,208.779 67.926,208.906C68.129,209.056 68.269,209.189 68.344,209.306C68.42,209.423 68.458,209.543 68.458,209.66C68.458,209.83 68.393,209.978 68.264,210.103C68.134,210.23 67.977,210.293 67.792,210.293C67.649,210.293 67.52,210.253 67.404,210.177C67.288,210.101 67.181,209.974 67.083,209.796Z" style="fill-rule:nonzero;"/>
                </g>
                <g transform="matrix(5.86932,0,0,5.99389,-947.327,-380.673)">
                    <path d="M70.38,209.189C70.351,209.07 70.307,208.974 70.25,208.904C70.193,208.832 70.118,208.775 70.023,208.73C69.93,208.687 69.831,208.666 69.728,208.666C69.557,208.666 69.411,208.72 69.288,208.83C69.199,208.91 69.131,209.029 69.085,209.189L70.38,209.189ZM70.38,209.656L70.569,209.755C70.507,209.877 70.436,209.974 70.355,210.05C70.273,210.125 70.182,210.181 70.081,210.22C69.98,210.259 69.865,210.279 69.737,210.279C69.454,210.279 69.232,210.185 69.073,210C68.913,209.814 68.833,209.603 68.833,209.369C68.833,209.15 68.9,208.953 69.036,208.781C69.208,208.56 69.437,208.451 69.725,208.451C70.021,208.451 70.257,208.564 70.434,208.789C70.56,208.947 70.624,209.144 70.626,209.382L69.063,209.382C69.067,209.584 69.132,209.75 69.256,209.878C69.381,210.007 69.535,210.072 69.718,210.072L69.977,210.025L70.19,209.904C70.249,209.853 70.312,209.771 70.38,209.656Z" style="fill-rule:nonzero;"/>
                </g>
                <g transform="matrix(5.86932,0,0,5.99389,-947.327,-380.673)">
                    <path d="M71.043,208.496L71.267,208.496L71.267,208.808C71.356,208.689 71.455,208.599 71.564,208.541C71.672,208.48 71.791,208.451 71.918,208.451C72.048,208.451 72.163,208.484 72.264,208.55C72.364,208.617 72.438,208.705 72.487,208.816C72.535,208.929 72.559,209.103 72.559,209.339L72.559,210.234L72.335,210.234L72.335,209.404C72.335,209.205 72.327,209.07 72.31,209.003C72.284,208.888 72.235,208.802 72.161,208.744C72.087,208.687 71.992,208.658 71.874,208.658C71.738,208.658 71.617,208.703 71.51,208.791C71.403,208.88 71.333,208.992 71.298,209.123C71.277,209.211 71.267,209.367 71.267,209.595L71.267,210.234L71.043,210.234L71.043,208.496Z" style="fill-rule:nonzero;"/>
                </g>
                <g transform="matrix(5.86932,0,0,5.99389,-947.327,-380.673)">
                    <path d="M74.501,209.189C74.47,209.07 74.426,208.974 74.37,208.904C74.313,208.832 74.237,208.775 74.143,208.73C74.049,208.687 73.951,208.666 73.848,208.666C73.676,208.666 73.53,208.72 73.408,208.83C73.319,208.91 73.251,209.029 73.206,209.189L74.501,209.189ZM74.501,209.656L74.688,209.755C74.627,209.877 74.555,209.974 74.474,210.05C74.393,210.125 74.301,210.181 74.201,210.22C74.1,210.259 73.985,210.279 73.857,210.279C73.574,210.279 73.352,210.185 73.192,210C73.032,209.814 72.953,209.603 72.953,209.369C72.953,209.15 73.02,208.953 73.156,208.781C73.327,208.56 73.557,208.451 73.844,208.451C74.141,208.451 74.377,208.564 74.553,208.789C74.68,208.947 74.744,209.144 74.746,209.382L73.182,209.382C73.186,209.584 73.252,209.75 73.376,209.878C73.501,210.007 73.655,210.072 73.838,210.072L74.096,210.025L74.309,209.904C74.368,209.853 74.432,209.771 74.501,209.656Z" style="fill-rule:nonzero;"/>
                </g>
                <g transform="matrix(5.86932,0,0,5.99389,-947.327,-380.673)">
                    <path d="M76.001,208.668C75.875,208.668 75.756,208.697 75.648,208.759C75.54,208.82 75.454,208.904 75.393,209.013C75.331,209.121 75.299,209.238 75.299,209.363C75.299,209.554 75.364,209.711 75.492,209.836C75.62,209.961 75.785,210.023 75.989,210.023C76.194,210.023 76.359,209.961 76.484,209.837C76.609,209.714 76.671,209.552 76.671,209.351C76.671,209.218 76.643,209.103 76.585,209C76.528,208.896 76.446,208.816 76.341,208.755C76.236,208.697 76.123,208.668 76.001,208.668ZM76.661,208.496L76.883,208.496L76.883,209.88C76.883,210.125 76.863,210.302 76.821,210.416C76.762,210.576 76.66,210.699 76.515,210.785C76.37,210.871 76.196,210.914 75.993,210.914C75.844,210.914 75.71,210.892 75.591,210.851C75.473,210.808 75.376,210.752 75.301,210.681C75.227,210.609 75.159,210.505 75.096,210.369L75.338,210.369C75.405,210.484 75.49,210.57 75.594,210.625C75.699,210.679 75.829,210.707 75.983,210.707C76.135,210.707 76.264,210.679 76.369,210.623C76.473,210.566 76.548,210.494 76.593,210.408C76.638,210.322 76.661,210.183 76.661,209.992L76.661,209.902C76.577,210.009 76.473,210.091 76.352,210.148C76.231,210.205 76.102,210.234 75.965,210.234C75.805,210.234 75.655,210.193 75.514,210.115C75.374,210.035 75.265,209.927 75.188,209.795C75.112,209.66 75.073,209.513 75.073,209.351C75.073,209.191 75.114,209.041 75.194,208.902C75.273,208.763 75.383,208.654 75.525,208.572C75.667,208.492 75.815,208.451 75.971,208.451C76.102,208.451 76.223,208.478 76.335,208.533C76.448,208.586 76.556,208.673 76.661,208.798L76.661,208.496Z" style="fill-rule:nonzero;"/>
                </g>
                <g transform="matrix(5.86932,0,0,5.99389,-947.327,-380.673)">
                    <path d="M78.2,208.668C78.077,208.668 77.961,208.697 77.856,208.759C77.751,208.82 77.667,208.906 77.604,209.015C77.543,209.127 77.511,209.244 77.511,209.367C77.511,209.49 77.543,209.607 77.606,209.718C77.668,209.83 77.752,209.916 77.858,209.978C77.963,210.041 78.078,210.072 78.199,210.072C78.321,210.072 78.437,210.041 78.546,209.98C78.656,209.918 78.741,209.834 78.799,209.728C78.858,209.625 78.887,209.505 78.887,209.373C78.887,209.171 78.822,209.003 78.69,208.869C78.557,208.734 78.394,208.668 78.2,208.668ZM79.094,208.496L79.094,210.234L78.874,210.234L78.874,209.935C78.78,210.048 78.674,210.134 78.558,210.191C78.442,210.25 78.314,210.279 78.176,210.279C77.93,210.279 77.719,210.189 77.545,210.011C77.372,209.832 77.285,209.615 77.285,209.359C77.285,209.109 77.373,208.896 77.547,208.718C77.723,208.541 77.935,208.451 78.182,208.451C78.325,208.451 78.454,208.482 78.569,208.543C78.684,208.603 78.786,208.695 78.874,208.816L78.874,208.496L79.094,208.496Z" style="fill-rule:nonzero;"/>
                </g>
                <g transform="matrix(5.86932,0,0,5.99389,-947.327,-380.673)">
                    <rect x="79.563" y="207.826" width="0.224" height="2.408" style="fill-rule:nonzero;"/>
                </g>
            </g>
        </g>
    </g>
</svg>
