<?xml version="1.0" encoding="UTF-8" standalone="no"?>
<!DOCTYPE svg PUBLIC "-//W3C//DTD SVG 1.1//EN" "http://www.w3.org/Graphics/SVG/1.1/DTD/svg11.dtd">
<svg width="100%" height="100%" viewBox="0 0 210 164" version="1.1" xmlns="http://www.w3.org/2000/svg" xmlns:xlink="http://www.w3.org/1999/xlink" xml:space="preserve" xmlns:serif="http://www.serif.com/" style="fill-rule:evenodd;clip-rule:evenodd;stroke-linejoin:round;stroke-miterlimit:2;">
    <g transform="matrix(1,0,0,1,-1211.46,-8.33333)">
        <g id="Artboard6" transform="matrix(0.709906,0,0,0.695153,1684.38,-570.96)">
            <rect x="-666.179" y="833.333" width="294.444" height="235.774" style="fill:none;"/>
            <clipPath id="_clip1">
                <rect x="-666.179" y="833.333" width="294.444" height="235.774"/>
            </clipPath>
            <g clip-path="url(#_clip1)">
                <g transform="matrix(1.40864,0,0,1.43853,-727.807,776.391)">
                    <rect x="0" y="0" width="294.444" height="235.774" style="fill:rgb(235,235,235);"/>
                </g>
                <g transform="matrix(5.86932,0,0,5.99389,-653.799,449.217)">
                    <path d="M4.888,97.885L4.888,77.028L5.94,77.028L5.94,83.888L4.888,83.888L4.888,97.885Z" style="fill:rgb(205,218,221);fill-rule:nonzero;"/>
                </g>
                <g transform="matrix(5.86932,0,0,5.99389,-653.799,449.217)">
                    <path d="M38.117,97.885L4.888,97.885L4.888,87.554L4.888,90.905L5.94,90.905L5.94,97.157L38.117,97.157L38.117,97.885Z" style="fill:rgb(205,218,221);fill-rule:nonzero;"/>
                </g>
                <g transform="matrix(5.86932,0,0,5.99389,-653.799,449.217)">
                    <path d="M5.94,90.905L4.888,90.905L4.888,83.888L5.94,83.888L5.94,90.905Z" style="fill:rgb(205,218,221);fill-rule:nonzero;"/>
                </g>
                <g transform="matrix(5.86932,0,0,5.99389,-653.799,449.217)">
                    <path d="M39.169,83.159L38.117,83.159L38.117,77.028L5.94,77.028L5.94,76.3L39.169,76.3L39.169,83.159Z" style="fill:rgb(195,208,211);fill-rule:nonzero;"/>
                </g>
                <g transform="matrix(5.86932,0,0,5.99389,-653.799,449.217)">
                    <path d="M5.94,83.888L5.94,77.028L38.117,77.028L38.117,83.159L5.94,83.159L5.94,83.888Z" style="fill:rgb(178,190,194);fill-rule:nonzero;"/>
                </g>
                <g transform="matrix(5.86932,0,0,5.99389,-653.799,449.217)">
                    <path d="M39.169,97.157L38.117,97.157L38.117,90.905L38.135,90.905L38.135,90.176L39.169,90.176L39.169,97.157Z" style="fill:rgb(195,208,211);fill-rule:nonzero;"/>
                </g>
                <g transform="matrix(5.86932,0,0,5.99389,-653.799,449.217)">
                    <rect x="5.94" y="90.905" width="32.177" height="6.252" style="fill:rgb(178,190,194);fill-rule:nonzero;"/>
                </g>
                <g transform="matrix(5.86932,0,0,5.99389,-653.799,449.217)">
                    <path d="M38.135,90.905L5.94,90.905L5.94,86.826L5.94,90.176L38.135,90.176L38.135,90.905Z" style="fill:rgb(178,190,194);fill-rule:nonzero;"/>
                </g>
                <g transform="matrix(5.86932,0,0,5.99389,-653.799,449.217)">
                    <path d="M39.188,90.176L38.135,90.176L38.135,83.888L38.117,83.888L38.117,83.159L39.188,83.159L39.188,90.176Z" style="fill:rgb(195,208,211);fill-rule:nonzero;"/>
                </g>
                <g transform="matrix(5.86932,0,0,5.99389,-653.799,449.217)">
                    <rect x="5.94" y="83.159" width="32.177" height="0.729" style="fill:rgb(178,190,194);fill-rule:nonzero;"/>
                </g>
                <g transform="matrix(5.86932,0,0,5.99389,-653.799,449.217)">
                    <path d="M38.135,90.176L5.94,90.176L5.94,83.888L38.135,83.888L38.135,90.176Z" style="fill:rgb(178,190,194);fill-rule:nonzero;"/>
                </g>
                <g transform="matrix(5.86932,0,0,5.99389,-653.799,449.217)">
                    <rect x="7.812" y="74.76" width="33.23" height="20.857" style="fill:rgb(225,58,55);fill-rule:nonzero;"/>
                </g>
                <g transform="matrix(5.86932,0,0,5.99389,-653.799,449.217)">
                    <rect x="7.812" y="85.286" width="33.23" height="10.331" style="fill:rgb(64,183,90);fill-rule:nonzero;"/>
                </g>
                <g transform="matrix(5.86932,0,0,5.99389,-653.799,449.217)">
                    <rect x="7.812" y="81.619" width="33.248" height="7.017" style="fill:white;fill-rule:nonzero;"/>
                </g>
                <g transform="matrix(5.86932,0,0,5.99389,-653.799,449.217)">
                    <path d="M17.616,69.62L17.851,69.62L17.851,70.605L19.047,70.605L19.047,69.62L19.282,69.62L19.282,71.968L19.047,71.968L19.047,70.835L17.851,70.835L17.851,71.968L17.616,71.968L17.616,69.62Z" style="fill-rule:nonzero;"/>
                </g>
                <g transform="matrix(5.86932,0,0,5.99389,-653.799,449.217)">
                    <path d="M19.788,70.231L20.011,70.231L20.011,71.042C20.011,71.24 20.022,71.376 20.043,71.451C20.075,71.557 20.136,71.642 20.227,71.703C20.316,71.765 20.424,71.796 20.549,71.796C20.673,71.796 20.779,71.766 20.866,71.706C20.953,71.646 21.013,71.566 21.046,71.468C21.068,71.401 21.08,71.259 21.08,71.042L21.08,70.231L21.308,70.231L21.308,71.084C21.308,71.323 21.28,71.503 21.224,71.625C21.168,71.746 21.084,71.841 20.972,71.91C20.859,71.979 20.719,72.013 20.549,72.013C20.38,72.013 20.239,71.979 20.126,71.91C20.012,71.841 19.927,71.746 19.872,71.623C19.816,71.5 19.788,71.314 19.788,71.068L19.788,70.231Z" style="fill-rule:nonzero;"/>
                </g>
                <g transform="matrix(5.86932,0,0,5.99389,-653.799,449.217)">
                    <path d="M21.804,70.231L22.028,70.231L22.028,70.543C22.117,70.423 22.216,70.334 22.325,70.275C22.434,70.216 22.552,70.186 22.679,70.186C22.809,70.186 22.924,70.219 23.025,70.285C23.126,70.351 23.2,70.44 23.248,70.552C23.296,70.664 23.32,70.838 23.32,71.074L23.32,71.968L23.096,71.968L23.096,71.14C23.096,70.939 23.088,70.806 23.071,70.739C23.045,70.624 22.996,70.537 22.922,70.48C22.849,70.421 22.753,70.392 22.635,70.392C22.5,70.392 22.378,70.437 22.272,70.526C22.165,70.616 22.094,70.727 22.06,70.858C22.039,70.945 22.028,71.102 22.028,71.331L22.028,71.968L21.804,71.968L21.804,70.231Z" style="fill-rule:nonzero;"/>
                </g>
                <g transform="matrix(5.86932,0,0,5.99389,-653.799,449.217)">
                    <path d="M24.637,70.402C24.51,70.402 24.393,70.433 24.284,70.494C24.175,70.555 24.09,70.64 24.028,70.748C23.967,70.855 23.936,70.973 23.936,71.098C23.936,71.289 24,71.446 24.127,71.571C24.255,71.695 24.42,71.757 24.624,71.757C24.83,71.757 24.995,71.696 25.12,71.572C25.245,71.449 25.307,71.287 25.307,71.085C25.307,70.954 25.279,70.837 25.221,70.735C25.164,70.632 25.082,70.551 24.977,70.491C24.872,70.432 24.758,70.402 24.637,70.402ZM25.296,70.231L25.52,70.231L25.52,71.615C25.52,71.859 25.499,72.038 25.456,72.15C25.397,72.31 25.295,72.433 25.151,72.519C25.006,72.605 24.832,72.648 24.629,72.648C24.48,72.648 24.346,72.627 24.227,72.585C24.108,72.543 24.012,72.486 23.938,72.416C23.863,72.344 23.794,72.241 23.731,72.104L23.974,72.104C24.04,72.219 24.126,72.304 24.23,72.359C24.335,72.415 24.464,72.442 24.618,72.442C24.771,72.442 24.899,72.414 25.004,72.357C25.109,72.301 25.184,72.229 25.229,72.144C25.274,72.058 25.296,71.918 25.296,71.727L25.296,71.638C25.212,71.744 25.109,71.826 24.988,71.883C24.866,71.94 24.737,71.968 24.601,71.968C24.441,71.968 24.291,71.929 24.15,71.849C24.009,71.77 23.901,71.663 23.824,71.529C23.748,71.395 23.709,71.248 23.709,71.087C23.709,70.926 23.749,70.776 23.829,70.637C23.909,70.499 24.02,70.389 24.161,70.308C24.302,70.227 24.451,70.186 24.607,70.186C24.737,70.186 24.858,70.213 24.971,70.267C25.084,70.321 25.192,70.409 25.296,70.533L25.296,70.231Z" style="fill-rule:nonzero;"/>
                </g>
                <g transform="matrix(5.86932,0,0,5.99389,-653.799,449.217)">
                    <path d="M26.836,70.402C26.712,70.402 26.597,70.433 26.492,70.494C26.386,70.555 26.303,70.641 26.24,70.751C26.178,70.862 26.147,70.979 26.147,71.102C26.147,71.224 26.179,71.341 26.241,71.453C26.304,71.564 26.388,71.651 26.494,71.714C26.6,71.776 26.713,71.807 26.835,71.807C26.957,71.807 27.073,71.776 27.182,71.714C27.292,71.653 27.376,71.569 27.435,71.464C27.494,71.359 27.523,71.24 27.523,71.108C27.523,70.907 27.458,70.739 27.325,70.605C27.192,70.469 27.03,70.402 26.836,70.402ZM27.73,70.231L27.73,71.968L27.509,71.968L27.509,71.669C27.416,71.784 27.311,71.869 27.194,71.927C27.077,71.984 26.95,72.013 26.812,72.013C26.565,72.013 26.356,71.924 26.182,71.746C26.007,71.567 25.92,71.35 25.92,71.095C25.92,70.845 26.008,70.631 26.184,70.453C26.359,70.275 26.571,70.186 26.818,70.186C26.96,70.186 27.089,70.217 27.205,70.277C27.32,70.338 27.422,70.429 27.509,70.55L27.509,70.231L27.73,70.231Z" style="fill-rule:nonzero;"/>
                </g>
                <g transform="matrix(5.86932,0,0,5.99389,-653.799,449.217)">
                    <path d="M28.148,70.231L28.376,70.231L28.376,70.485C28.444,70.385 28.516,70.31 28.592,70.261L28.828,70.186L29.026,70.245L28.91,70.434L28.792,70.403L28.576,70.495C28.506,70.557 28.454,70.651 28.418,70.78C28.39,70.879 28.376,71.08 28.376,71.381L28.376,71.968L28.148,71.968L28.148,70.231Z" style="fill-rule:nonzero;"/>
                </g>
                <g transform="matrix(5.86932,0,0,5.99389,-653.799,449.217)">
                    <path d="M29.029,70.231L29.266,70.231L29.862,71.569L30.442,70.231L30.68,70.231L29.644,72.604L29.408,72.604L29.742,71.837L29.029,70.231Z" style="fill-rule:nonzero;"/>
                </g>
            </g>
        </g>
    </g>
</svg>
