<?xml version="1.0" encoding="UTF-8" standalone="no"?>
<!DOCTYPE svg PUBLIC "-//W3C//DTD SVG 1.1//EN" "http://www.w3.org/Graphics/SVG/1.1/DTD/svg11.dtd">
<svg width="100%" height="100%" viewBox="0 0 210 164" version="1.1" xmlns="http://www.w3.org/2000/svg" xmlns:xlink="http://www.w3.org/1999/xlink" xml:space="preserve" xmlns:serif="http://www.serif.com/" style="fill-rule:evenodd;clip-rule:evenodd;stroke-linejoin:round;stroke-miterlimit:2;">
    <g transform="matrix(1,0,0,1,-8.33333,-212.5)">
        <g id="Artboard7" transform="matrix(0.709906,0,0,0.695153,481.258,-366.794)">
            <rect x="-666.179" y="833.333" width="294.444" height="235.774" style="fill:none;"/>
            <clipPath id="_clip1">
                <rect x="-666.179" y="833.333" width="294.444" height="235.774"/>
            </clipPath>
            <g clip-path="url(#_clip1)">
                <g transform="matrix(1.40864,0,0,1.43853,-727.807,776.391)">
                    <rect x="0" y="0" width="294.444" height="235.774" style="fill:rgb(235,235,235);"/>
                </g>
                <g transform="matrix(5.86932,0,0,5.99389,-1242.21,449.118)">
                    <path d="M138.37,98.022L105.14,98.022L105.14,77.165L106.192,77.165L106.192,82.73L105.14,82.73L105.14,92.335L106.192,92.335L106.192,97.293L138.37,97.293L138.37,98.022Z" style="fill:rgb(205,218,221);fill-rule:nonzero;"/>
                </g>
                <g transform="matrix(5.86932,0,0,5.99389,-1242.21,449.118)">
                    <rect x="105.14" y="82.73" width="1.052" height="9.605" style="fill:rgb(205,218,221);fill-rule:nonzero;"/>
                </g>
                <g transform="matrix(5.86932,0,0,5.99389,-1242.21,449.118)">
                    <path d="M139.422,97.293L138.37,97.293L138.37,92.335L138.388,92.335L138.388,91.607L139.422,91.607L139.422,97.293ZM139.422,82.001L138.37,82.001L138.37,77.165L106.192,77.165L106.192,76.437L139.422,76.437L139.422,82.001Z" style="fill:rgb(195,208,211);fill-rule:nonzero;"/>
                </g>
                <g transform="matrix(5.86932,0,0,5.99389,-1242.21,449.118)">
                    <path d="M138.37,97.293L106.192,97.293L106.192,92.335L138.37,92.335L138.37,97.293ZM106.192,82.73L106.192,77.165L138.37,77.165L138.37,82.001L106.192,82.001L106.192,82.73Z" style="fill:rgb(178,190,194);fill-rule:nonzero;"/>
                </g>
                <g transform="matrix(5.86932,0,0,5.99389,-1242.21,449.118)">
                    <path d="M138.388,92.335L106.192,92.335L106.192,82.73L106.192,91.607L138.388,91.607L138.388,92.335Z" style="fill:rgb(178,190,194);fill-rule:nonzero;"/>
                </g>
                <g transform="matrix(5.86932,0,0,5.99389,-1242.21,449.118)">
                    <path d="M139.44,91.607L138.388,91.607L138.388,82.73L138.37,82.73L138.37,82.001L139.44,82.001L139.44,91.607Z" style="fill:rgb(195,208,211);fill-rule:nonzero;"/>
                </g>
                <g transform="matrix(5.86932,0,0,5.99389,-1242.21,449.118)">
                    <rect x="106.192" y="82.001" width="32.178" height="0.729" style="fill:rgb(178,190,194);fill-rule:nonzero;"/>
                </g>
                <g transform="matrix(5.86932,0,0,5.99389,-1242.21,449.118)">
                    <path d="M138.388,91.607L106.192,91.607L106.192,82.73L138.388,82.73L138.388,91.607Z" style="fill:rgb(178,190,194);fill-rule:nonzero;"/>
                </g>
                <g transform="matrix(5.86932,0,0,5.99389,-1242.21,449.118)">
                    <rect x="108.064" y="74.897" width="33.23" height="20.856" style="fill:rgb(239,66,63);fill-rule:nonzero;"/>
                </g>
                <g transform="matrix(5.86932,0,0,5.99389,-1242.21,449.118)">
                    <rect x="108.064" y="80.461" width="33.248" height="9.606" style="fill:rgb(241,234,59);fill-rule:nonzero;"/>
                </g>
                <g transform="matrix(5.86932,0,0,5.99389,-1242.21,449.118)">
                    <path d="M120.258,71.531L120.458,71.411C120.599,71.669 120.761,71.799 120.944,71.799L121.167,71.744L121.325,71.596L121.379,71.4L121.299,71.168C121.226,71.064 121.091,70.939 120.896,70.792C120.7,70.644 120.579,70.537 120.53,70.471C120.448,70.36 120.406,70.24 120.406,70.111C120.406,70.009 120.431,69.916 120.479,69.832L120.687,69.633C120.775,69.585 120.872,69.561 120.977,69.561C121.087,69.561 121.19,69.588 121.287,69.643C121.384,69.697 121.485,69.798 121.593,69.945L121.401,70.09C121.313,69.973 121.237,69.896 121.175,69.859L120.972,69.803C120.877,69.803 120.8,69.832 120.739,69.889L120.649,70.102L120.681,70.25L120.798,70.407C120.829,70.437 120.93,70.515 121.101,70.641C121.304,70.792 121.444,70.925 121.52,71.042C121.595,71.159 121.633,71.277 121.633,71.395C121.633,71.565 121.567,71.713 121.438,71.839C121.31,71.964 121.152,72.027 120.967,72.027C120.824,72.027 120.694,71.989 120.579,71.913C120.463,71.837 120.356,71.71 120.258,71.531Z" style="fill-rule:nonzero;"/>
                </g>
                <g transform="matrix(5.86932,0,0,5.99389,-1242.21,449.118)">
                    <path d="M122.99,70.402C122.797,70.402 122.634,70.469 122.502,70.605C122.37,70.739 122.304,70.907 122.304,71.108C122.304,71.24 122.333,71.359 122.392,71.464C122.451,71.569 122.536,71.653 122.646,71.714C122.755,71.776 122.871,71.807 122.993,71.807C123.113,71.807 123.226,71.776 123.332,71.714C123.438,71.651 123.522,71.564 123.585,71.453C123.647,71.341 123.679,71.224 123.679,71.102C123.679,70.979 123.647,70.862 123.585,70.751C123.522,70.641 123.439,70.555 123.335,70.494C123.229,70.433 123.114,70.402 122.99,70.402ZM122.097,70.231L122.319,70.231L122.319,70.55C122.407,70.429 122.509,70.338 122.624,70.277C122.739,70.217 122.867,70.186 123.009,70.186C123.255,70.186 123.466,70.275 123.642,70.453C123.817,70.631 123.905,70.845 123.905,71.095C123.905,71.35 123.818,71.567 123.645,71.746C123.471,71.924 123.261,72.013 123.015,72.013C122.877,72.013 122.749,71.984 122.634,71.927C122.519,71.869 122.413,71.784 122.319,71.669L122.319,72.604L122.097,72.604L122.097,70.231Z" style="fill-rule:nonzero;"/>
                </g>
                <g transform="matrix(5.86932,0,0,5.99389,-1242.21,449.118)">
                    <path d="M125.161,70.402C125.036,70.402 124.921,70.433 124.816,70.494C124.711,70.555 124.628,70.641 124.565,70.751C124.503,70.862 124.472,70.979 124.472,71.102C124.472,71.224 124.503,71.341 124.565,71.453C124.628,71.564 124.713,71.651 124.819,71.714C124.925,71.776 125.038,71.807 125.159,71.807C125.282,71.807 125.397,71.776 125.507,71.714C125.616,71.653 125.7,71.569 125.76,71.464C125.819,71.359 125.849,71.24 125.849,71.108C125.849,70.907 125.782,70.739 125.649,70.605C125.517,70.469 125.354,70.402 125.161,70.402ZM126.054,70.231L126.054,71.968L125.834,71.968L125.834,71.669C125.74,71.784 125.636,71.869 125.519,71.927C125.401,71.984 125.274,72.013 125.136,72.013C124.89,72.013 124.681,71.924 124.507,71.746C124.332,71.567 124.245,71.35 124.245,71.095C124.245,70.845 124.333,70.631 124.509,70.453C124.685,70.275 124.896,70.186 125.143,70.186C125.285,70.186 125.414,70.217 125.53,70.277C125.646,70.338 125.747,70.429 125.834,70.55L125.834,70.231L126.054,70.231Z" style="fill-rule:nonzero;"/>
                </g>
                <g transform="matrix(5.86932,0,0,5.99389,-1242.21,449.118)">
                    <path d="M126.523,70.231L126.747,70.231L126.747,71.968L126.523,71.968L126.523,70.231ZM126.635,69.516L126.765,69.57L126.819,69.701L126.765,69.83L126.635,69.884L126.506,69.83L126.452,69.701L126.506,69.57L126.635,69.516Z" style="fill-rule:nonzero;"/>
                </g>
                <g transform="matrix(5.86932,0,0,5.99389,-1242.21,449.118)">
                    <path d="M127.212,70.231L127.436,70.231L127.436,70.543C127.524,70.423 127.624,70.334 127.732,70.275C127.841,70.216 127.96,70.186 128.087,70.186C128.216,70.186 128.332,70.219 128.433,70.285C128.533,70.351 128.606,70.44 128.655,70.552C128.703,70.664 128.728,70.838 128.728,71.074L128.728,71.968L128.504,71.968L128.504,71.14C128.504,70.939 128.494,70.806 128.479,70.739C128.453,70.624 128.403,70.537 128.33,70.48C128.257,70.421 128.16,70.392 128.042,70.392C127.907,70.392 127.786,70.437 127.679,70.526C127.572,70.616 127.501,70.727 127.468,70.858C127.446,70.945 127.436,71.102 127.436,71.331L127.436,71.968L127.212,71.968L127.212,70.231Z" style="fill-rule:nonzero;"/>
                </g>
            </g>
        </g>
    </g>
</svg>
