<?xml version="1.0" encoding="UTF-8" standalone="no"?>
<!DOCTYPE svg PUBLIC "-//W3C//DTD SVG 1.1//EN" "http://www.w3.org/Graphics/SVG/1.1/DTD/svg11.dtd">
<svg width="100%" height="100%" viewBox="0 0 210 164" version="1.1" xmlns="http://www.w3.org/2000/svg" xmlnsXlink="http://www.w3.org/1999/xlink" xmlSpace="preserve" xmlnsSerif="http://www.serif.com/" style="fill-rule:evenodd;clip-rule:evenodd;stroke-linejoin:round;stroke-miterlimit:2;">
    <g transform="matrix(1,0,0,1,-990.625,-445.476)">
        <g id="Artboard1" transform="matrix(0.709906,0,0,0.695153,1463.55,-133.818)">
            <rect x="-666.179" y="833.333" width="294.444" height="235.774" style="fill:none;"/>
            <clipPath id="_clip1">
                <rect x="-666.179" y="833.333" width="294.444" height="235.774"/>
            </clipPath>
            <g clip-path="url(#_clip1)">
                <g transform="matrix(1.40864,0,0,1.43853,-727.807,776.391)">
                    <rect x="0" y="0" width="294.444" height="235.774" style="fill:rgb(235,235,235);"/>
                </g>
                <g transform="matrix(5.86932,0,0,5.99389,-945.147,-656.38)">
                    <path d="M87.784,282.439L65.992,282.439L65.992,281.711L87.784,281.711L87.784,282.439ZM62.905,282.439L54.518,282.439L54.518,261.579L55.57,261.579L55.57,270.334L54.518,270.334L54.518,273.419L55.57,273.419L55.57,281.711L62.905,281.711L62.905,282.439Z" style="fill:rgb(205,218,221);fill-rule:nonzero;"/>
                </g>
                <g transform="matrix(5.86932,0,0,5.99389,-945.147,-656.38)">
                    <rect x="54.518" y="270.334" width="1.052" height="3.085" style="fill:rgb(205,218,221);fill-rule:nonzero;"/>
                </g>
                <g transform="matrix(5.86932,0,0,5.99389,-945.147,-656.38)">
                    <path d="M65.992,282.439L62.905,282.439L62.905,281.711L65.992,281.711L65.992,282.439Z" style="fill:rgb(205,218,221);fill-rule:nonzero;"/>
                </g>
                <g transform="matrix(5.86932,0,0,5.99389,-945.147,-656.38)">
                    <path d="M88.835,281.711L87.784,281.711L87.784,272.691L88.835,272.691L88.835,281.711Z" style="fill:rgb(195,208,211);fill-rule:nonzero;"/>
                </g>
                <g transform="matrix(5.86932,0,0,5.99389,-945.147,-656.38)">
                    <rect x="67.044" y="273.419" width="20.74" height="8.292" style="fill:rgb(178,190,194);fill-rule:nonzero;"/>
                </g>
                <g transform="matrix(5.86932,0,0,5.99389,-945.147,-656.38)">
                    <rect x="67.044" y="272.691" width="20.74" height="0.728" style="fill:rgb(178,190,194);fill-rule:nonzero;"/>
                </g>
                <g transform="matrix(5.86932,0,0,5.99389,-945.147,-656.38)">
                    <path d="M88.835,269.605L87.784,269.605L87.784,261.579L67.044,261.579L67.044,260.849L63.958,260.849L63.958,261.579L55.57,261.579L55.57,260.849L88.835,260.849L88.835,269.605Z" style="fill:rgb(195,208,211);fill-rule:nonzero;"/>
                </g>
                <g transform="matrix(5.86932,0,0,5.99389,-945.147,-656.38)">
                    <path d="M62.905,281.711L55.57,281.711L55.57,273.419L62.905,273.419L62.905,281.711ZM55.57,270.334L55.57,261.579L63.958,261.579L62.905,261.579L62.905,269.605L55.57,269.605L55.57,270.334ZM87.784,269.605L67.044,269.605L67.044,261.579L87.784,261.579L87.784,269.605Z" style="fill:rgb(178,190,194);fill-rule:nonzero;"/>
                </g>
                <g transform="matrix(5.86932,0,0,5.99389,-945.147,-656.38)">
                    <path d="M62.905,273.419L55.57,273.419L55.57,270.334L55.57,272.691L62.905,272.691L62.905,273.419Z" style="fill:rgb(178,190,194);fill-rule:nonzero;"/>
                </g>
                <g transform="matrix(5.86932,0,0,5.99389,-945.147,-656.38)">
                    <path d="M63.958,281.711L62.905,281.711L62.905,272.691L63.958,272.691L63.958,281.711ZM63.958,269.605L62.905,269.605L62.905,261.579L63.958,261.579L63.958,269.605Z" style="fill:rgb(178,190,194);fill-rule:nonzero;"/>
                </g>
                <g transform="matrix(5.86932,0,0,5.99389,-945.147,-656.38)">
                    <path d="M88.835,272.691L87.784,272.691L87.784,269.605L88.835,269.605L88.835,272.691Z" style="fill:rgb(195,208,211);fill-rule:nonzero;"/>
                </g>
                <g transform="matrix(5.86932,0,0,5.99389,-945.147,-656.38)">
                    <rect x="67.044" y="269.605" width="20.74" height="0.729" style="fill:rgb(178,190,194);fill-rule:nonzero;"/>
                </g>
                <g transform="matrix(5.86932,0,0,5.99389,-945.147,-656.38)">
                    <rect x="67.044" y="270.334" width="20.74" height="2.357" style="fill:rgb(178,190,194);fill-rule:nonzero;"/>
                </g>
                <g transform="matrix(5.86932,0,0,5.99389,-945.147,-656.38)">
                    <rect x="55.57" y="269.605" width="7.335" height="0.729" style="fill:rgb(178,190,194);fill-rule:nonzero;"/>
                </g>
                <g transform="matrix(5.86932,0,0,5.99389,-945.147,-656.38)">
                    <rect x="55.57" y="270.334" width="7.335" height="2.357" style="fill:rgb(178,190,194);fill-rule:nonzero;"/>
                </g>
                <g transform="matrix(5.86932,0,0,5.99389,-945.147,-656.38)">
                    <path d="M63.958,272.691L62.905,272.691L62.905,269.605L63.958,269.605L63.958,272.691Z" style="fill:rgb(178,190,194);fill-rule:nonzero;"/>
                </g>
                <g transform="matrix(5.86932,0,0,5.99389,-945.147,-656.38)">
                    <rect x="63.958" y="260.849" width="3.086" height="0.73" style="fill:rgb(195,208,211);fill-rule:nonzero;"/>
                </g>
                <g transform="matrix(5.86932,0,0,5.99389,-945.147,-656.38)">
                    <path d="M67.044,281.711L65.992,281.711L65.992,273.419L67.044,273.419L67.044,281.711ZM67.044,270.334L65.992,270.334L65.992,261.579L63.958,261.579L67.044,261.579L67.044,270.334Z" style="fill:rgb(178,190,194);fill-rule:nonzero;"/>
                </g>
                <g transform="matrix(5.86932,0,0,5.99389,-945.147,-656.38)">
                    <path d="M67.044,273.419L65.992,273.419L65.992,270.334L67.044,270.334L67.044,273.419Z" style="fill:rgb(178,190,194);fill-rule:nonzero;"/>
                </g>
                <g transform="matrix(5.86932,0,0,5.99389,-945.147,-656.38)">
                    <path d="M65.992,281.711L63.958,281.711L63.958,261.579L65.992,261.579L65.992,281.711Z" style="fill:rgb(178,190,194);fill-rule:nonzero;"/>
                </g>
                <g transform="matrix(5.86932,0,0,5.99389,-945.147,-656.38)">
                    <path d="M67.526,256.16L67.797,256.16C68.122,256.16 68.347,256.14 68.473,256.099C68.65,256.043 68.789,255.939 68.89,255.791C68.991,255.64 69.042,255.459 69.042,255.242C69.042,255.015 68.987,254.822 68.877,254.662C68.767,254.5 68.615,254.39 68.418,254.332C68.272,254.287 68.03,254.263 67.692,254.263L67.526,254.263L67.526,256.16ZM67.301,256.382L67.301,254.035L67.788,254.035C68.139,254.035 68.394,254.062 68.553,254.119C68.781,254.199 68.959,254.337 69.087,254.533C69.215,254.73 69.279,254.964 69.279,255.238C69.279,255.472 69.229,255.679 69.127,255.859C69.025,256.039 68.893,256.17 68.731,256.255C68.568,256.339 68.341,256.382 68.048,256.382L67.301,256.382Z" style="fill-rule:nonzero;"/>
                </g>
                <g transform="matrix(5.86932,0,0,5.99389,-945.147,-656.38)">
                    <path d="M71.161,255.337C71.131,255.218 71.087,255.125 71.03,255.052C70.973,254.982 70.898,254.923 70.804,254.88C70.71,254.836 70.611,254.814 70.508,254.814C70.337,254.814 70.191,254.869 70.068,254.98C69.979,255.058 69.911,255.179 69.866,255.337L71.161,255.337ZM71.161,255.806L71.349,255.906C71.287,256.027 71.216,256.125 71.135,256.199C71.054,256.273 70.962,256.33 70.861,256.369C70.76,256.408 70.646,256.427 70.518,256.427C70.234,256.427 70.013,256.334 69.853,256.148C69.693,255.962 69.613,255.753 69.613,255.519C69.613,255.298 69.681,255.101 69.816,254.929C69.988,254.711 70.217,254.601 70.505,254.601C70.801,254.601 71.038,254.712 71.214,254.937C71.34,255.095 71.404,255.295 71.406,255.531L69.843,255.531C69.847,255.734 69.912,255.898 70.037,256.027C70.161,256.158 70.315,256.222 70.499,256.222L70.757,256.175L70.97,256.052C71.029,256.002 71.092,255.92 71.161,255.806Z" style="fill-rule:nonzero;"/>
                </g>
                <g transform="matrix(5.86932,0,0,5.99389,-945.147,-656.38)">
                    <path d="M71.823,254.646L72.047,254.646L72.047,254.957C72.136,254.837 72.235,254.748 72.344,254.689C72.453,254.63 72.571,254.601 72.698,254.601C72.829,254.601 72.944,254.634 73.043,254.699C73.145,254.765 73.219,254.855 73.266,254.966C73.315,255.078 73.338,255.252 73.338,255.488L73.338,256.382L73.116,256.382L73.116,255.554C73.116,255.353 73.107,255.22 73.09,255.154C73.065,255.039 73.014,254.951 72.942,254.894C72.868,254.836 72.772,254.806 72.654,254.806C72.518,254.806 72.397,254.851 72.291,254.941C72.184,255.031 72.113,255.14 72.079,255.273C72.058,255.359 72.047,255.517 72.047,255.746L72.047,256.382L71.823,256.382L71.823,254.646Z" style="fill-rule:nonzero;"/>
                </g>
                <g transform="matrix(5.86932,0,0,5.99389,-945.147,-656.38)">
                    <path d="M73.816,254.646L74.04,254.646L74.04,254.945C74.118,254.836 74.198,254.753 74.28,254.703C74.392,254.634 74.511,254.601 74.635,254.601L74.876,254.65L75.061,254.783C75.109,254.837 75.151,254.916 75.186,255.017C75.26,254.88 75.353,254.777 75.464,254.707C75.576,254.636 75.696,254.601 75.825,254.601C75.944,254.601 76.05,254.63 76.142,254.691C76.234,254.752 76.302,254.837 76.346,254.945C76.391,255.054 76.414,255.216 76.414,255.435L76.414,256.382L76.186,256.382L76.186,255.435C76.186,255.248 76.172,255.121 76.145,255.05L76.01,254.882L75.78,254.818C75.671,254.818 75.573,254.849 75.483,254.914C75.393,254.978 75.328,255.062 75.286,255.17C75.245,255.275 75.224,255.453 75.224,255.703L75.224,256.382L75.001,256.382L75.001,255.494C75.001,255.283 74.988,255.14 74.961,255.066L74.825,254.886L74.593,254.818C74.491,254.818 74.393,254.849 74.303,254.912C74.213,254.974 74.147,255.058 74.104,255.164C74.061,255.267 74.04,255.429 74.04,255.646L74.04,256.382L73.816,256.382L73.816,254.646Z" style="fill-rule:nonzero;"/>
                </g>
                <g transform="matrix(5.86932,0,0,5.99389,-945.147,-656.38)">
                    <path d="M77.722,254.816C77.598,254.816 77.483,254.847 77.377,254.908C77.272,254.968 77.189,255.054 77.127,255.166C77.065,255.277 77.034,255.392 77.034,255.517C77.034,255.638 77.065,255.755 77.127,255.867C77.19,255.978 77.274,256.066 77.38,256.128C77.486,256.191 77.6,256.222 77.721,256.222C77.843,256.222 77.96,256.191 78.069,256.128C78.178,256.068 78.262,255.984 78.321,255.878C78.38,255.773 78.41,255.654 78.41,255.523C78.41,255.322 78.344,255.154 78.211,255.019C78.079,254.884 77.917,254.816 77.722,254.816ZM78.616,254.646L78.616,256.382L78.395,256.382L78.395,256.084C78.301,256.199 78.197,256.283 78.081,256.341C77.963,256.398 77.836,256.427 77.698,256.427C77.452,256.427 77.242,256.337 77.068,256.16C76.893,255.982 76.807,255.765 76.807,255.509C76.807,255.259 76.895,255.045 77.07,254.867C77.246,254.689 77.458,254.601 77.704,254.601C77.846,254.601 77.975,254.63 78.091,254.691C78.207,254.752 78.308,254.843 78.395,254.964L78.395,254.646L78.616,254.646Z" style="fill-rule:nonzero;"/>
                </g>
                <g transform="matrix(5.86932,0,0,5.99389,-945.147,-656.38)">
                    <path d="M79.034,254.646L79.262,254.646L79.262,254.9C79.331,254.798 79.403,254.724 79.478,254.675L79.714,254.601L79.913,254.66L79.795,254.847L79.678,254.818L79.461,254.91C79.393,254.97 79.34,255.066 79.303,255.195C79.276,255.295 79.262,255.494 79.262,255.795L79.262,256.382L79.034,256.382L79.034,254.646Z" style="fill-rule:nonzero;"/>
                </g>
                <g transform="matrix(5.86932,0,0,5.99389,-945.147,-656.38)">
                    <path d="M80.1,253.974L80.325,253.974L80.325,255.347L81.129,254.646L81.458,254.646L80.502,255.474L81.514,256.382L81.2,256.382L80.325,255.601L80.325,256.382L80.1,256.382L80.1,253.974Z" style="fill-rule:nonzero;"/>
                </g>
                <g transform="matrix(5.86932,0,0,5.99389,-945.147,-656.38)">
                    <rect x="57.442" y="259.31" width="33.266" height="20.86" style="fill:rgb(227,60,58);fill-rule:nonzero;"/>
                </g>
                <g transform="matrix(5.86932,0,0,5.99389,-945.147,-656.38)">
                    <rect x="57.442" y="268.066" width="33.266" height="3.086" style="fill:white;fill-rule:nonzero;"/>
                </g>
                <g transform="matrix(5.86932,0,0,5.99389,-945.147,-656.38)">
                    <rect x="65.83" y="259.31" width="3.086" height="20.86" style="fill:white;fill-rule:nonzero;"/>
                </g>
            </g>
        </g>
    </g>
</svg>
