<?xml version="1.0" encoding="UTF-8" standalone="no"?>
<!DOCTYPE svg PUBLIC "-//W3C//DTD SVG 1.1//EN" "http://www.w3.org/Graphics/SVG/1.1/DTD/svg11.dtd">
<svg width="100%" height="100%" viewBox="0 0 210 164" version="1.1" xmlns="http://www.w3.org/2000/svg" xmlns:xlink="http://www.w3.org/1999/xlink" xml:space="preserve" xmlns:serif="http://www.serif.com/" style="fill-rule:evenodd;clip-rule:evenodd;stroke-linejoin:round;stroke-miterlimit:2;">
    <g transform="matrix(1,0,0,1,-977.083,-11.4583)">
        <g id="Artboard5" transform="matrix(0.709906,0,0,0.695153,1450.01,-567.835)">
            <rect x="-666.179" y="833.333" width="294.444" height="235.774" style="fill:none;"/>
            <clipPath id="_clip1">
                <rect x="-666.179" y="833.333" width="294.444" height="235.774"/>
            </clipPath>
            <g clip-path="url(#_clip1)">
                <g transform="matrix(1.40864,0,0,1.43853,-727.807,776.391)">
                    <rect x="0" y="0" width="294.444" height="235.774" style="fill:rgb(235,235,235);"/>
                </g>
                <g transform="matrix(5.86932,0,0,5.99389,-653.799,720.563)">
                    <path d="M38.117,52.735L4.888,52.735L4.888,42.405L4.888,52.704L13.131,52.704L13.131,52.007L38.117,52.007L38.117,52.735Z" style="fill:rgb(205,218,221);fill-rule:nonzero;"/>
                </g>
                <g transform="matrix(5.86932,0,0,5.99389,-653.799,720.563)">
                    <path d="M13.131,52.704L4.888,52.704L4.888,31.878L5.94,31.878L5.94,52.007L13.131,52.007L13.131,52.704Z" style="fill:rgb(205,218,221);fill-rule:nonzero;"/>
                </g>
                <g transform="matrix(5.86932,0,0,5.99389,-653.799,720.563)">
                    <path d="M39.169,38.009L38.117,38.009L38.117,31.878L14.184,31.878L14.184,31.15L5.94,31.15L5.94,31.878L5.94,31.15L39.169,31.15L39.169,38.009Z" style="fill:rgb(195,208,211);fill-rule:nonzero;"/>
                </g>
                <g transform="matrix(5.86932,0,0,5.99389,-653.799,720.563)">
                    <rect x="14.184" y="31.878" width="23.933" height="6.131" style="fill:rgb(178,190,194);fill-rule:nonzero;"/>
                </g>
                <g transform="matrix(5.86932,0,0,5.99389,-653.799,720.563)">
                    <path d="M39.169,52.007L38.117,52.007L38.117,45.755L38.135,45.755L38.135,45.026L39.169,45.026L39.169,52.007Z" style="fill:rgb(195,208,211);fill-rule:nonzero;"/>
                </g>
                <g transform="matrix(5.86932,0,0,5.99389,-653.799,720.563)">
                    <path d="M38.117,52.007L13.131,52.007L13.131,51.976L14.184,51.976L14.184,45.755L38.117,45.755L38.117,52.007Z" style="fill:rgb(178,190,194);fill-rule:nonzero;"/>
                </g>
                <g transform="matrix(5.86932,0,0,5.99389,-653.799,720.563)">
                    <path d="M38.135,45.755L14.184,45.755L14.184,45.026L38.135,45.026L38.135,45.755Z" style="fill:rgb(178,190,194);fill-rule:nonzero;"/>
                </g>
                <g transform="matrix(5.86932,0,0,5.99389,-653.799,720.563)">
                    <path d="M13.131,52.007L5.94,52.007L5.94,41.676L5.94,51.976L13.131,51.976L13.131,52.007Z" style="fill:rgb(178,190,194);fill-rule:nonzero;"/>
                </g>
                <g transform="matrix(5.86932,0,0,5.99389,-653.799,720.563)">
                    <path d="M39.188,45.026L38.135,45.026L38.135,38.738L38.117,38.738L38.117,38.009L39.188,38.009L39.188,45.026Z" style="fill:rgb(195,208,211);fill-rule:nonzero;"/>
                </g>
                <g transform="matrix(5.86932,0,0,5.99389,-653.799,720.563)">
                    <rect x="14.184" y="38.009" width="23.933" height="0.729" style="fill:rgb(178,190,194);fill-rule:nonzero;"/>
                </g>
                <g transform="matrix(5.86932,0,0,5.99389,-653.799,720.563)">
                    <path d="M38.135,45.026L14.184,45.026L14.184,38.738L38.135,38.738L38.135,45.026Z" style="fill:rgb(178,190,194);fill-rule:nonzero;"/>
                </g>
                <g transform="matrix(5.86932,0,0,5.99389,-653.799,720.563)">
                    <rect x="5.94" y="31.15" width="8.244" height="0.728" style="fill:rgb(195,208,211);fill-rule:nonzero;"/>
                </g>
                <g transform="matrix(5.86932,0,0,5.99389,-653.799,720.563)">
                    <path d="M14.184,38.738L13.131,38.738L13.131,31.878L5.94,31.878L14.184,31.878L14.184,38.738Z" style="fill:rgb(178,190,194);fill-rule:nonzero;"/>
                </g>
                <g transform="matrix(5.86932,0,0,5.99389,-653.799,720.563)">
                    <rect x="13.131" y="45.755" width="1.053" height="6.221" style="fill:rgb(178,190,194);fill-rule:nonzero;"/>
                </g>
                <g transform="matrix(5.86932,0,0,5.99389,-653.799,720.563)">
                    <path d="M14.184,45.755L13.131,45.755L13.131,38.738L14.184,38.738L14.184,45.755Z" style="fill:rgb(178,190,194);fill-rule:nonzero;"/>
                </g>
                <g transform="matrix(5.86932,0,0,5.99389,-653.799,720.563)">
                    <path d="M13.131,51.976L5.94,51.976L5.94,31.878L13.131,31.878L13.131,51.976Z" style="fill:rgb(178,190,194);fill-rule:nonzero;"/>
                </g>
                <g transform="matrix(5.86932,0,0,5.99389,-653.799,720.563)">
                    <rect x="7.812" y="29.61" width="33.23" height="20.857" style="fill:rgb(73,184,96);fill-rule:nonzero;"/>
                </g>
                <g transform="matrix(5.86932,0,0,5.99389,-653.799,720.563)">
                    <rect x="7.812" y="40.136" width="33.23" height="10.331" style="fill:rgb(36,38,42);fill-rule:nonzero;"/>
                </g>
                <g transform="matrix(5.86932,0,0,5.99389,-653.799,720.563)">
                    <rect x="7.812" y="36.469" width="33.248" height="7.017" style="fill:white;fill-rule:nonzero;"/>
                </g>
                <g transform="matrix(5.86932,0,0,5.99389,-653.799,720.563)">
                    <rect x="7.812" y="29.61" width="8.244" height="20.826" style="fill:rgb(225,58,55);fill-rule:nonzero;"/>
                </g>
                <g transform="matrix(5.86932,0,0,5.99389,-653.799,720.563)">
                    <path d="M14.328,24.832L13.925,25.682L14.728,25.682L14.328,24.832ZM14.357,24.333L15.453,26.682L15.199,26.682L14.83,25.909L13.818,25.909L13.452,26.682L13.19,26.682L14.3,24.333L14.357,24.333Z" style="fill-rule:nonzero;"/>
                </g>
                <g transform="matrix(5.86932,0,0,5.99389,-653.799,720.563)">
                    <path d="M15.695,24.944L15.923,24.944L15.923,25.198C15.992,25.098 16.063,25.023 16.139,24.974L16.375,24.899L16.573,24.959L16.457,25.147L16.339,25.117L16.123,25.209C16.054,25.27 16.002,25.365 15.965,25.494C15.938,25.593 15.923,25.793 15.923,26.094L15.923,26.682L15.695,26.682L15.695,24.944Z" style="fill-rule:nonzero;"/>
                </g>
                <g transform="matrix(5.86932,0,0,5.99389,-653.799,720.563)">
                    <path d="M17.601,25.115C17.477,25.115 17.361,25.146 17.256,25.207C17.151,25.268 17.067,25.354 17.005,25.464C16.943,25.575 16.912,25.692 16.912,25.815C16.912,25.938 16.943,26.055 17.006,26.167C17.068,26.278 17.153,26.365 17.259,26.427C17.364,26.489 17.478,26.521 17.599,26.521C17.722,26.521 17.837,26.49 17.947,26.428C18.056,26.366 18.141,26.283 18.2,26.177C18.259,26.072 18.288,25.954 18.288,25.822C18.288,25.621 18.222,25.453 18.09,25.318C17.957,25.183 17.794,25.115 17.601,25.115ZM18.494,24.944L18.494,26.682L18.274,26.682L18.274,26.383C18.18,26.497 18.075,26.583 17.959,26.64C17.842,26.698 17.714,26.727 17.576,26.727C17.33,26.727 17.12,26.637 16.946,26.459C16.772,26.281 16.685,26.064 16.685,25.808C16.685,25.558 16.773,25.344 16.948,25.167C17.124,24.989 17.335,24.899 17.583,24.899C17.725,24.899 17.854,24.93 17.97,24.991C18.085,25.051 18.187,25.143 18.274,25.264L18.274,24.944L18.494,24.944Z" style="fill-rule:nonzero;"/>
                </g>
                <g transform="matrix(5.86932,0,0,5.99389,-653.799,720.563)">
                    <path d="M19.906,26.511C20.03,26.511 20.145,26.48 20.25,26.419C20.355,26.358 20.439,26.272 20.501,26.161C20.563,26.05 20.594,25.933 20.594,25.81C20.594,25.687 20.563,25.569 20.5,25.457C20.438,25.345 20.353,25.258 20.248,25.196C20.142,25.134 20.029,25.103 19.909,25.103C19.787,25.103 19.671,25.134 19.561,25.196C19.451,25.258 19.366,25.342 19.308,25.447C19.249,25.553 19.219,25.671 19.219,25.803C19.219,26.004 19.285,26.173 19.418,26.308C19.55,26.443 19.712,26.511 19.906,26.511ZM19.012,26.682L19.012,24.274L19.235,24.274L19.235,25.243C19.329,25.128 19.434,25.042 19.549,24.985C19.665,24.928 19.793,24.899 19.931,24.899C20.176,24.899 20.386,24.989 20.56,25.167C20.734,25.345 20.821,25.562 20.821,25.816C20.821,26.067 20.733,26.282 20.558,26.46C20.382,26.638 20.171,26.727 19.924,26.727C19.783,26.727 19.655,26.696 19.54,26.635C19.425,26.575 19.323,26.483 19.235,26.362L19.235,26.682L19.012,26.682Z" style="fill-rule:nonzero;"/>
                </g>
                <g transform="matrix(5.86932,0,0,5.99389,-653.799,720.563)">
                    <path d="M22.171,24.333L23.517,24.333L23.517,24.563L22.406,24.563L22.406,25.299L23.508,25.299L23.508,25.529L22.406,25.529L22.406,26.452L23.508,26.452L23.508,26.682L22.171,26.682L22.171,24.333Z" style="fill-rule:nonzero;"/>
                </g>
                <g transform="matrix(5.86932,0,0,5.99389,-653.799,720.563)">
                    <path d="M23.885,24.944L24.108,24.944L24.108,25.245C24.186,25.134 24.266,25.053 24.348,25.002C24.461,24.934 24.58,24.899 24.705,24.899L24.944,24.949L25.13,25.081C25.178,25.136 25.219,25.214 25.254,25.316C25.329,25.18 25.422,25.077 25.533,25.006C25.645,24.935 25.765,24.899 25.893,24.899C26.013,24.899 26.119,24.93 26.211,24.991C26.303,25.051 26.371,25.136 26.416,25.245C26.46,25.353 26.482,25.516 26.482,25.733L26.482,26.682L26.254,26.682L26.254,25.733C26.254,25.547 26.241,25.419 26.214,25.349L26.079,25.181L25.849,25.117C25.74,25.117 25.641,25.149 25.552,25.212C25.462,25.276 25.397,25.362 25.355,25.468C25.314,25.575 25.293,25.752 25.293,26.001L25.293,26.682L25.069,26.682L25.069,25.793C25.069,25.583 25.057,25.44 25.03,25.365L24.894,25.185L24.662,25.117C24.559,25.117 24.462,25.148 24.373,25.21C24.283,25.272 24.216,25.356 24.173,25.462C24.13,25.567 24.108,25.729 24.108,25.945L24.108,26.682L23.885,26.682L23.885,24.944Z" style="fill-rule:nonzero;"/>
                </g>
                <g transform="matrix(5.86932,0,0,5.99389,-653.799,720.563)">
                    <path d="M26.92,24.944L27.144,24.944L27.144,26.682L26.92,26.682L26.92,24.944ZM27.031,24.229L27.162,24.283L27.215,24.414L27.162,24.543L27.031,24.598L26.902,24.543L26.848,24.414L26.902,24.283L27.031,24.229Z" style="fill-rule:nonzero;"/>
                </g>
                <g transform="matrix(5.86932,0,0,5.99389,-653.799,720.563)">
                    <path d="M27.524,24.944L27.752,24.944L27.752,25.198C27.82,25.098 27.892,25.023 27.968,24.974L28.204,24.899L28.402,24.959L28.286,25.147L28.168,25.117L27.952,25.209C27.882,25.27 27.83,25.365 27.793,25.494C27.766,25.593 27.752,25.793 27.752,26.094L27.752,26.682L27.524,26.682L27.524,24.944Z" style="fill-rule:nonzero;"/>
                </g>
                <g transform="matrix(5.86932,0,0,5.99389,-653.799,720.563)">
                    <path d="M29.429,25.115C29.305,25.115 29.19,25.146 29.085,25.207C28.98,25.268 28.896,25.354 28.834,25.464C28.772,25.575 28.74,25.692 28.74,25.815C28.74,25.938 28.772,26.055 28.835,26.167C28.897,26.278 28.981,26.365 29.087,26.427C29.193,26.489 29.307,26.521 29.428,26.521C29.55,26.521 29.666,26.49 29.775,26.428C29.885,26.366 29.969,26.283 30.028,26.177C30.087,26.072 30.117,25.954 30.117,25.822C30.117,25.621 30.051,25.453 29.918,25.318C29.786,25.183 29.623,25.115 29.429,25.115ZM30.323,24.944L30.323,26.682L30.103,26.682L30.103,26.383C30.009,26.497 29.904,26.583 29.787,26.64C29.67,26.698 29.543,26.727 29.405,26.727C29.159,26.727 28.949,26.637 28.775,26.459C28.601,26.281 28.514,26.064 28.514,25.808C28.514,25.558 28.602,25.344 28.777,25.167C28.953,24.989 29.164,24.899 29.411,24.899C29.554,24.899 29.683,24.93 29.798,24.991C29.914,25.051 30.015,25.143 30.103,25.264L30.103,24.944L30.323,24.944Z" style="fill-rule:nonzero;"/>
                </g>
                <g transform="matrix(5.86932,0,0,5.99389,-653.799,720.563)">
                    <path d="M31.021,24.299L31.244,24.299L31.244,24.944L31.599,24.944L31.599,25.138L31.244,25.138L31.244,26.682L31.021,26.682L31.021,25.138L30.716,25.138L30.716,24.944L31.021,24.944L31.021,24.299Z" style="fill-rule:nonzero;"/>
                </g>
                <g transform="matrix(5.86932,0,0,5.99389,-653.799,720.563)">
                    <path d="M33.397,25.637C33.367,25.518 33.323,25.423 33.266,25.352C33.209,25.28 33.134,25.223 33.04,25.179C32.946,25.135 32.847,25.114 32.744,25.114C32.573,25.114 32.427,25.168 32.304,25.278C32.215,25.358 32.147,25.478 32.102,25.637L33.397,25.637ZM33.397,26.105L33.585,26.204C33.523,26.326 33.452,26.423 33.371,26.498C33.29,26.573 33.198,26.629 33.097,26.668C32.996,26.707 32.881,26.727 32.753,26.727C32.47,26.727 32.249,26.633 32.089,26.448C31.929,26.262 31.849,26.052 31.849,25.818C31.849,25.598 31.917,25.401 32.052,25.229C32.224,25.009 32.453,24.899 32.741,24.899C33.037,24.899 33.273,25.012 33.45,25.236C33.576,25.395 33.64,25.593 33.642,25.831L32.079,25.831C32.083,26.032 32.148,26.198 32.272,26.327C32.397,26.456 32.551,26.521 32.734,26.521L32.993,26.474L33.206,26.352C33.265,26.301 33.328,26.219 33.397,26.105Z" style="fill-rule:nonzero;"/>
                </g>
                <g transform="matrix(5.86932,0,0,5.99389,-653.799,720.563)">
                    <path d="M34.933,25.134L34.789,25.283C34.669,25.167 34.552,25.109 34.439,25.109L34.252,25.181L34.174,25.348L34.238,25.51C34.281,25.562 34.371,25.623 34.507,25.693C34.673,25.779 34.787,25.862 34.846,25.942C34.905,26.023 34.934,26.114 34.934,26.215C34.934,26.358 34.884,26.479 34.784,26.578C34.684,26.677 34.558,26.727 34.408,26.727C34.308,26.727 34.212,26.705 34.121,26.661C34.03,26.617 33.955,26.557 33.895,26.48L34.035,26.321C34.149,26.45 34.271,26.514 34.398,26.514L34.627,26.428L34.722,26.225L34.659,26.054C34.618,26.005 34.524,25.943 34.378,25.869C34.221,25.788 34.114,25.708 34.058,25.629C34.001,25.551 33.973,25.46 33.973,25.359C33.973,25.228 34.018,25.118 34.108,25.031C34.198,24.943 34.312,24.899 34.45,24.899C34.609,24.899 34.771,24.978 34.933,25.134Z" style="fill-rule:nonzero;"/>
                </g>
            </g>
        </g>
    </g>
</svg>
