<?xml version="1.0" encoding="UTF-8" standalone="no"?>
<!DOCTYPE svg PUBLIC "-//W3C//DTD SVG 1.1//EN" "http://www.w3.org/Graphics/SVG/1.1/DTD/svg11.dtd">
<svg width="100%" height="100%" viewBox="0 0 210 164" version="1.1" xmlns="http://www.w3.org/2000/svg" xmlns:xlink="http://www.w3.org/1999/xlink" xml:space="preserve" xmlns:serif="http://www.serif.com/" style="fill-rule:evenodd;clip-rule:evenodd;stroke-linejoin:round;stroke-miterlimit:2;">
    <g transform="matrix(1,0,0,1,-241.667,-3.125)">
        <g id="Artboard2" transform="matrix(0.709906,0,0,0.695153,714.591,-576.169)">
            <rect x="-666.179" y="833.333" width="294.444" height="235.774" style="fill:none;"/>
            <clipPath id="_clip1">
                <rect x="-666.179" y="833.333" width="294.444" height="235.774"/>
            </clipPath>
            <g clip-path="url(#_clip1)">
                <g transform="matrix(1.40864,0,0,1.43853,-727.807,776.391)">
                    <rect x="0" y="0" width="294.444" height="235.774" style="fill:rgb(235,235,235);"/>
                </g>
                <g transform="matrix(5.86932,0,0,5.99389,-1525.75,720.563)">
                    <path d="M170.71,52.735L153.438,52.735L153.438,31.878L154.491,31.878L154.491,52.007L164.497,52.007L164.497,52.654L170.71,52.654L170.71,52.735Z" style="fill:rgb(205,218,221);fill-rule:nonzero;"/>
                </g>
                <g transform="matrix(5.86932,0,0,5.99389,-1525.75,720.563)">
                    <path d="M186.706,52.735L170.71,52.735L170.71,52.654L175.739,52.654L175.739,52.007L186.706,52.007L186.706,52.735Z" style="fill:rgb(205,218,221);fill-rule:nonzero;"/>
                </g>
                <g transform="matrix(5.86932,0,0,5.99389,-1525.75,720.563)">
                    <path d="M175.739,52.654L164.497,52.654L164.497,52.007L175.739,52.007L175.739,52.654Z" style="fill:rgb(205,218,221);fill-rule:nonzero;"/>
                </g>
                <g transform="matrix(5.86932,0,0,5.99389,-1525.75,720.563)">
                    <path d="M165.55,31.878L154.491,31.878L154.491,31.15L187.759,31.15L171.763,31.15L171.763,31.18L165.55,31.18L165.55,31.878Z" style="fill:rgb(195,208,211);fill-rule:nonzero;"/>
                </g>
                <g transform="matrix(5.86932,0,0,5.99389,-1525.75,720.563)">
                    <path d="M164.497,52.007L154.491,52.007L154.491,31.878L165.55,31.878L165.55,31.909L164.497,31.909L164.497,52.007Z" style="fill:rgb(178,190,194);fill-rule:nonzero;"/>
                </g>
                <g transform="matrix(5.86932,0,0,5.99389,-1525.75,720.563)">
                    <path d="M171.763,52.007L164.497,52.007L164.497,31.909L165.55,31.909L165.55,51.925L171.763,51.925L171.763,52.007Z" style="fill:rgb(178,190,194);fill-rule:nonzero;"/>
                </g>
                <g transform="matrix(5.86932,0,0,5.99389,-1525.75,720.563)">
                    <path d="M187.759,52.007L186.706,52.007L186.706,31.878L176.791,31.878L176.791,31.18L171.763,31.18L171.763,31.15L187.759,31.15L187.759,52.007Z" style="fill:rgb(195,208,211);fill-rule:nonzero;"/>
                </g>
                <g transform="matrix(5.86932,0,0,5.99389,-1525.75,720.563)">
                    <path d="M186.706,52.007L175.739,52.007L175.739,51.925L176.791,51.925L176.791,31.878L186.706,31.878L186.706,52.007Z" style="fill:rgb(178,190,194);fill-rule:nonzero;"/>
                </g>
                <g transform="matrix(5.86932,0,0,5.99389,-1525.75,720.563)">
                    <rect x="171.763" y="51.925" width="3.976" height="0.082" style="fill:rgb(178,190,194);fill-rule:nonzero;"/>
                </g>
                <g transform="matrix(5.86932,0,0,5.99389,-1525.75,720.563)">
                    <path d="M176.791,31.878L165.55,31.878L165.55,31.18L176.791,31.18L176.791,31.878Z" style="fill:rgb(195,208,211);fill-rule:nonzero;"/>
                </g>
                <g transform="matrix(5.86932,0,0,5.99389,-1525.75,720.563)">
                    <path d="M170.71,31.909L165.55,31.909L165.55,31.878L176.791,31.878L170.71,31.878L170.71,31.909Z" style="fill:rgb(178,190,194);fill-rule:nonzero;"/>
                </g>
                <g transform="matrix(5.86932,0,0,5.99389,-1525.75,720.563)">
                    <path d="M176.791,51.925L175.739,51.925L175.739,31.909L170.71,31.909L170.71,31.878L176.791,31.878L176.791,51.925Z" style="fill:rgb(178,190,194);fill-rule:nonzero;"/>
                </g>
                <g transform="matrix(5.86932,0,0,5.99389,-1525.75,720.563)">
                    <path d="M175.739,51.925L165.55,51.925L165.55,31.909L175.739,31.909L175.739,51.925Z" style="fill:rgb(178,190,194);fill-rule:nonzero;"/>
                </g>
                <g transform="matrix(5.86932,0,0,5.99389,-1525.75,720.563)">
                    <rect x="156.363" y="29.61" width="33.268" height="20.857" style="fill:rgb(36,38,42);fill-rule:nonzero;"/>
                </g>
                <g transform="matrix(5.86932,0,0,5.99389,-1525.75,720.563)">
                    <rect x="173.634" y="29.61" width="15.997" height="20.857" style="fill:rgb(215,60,58);fill-rule:nonzero;"/>
                </g>
                <g transform="matrix(5.86932,0,0,5.99389,-1525.75,720.563)">
                    <rect x="167.422" y="29.64" width="11.241" height="20.745" style="fill:rgb(241,234,59);fill-rule:nonzero;"/>
                </g>
                <g transform="matrix(5.86932,0,0,5.99389,-1525.75,720.563)">
                    <path d="M167.332,25.551L167.332,26.452L167.624,26.452C167.795,26.452 167.921,26.435 168.001,26.401L168.193,26.244L168.267,26.013C168.267,25.908 168.232,25.817 168.164,25.74C168.096,25.662 168.002,25.608 167.883,25.58C167.803,25.561 167.663,25.551 167.465,25.551L167.332,25.551ZM167.332,24.563L167.332,25.315L167.467,25.315C167.63,25.315 167.75,25.3 167.827,25.27L168.009,25.126L168.076,24.908C168.076,24.8 168.038,24.716 167.964,24.654C167.888,24.593 167.769,24.563 167.604,24.563L167.332,24.563ZM167.103,24.333L167.565,24.333C167.751,24.333 167.896,24.355 167.995,24.399C168.095,24.443 168.174,24.511 168.231,24.603C168.29,24.694 168.319,24.796 168.319,24.908C168.319,25.012 168.294,25.107 168.243,25.193C168.192,25.278 168.117,25.348 168.019,25.401C168.141,25.442 168.235,25.491 168.3,25.547L168.454,25.75C168.491,25.829 168.509,25.915 168.509,26.008C168.509,26.196 168.44,26.355 168.302,26.486C168.165,26.616 167.979,26.682 167.747,26.682L167.103,26.682L167.103,24.333Z" style="fill-rule:nonzero;"/>
                </g>
                <g transform="matrix(5.86932,0,0,5.99389,-1525.75,720.563)">
                    <path d="M170.399,25.637C170.37,25.518 170.327,25.423 170.27,25.352C170.212,25.28 170.138,25.223 170.043,25.179C169.949,25.135 169.851,25.114 169.747,25.114C169.577,25.114 169.431,25.168 169.308,25.278C169.218,25.358 169.15,25.478 169.104,25.637L170.399,25.637ZM170.399,26.105L170.589,26.204C170.526,26.326 170.455,26.423 170.374,26.498C170.293,26.573 170.202,26.629 170.101,26.668C169.999,26.707 169.885,26.727 169.757,26.727C169.474,26.727 169.252,26.633 169.093,26.448C168.933,26.262 168.853,26.052 168.853,25.818C168.853,25.598 168.92,25.401 169.056,25.229C169.228,25.009 169.456,24.899 169.744,24.899C170.04,24.899 170.276,25.012 170.454,25.236C170.579,25.395 170.644,25.593 170.646,25.831L169.083,25.831C169.087,26.032 169.151,26.198 169.276,26.327C169.4,26.456 169.555,26.521 169.737,26.521L169.996,26.474L170.21,26.352C170.269,26.301 170.331,26.219 170.399,26.105Z" style="fill-rule:nonzero;"/>
                </g>
                <g transform="matrix(5.86932,0,0,5.99389,-1525.75,720.563)">
                    <rect x="171.028" y="24.274" width="0.225" height="2.408" style="fill-rule:nonzero;"/>
                </g>
                <g transform="matrix(5.86932,0,0,5.99389,-1525.75,720.563)">
                    <path d="M172.556,25.115C172.429,25.115 172.312,25.146 172.202,25.207C172.095,25.268 172.009,25.353 171.947,25.461C171.886,25.569 171.854,25.686 171.854,25.812C171.854,26.002 171.919,26.16 172.046,26.284C172.174,26.409 172.339,26.471 172.543,26.471C172.749,26.471 172.913,26.409 173.038,26.286C173.163,26.162 173.226,26 173.226,25.799C173.226,25.668 173.198,25.551 173.14,25.448C173.083,25.345 173.001,25.264 172.896,25.205C172.79,25.145 172.677,25.115 172.556,25.115ZM173.216,24.944L173.438,24.944L173.438,26.329C173.438,26.573 173.417,26.751 173.375,26.864C173.316,27.023 173.214,27.147 173.069,27.232C172.925,27.319 172.751,27.362 172.548,27.362C172.398,27.362 172.265,27.341 172.146,27.299C172.027,27.256 171.931,27.2 171.856,27.129C171.782,27.058 171.713,26.954 171.65,26.817L171.894,26.817C171.959,26.932 172.044,27.018 172.149,27.073C172.253,27.128 172.383,27.156 172.537,27.156C172.689,27.156 172.818,27.127 172.923,27.071C173.028,27.014 173.103,26.942 173.147,26.857C173.192,26.771 173.216,26.632 173.216,26.44L173.216,26.351C173.131,26.458 173.028,26.539 172.907,26.596C172.785,26.653 172.656,26.682 172.521,26.682C172.36,26.682 172.21,26.642 172.069,26.563C171.929,26.483 171.819,26.376 171.743,26.243C171.667,26.108 171.628,25.961 171.628,25.8C171.628,25.64 171.668,25.49 171.748,25.351C171.827,25.212 171.938,25.102 172.079,25.021C172.221,24.94 172.37,24.899 172.526,24.899C172.656,24.899 172.777,24.927 172.89,24.98C173.003,25.034 173.11,25.123 173.216,25.246L173.216,24.944Z" style="fill-rule:nonzero;"/>
                </g>
                <g transform="matrix(5.86932,0,0,5.99389,-1525.75,720.563)">
                    <path d="M173.884,24.944L174.107,24.944L174.107,26.682L173.884,26.682L173.884,24.944ZM173.995,24.229L174.126,24.283L174.179,24.414L174.126,24.543L173.995,24.598L173.866,24.543L173.812,24.414L173.866,24.283L173.995,24.229Z" style="fill-rule:nonzero;"/>
                </g>
                <g transform="matrix(5.86932,0,0,5.99389,-1525.75,720.563)">
                    <path d="M174.544,24.944L174.767,24.944L174.767,25.755C174.767,25.954 174.778,26.09 174.8,26.164C174.831,26.271 174.892,26.355 174.982,26.417C175.072,26.479 175.18,26.509 175.305,26.509C175.429,26.509 175.535,26.479 175.622,26.419C175.709,26.359 175.769,26.28 175.802,26.182C175.824,26.115 175.835,25.973 175.835,25.755L175.835,24.944L176.063,24.944L176.063,25.797C176.063,26.037 176.036,26.217 175.979,26.338C175.924,26.46 175.84,26.555 175.728,26.624C175.615,26.692 175.475,26.727 175.306,26.727C175.136,26.727 174.995,26.692 174.882,26.624C174.769,26.555 174.683,26.459 174.628,26.336C174.571,26.213 174.544,26.028 174.544,25.781L174.544,24.944Z" style="fill-rule:nonzero;"/>
                </g>
                <g transform="matrix(5.86932,0,0,5.99389,-1525.75,720.563)">
                    <path d="M176.559,24.944L176.782,24.944L176.782,25.245C176.86,25.134 176.94,25.053 177.022,25.002C177.135,24.934 177.254,24.899 177.378,24.899L177.618,24.949L177.804,25.081C177.852,25.136 177.894,25.214 177.929,25.316C178.003,25.18 178.096,25.077 178.207,25.006C178.318,24.935 178.438,24.899 178.567,24.899C178.687,24.899 178.793,24.93 178.885,24.991C178.977,25.051 179.045,25.136 179.089,25.245C179.134,25.353 179.156,25.516 179.156,25.733L179.156,26.682L178.929,26.682L178.929,25.733C178.929,25.547 178.915,25.419 178.888,25.349L178.753,25.181L178.522,25.117C178.414,25.117 178.315,25.149 178.226,25.212C178.136,25.276 178.07,25.362 178.028,25.468C177.987,25.575 177.967,25.752 177.967,26.001L177.967,26.682L177.743,26.682L177.743,25.793C177.743,25.583 177.73,25.44 177.704,25.365L177.567,25.185L177.336,25.117C177.233,25.117 177.136,25.148 177.046,25.21C176.956,25.272 176.89,25.356 176.847,25.462C176.804,25.567 176.782,25.729 176.782,25.945L176.782,26.682L176.559,26.682L176.559,24.944Z" style="fill-rule:nonzero;"/>
                </g>
            </g>
        </g>
    </g>
</svg>
