<?xml version="1.0" encoding="UTF-8" standalone="no"?>
<!DOCTYPE svg PUBLIC "-//W3C//DTD SVG 1.1//EN" "http://www.w3.org/Graphics/SVG/1.1/DTD/svg11.dtd">
<svg width="100%" height="100%" viewBox="0 0 210 164" version="1.1" xmlns="http://www.w3.org/2000/svg" xmlns:xlink="http://www.w3.org/1999/xlink" xml:space="preserve" xmlns:serif="http://www.serif.com/" style="fill-rule:evenodd;clip-rule:evenodd;stroke-linejoin:round;stroke-miterlimit:2;">
    <g transform="matrix(1,0,0,1,-1219.79,-220.833)">
        <g id="Artboard12" transform="matrix(0.709906,0,0,0.695153,1692.72,-358.46)">
            <rect x="-666.179" y="833.333" width="294.444" height="235.774" style="fill:none;"/>
            <clipPath id="_clip1">
                <rect x="-666.179" y="833.333" width="294.444" height="235.774"/>
            </clipPath>
            <g clip-path="url(#_clip1)">
                <g transform="matrix(1.40864,0,0,1.43853,-727.807,776.391)">
                    <rect x="0" y="0" width="294.444" height="235.774" style="fill:rgb(235,235,235);"/>
                </g>
                <g transform="matrix(5.86932,0,0,5.99389,-652.185,-380.634)">
                    <path d="M5.632,216.684L4.646,215.799L4.646,215.765L5.632,215.765L5.632,216.684Z" style="fill:rgb(205,218,221);fill-rule:nonzero;"/>
                </g>
                <g transform="matrix(5.86932,0,0,5.99389,-652.185,-380.634)">
                    <path d="M37.876,236.623L4.646,236.623L4.646,236.489L5.632,235.605L5.632,235.82L5.699,235.76L5.699,235.894L37.876,235.894L37.876,236.623Z" style="fill:rgb(205,218,221);fill-rule:nonzero;"/>
                </g>
                <g transform="matrix(5.86932,0,0,5.99389,-652.185,-380.634)">
                    <path d="M4.58,236.548L4.58,215.74L4.646,215.799L5.632,216.684L5.632,235.605L4.646,236.489L4.58,236.548Z" style="fill:rgb(205,218,221);fill-rule:nonzero;"/>
                </g>
                <g transform="matrix(5.86932,0,0,5.99389,-652.185,-380.634)">
                    <path d="M38.929,221.896L37.876,221.896L37.876,215.765L6.472,215.765L5.699,215.071L5.699,215.037L38.929,215.037L38.929,221.896Z" style="fill:rgb(195,208,211);fill-rule:nonzero;"/>
                </g>
                <g transform="matrix(5.86932,0,0,5.99389,-652.185,-380.634)">
                    <path d="M37.876,221.896L13.305,221.896L6.472,215.765L37.876,215.765L37.876,221.896Z" style="fill:rgb(178,190,194);fill-rule:nonzero;"/>
                </g>
                <g transform="matrix(5.86932,0,0,5.99389,-652.185,-380.634)">
                    <path d="M38.929,235.894L37.876,235.894L37.876,229.642L37.894,229.642L37.894,228.914L38.929,228.914L38.929,235.894Z" style="fill:rgb(195,208,211);fill-rule:nonzero;"/>
                </g>
                <g transform="matrix(5.86932,0,0,5.99389,-652.185,-380.634)">
                    <path d="M37.876,235.894L5.699,235.894L5.699,235.76L12.522,229.642L37.876,229.642L37.876,235.894Z" style="fill:rgb(178,190,194);fill-rule:nonzero;"/>
                </g>
                <g transform="matrix(5.86932,0,0,5.99389,-652.185,-380.634)">
                    <path d="M37.894,229.642L12.522,229.642L13.334,228.914L37.894,228.914L37.894,229.642Z" style="fill:rgb(178,190,194);fill-rule:nonzero;"/>
                </g>
                <g transform="matrix(5.86932,0,0,5.99389,-652.185,-380.634)">
                    <path d="M38.946,228.914L37.894,228.914L37.894,222.625L37.876,222.625L37.876,221.896L38.946,221.896L38.946,228.914Z" style="fill:rgb(195,208,211);fill-rule:nonzero;"/>
                </g>
                <g transform="matrix(5.86932,0,0,5.99389,-652.185,-380.634)">
                    <path d="M37.876,222.625L14.116,222.625L13.305,221.896L37.876,221.896L37.876,222.625Z" style="fill:rgb(178,190,194);fill-rule:nonzero;"/>
                </g>
                <g transform="matrix(5.86932,0,0,5.99389,-652.185,-380.634)">
                    <path d="M37.894,228.914L13.334,228.914L17.231,225.42L14.116,222.625L37.894,222.625L37.894,228.914Z" style="fill:rgb(178,190,194);fill-rule:nonzero;"/>
                </g>
                <g transform="matrix(5.86932,0,0,5.99389,-652.185,-380.634)">
                    <path d="M6.472,215.765L5.632,215.765L5.632,215.011L5.699,215.071L6.472,215.765Z" style="fill:rgb(195,208,211);fill-rule:nonzero;"/>
                </g>
                <g transform="matrix(5.86932,0,0,5.99389,-652.185,-380.634)">
                    <path d="M14.116,222.625L12.252,222.625L5.632,216.684L5.632,215.765L6.472,215.765L13.305,221.896L14.116,222.625Z" style="fill:rgb(178,190,194);fill-rule:nonzero;"/>
                </g>
                <g transform="matrix(5.86932,0,0,5.99389,-652.185,-380.634)">
                    <path d="M5.632,235.82L5.632,235.605L12.282,229.642L12.522,229.642L5.699,235.76L5.632,235.82Z" style="fill:rgb(178,190,194);fill-rule:nonzero;"/>
                </g>
                <g transform="matrix(5.86932,0,0,5.99389,-652.185,-380.634)">
                    <path d="M12.522,229.642L12.282,229.642L16.179,226.148L12.252,222.625L14.116,222.625L17.231,225.42L13.334,228.914L12.522,229.642Z" style="fill:rgb(178,190,194);fill-rule:nonzero;"/>
                </g>
                <g transform="matrix(5.86932,0,0,5.99389,-652.185,-380.634)">
                    <path d="M5.632,235.605L5.632,216.684L12.252,222.625L16.179,226.148L12.282,229.642L5.632,235.605Z" style="fill:rgb(178,190,194);fill-rule:nonzero;"/>
                </g>
                <g transform="matrix(5.86932,0,0,5.99389,-652.185,-380.634)">
                    <rect x="7.571" y="213.498" width="33.23" height="20.857" style="fill:rgb(36,38,42);fill-rule:nonzero;"/>
                </g>
                <g transform="matrix(5.86932,0,0,5.99389,-652.185,-380.634)">
                    <rect x="7.571" y="223.58" width="33.23" height="10.775" style="fill:rgb(61,183,99);fill-rule:nonzero;"/>
                </g>
                <g transform="matrix(5.86932,0,0,5.99389,-652.185,-380.634)">
                    <rect x="7.571" y="220.357" width="33.247" height="7.018" style="fill:white;fill-rule:nonzero;"/>
                </g>
                <g transform="matrix(5.86932,0,0,5.99389,-652.185,-380.634)">
                    <path d="M7.504,234.281L7.504,213.472L19.103,223.88L7.504,234.281Z" style="fill:rgb(225,58,55);fill-rule:nonzero;"/>
                </g>
                <g transform="matrix(5.86932,0,0,5.99389,-652.185,-380.634)">
                    <path d="M17.923,208.279L17.741,208.451C17.61,208.322 17.466,208.224 17.311,208.158C17.154,208.091 17.002,208.058 16.855,208.058C16.67,208.058 16.495,208.103 16.328,208.195C16.162,208.285 16.033,208.408 15.941,208.562C15.85,208.716 15.804,208.88 15.804,209.052C15.804,209.23 15.851,209.398 15.946,209.556C16.041,209.716 16.171,209.841 16.339,209.933C16.506,210.023 16.689,210.068 16.888,210.068C17.13,210.068 17.334,210.002 17.501,209.865C17.668,209.728 17.767,209.552 17.798,209.334L17.049,209.334L17.049,209.107L18.062,209.107C18.06,209.47 17.952,209.759 17.738,209.972C17.525,210.185 17.239,210.293 16.882,210.293C16.447,210.293 16.104,210.144 15.85,209.849C15.655,209.621 15.558,209.357 15.558,209.058C15.558,208.836 15.614,208.628 15.726,208.437C15.837,208.246 15.991,208.095 16.186,207.988C16.38,207.878 16.601,207.826 16.847,207.826C17.045,207.826 17.233,207.861 17.409,207.933C17.584,208.005 17.755,208.121 17.923,208.279Z" style="fill-rule:nonzero;"/>
                </g>
                <g transform="matrix(5.86932,0,0,5.99389,-652.185,-380.634)">
                    <path d="M19.31,208.668C19.186,208.668 19.07,208.697 18.965,208.759C18.86,208.82 18.776,208.906 18.714,209.015C18.652,209.127 18.621,209.244 18.621,209.367C18.621,209.49 18.652,209.607 18.715,209.718C18.777,209.83 18.862,209.916 18.968,209.978C19.073,210.041 19.187,210.072 19.308,210.072C19.431,210.072 19.546,210.041 19.656,209.98C19.765,209.918 19.85,209.834 19.909,209.728C19.968,209.625 19.997,209.505 19.997,209.373C19.997,209.171 19.931,209.003 19.799,208.869C19.666,208.734 19.503,208.668 19.31,208.668ZM20.203,208.496L20.203,210.234L19.983,210.234L19.983,209.935C19.889,210.048 19.784,210.134 19.668,210.191C19.551,210.25 19.423,210.279 19.285,210.279C19.039,210.279 18.829,210.189 18.655,210.011C18.481,209.832 18.394,209.615 18.394,209.359C18.394,209.109 18.482,208.896 18.657,208.718C18.833,208.541 19.044,208.451 19.292,208.451C19.434,208.451 19.563,208.482 19.679,208.543C19.794,208.603 19.896,208.695 19.983,208.816L19.983,208.496L20.203,208.496Z" style="fill-rule:nonzero;"/>
                </g>
                <g transform="matrix(5.86932,0,0,5.99389,-652.185,-380.634)">
                    <path d="M20.564,208.496L21.84,208.496L20.856,210.035L21.808,210.035L21.808,210.234L20.471,210.234L21.454,208.693L20.564,208.693L20.564,208.496Z" style="fill-rule:nonzero;"/>
                </g>
                <g transform="matrix(5.86932,0,0,5.99389,-652.185,-380.634)">
                    <path d="M22.933,208.668C22.809,208.668 22.693,208.697 22.588,208.759C22.483,208.82 22.399,208.906 22.337,209.015C22.275,209.127 22.244,209.244 22.244,209.367C22.244,209.49 22.275,209.607 22.338,209.718C22.4,209.83 22.485,209.916 22.591,209.978C22.696,210.041 22.81,210.072 22.931,210.072C23.054,210.072 23.169,210.041 23.279,209.98C23.388,209.918 23.473,209.834 23.532,209.728C23.591,209.625 23.62,209.505 23.62,209.373C23.62,209.171 23.554,209.003 23.422,208.869C23.289,208.734 23.127,208.668 22.933,208.668ZM23.826,208.496L23.826,210.234L23.606,210.234L23.606,209.935C23.512,210.048 23.407,210.134 23.291,210.191C23.174,210.25 23.046,210.279 22.908,210.279C22.662,210.279 22.452,210.189 22.278,210.011C22.104,209.832 22.017,209.615 22.017,209.359C22.017,209.109 22.105,208.896 22.28,208.718C22.456,208.541 22.668,208.451 22.915,208.451C23.057,208.451 23.186,208.482 23.302,208.543C23.417,208.603 23.519,208.695 23.606,208.816L23.606,208.496L23.826,208.496Z" style="fill-rule:nonzero;"/>
                </g>
                <g transform="matrix(5.86932,0,0,5.99389,-652.185,-380.634)">
                    <path d="M25.028,209.796L25.228,209.675C25.369,209.935 25.531,210.064 25.715,210.064L25.937,210.009L26.095,209.861L26.149,209.666L26.069,209.433C25.996,209.33 25.862,209.203 25.667,209.056C25.471,208.908 25.35,208.802 25.301,208.736C25.218,208.625 25.177,208.505 25.177,208.377C25.177,208.273 25.202,208.181 25.251,208.097L25.457,207.898C25.546,207.849 25.643,207.826 25.747,207.826C25.858,207.826 25.961,207.853 26.058,207.908C26.154,207.962 26.256,208.064 26.363,208.211L26.172,208.355C26.084,208.238 26.008,208.162 25.946,208.125L25.742,208.068C25.647,208.068 25.57,208.097 25.51,208.154L25.419,208.367L25.452,208.515L25.568,208.671C25.599,208.701 25.7,208.779 25.872,208.906C26.075,209.056 26.214,209.189 26.29,209.306C26.366,209.423 26.403,209.543 26.403,209.66C26.403,209.83 26.338,209.978 26.21,210.103C26.08,210.23 25.923,210.293 25.737,210.293C25.595,210.293 25.465,210.253 25.35,210.177C25.233,210.101 25.127,209.974 25.028,209.796Z" style="fill-rule:nonzero;"/>
                </g>
                <g transform="matrix(5.86932,0,0,5.99389,-652.185,-380.634)">
                    <path d="M27.058,207.851L27.282,207.851L27.282,208.496L27.636,208.496L27.636,208.689L27.282,208.689L27.282,210.234L27.058,210.234L27.058,208.689L26.753,208.689L26.753,208.496L27.058,208.496L27.058,207.851Z" style="fill-rule:nonzero;"/>
                </g>
                <g transform="matrix(5.86932,0,0,5.99389,-652.185,-380.634)">
                    <path d="M27.887,208.496L28.115,208.496L28.115,208.75C28.184,208.65 28.255,208.576 28.331,208.525L28.567,208.451L28.765,208.509L28.649,208.699L28.531,208.668L28.315,208.759C28.246,208.822 28.193,208.916 28.157,209.045C28.129,209.144 28.115,209.345 28.115,209.646L28.115,210.234L27.887,210.234L27.887,208.496Z" style="fill-rule:nonzero;"/>
                </g>
                <g transform="matrix(5.86932,0,0,5.99389,-652.185,-380.634)">
                    <path d="M28.921,208.496L29.145,208.496L29.145,210.234L28.921,210.234L28.921,208.496ZM29.033,207.781L29.163,207.836L29.217,207.966L29.163,208.095L29.033,208.15L28.904,208.095L28.85,207.966L28.904,207.836L29.033,207.781Z" style="fill-rule:nonzero;"/>
                </g>
                <g transform="matrix(5.86932,0,0,5.99389,-652.185,-380.634)">
                    <path d="M30.507,208.668C30.314,208.668 30.151,208.734 30.019,208.869C29.887,209.003 29.821,209.171 29.821,209.373C29.821,209.505 29.85,209.625 29.909,209.728C29.968,209.834 30.053,209.918 30.163,209.98C30.272,210.041 30.388,210.072 30.511,210.072C30.63,210.072 30.743,210.041 30.849,209.978C30.955,209.916 31.039,209.83 31.102,209.718C31.164,209.607 31.195,209.49 31.195,209.367C31.195,209.244 31.165,209.127 31.103,209.015C31.04,208.906 30.957,208.82 30.852,208.759C30.746,208.697 30.631,208.668 30.507,208.668ZM29.613,208.496L29.837,208.496L29.837,208.816C29.925,208.695 30.026,208.603 30.142,208.543C30.256,208.482 30.384,208.451 30.526,208.451C30.772,208.451 30.983,208.541 31.159,208.718C31.335,208.896 31.422,209.109 31.422,209.359C31.422,209.615 31.335,209.832 31.162,210.011C30.988,210.189 30.778,210.279 30.532,210.279C30.394,210.279 30.267,210.25 30.151,210.191C30.035,210.134 29.93,210.048 29.837,209.935L29.837,210.869L29.613,210.869L29.613,208.496Z" style="fill-rule:nonzero;"/>
                </g>
            </g>
        </g>
    </g>
</svg>
