<?xml version="1.0" encoding="UTF-8" standalone="no"?>
<!DOCTYPE svg PUBLIC "-//W3C//DTD SVG 1.1//EN" "http://www.w3.org/Graphics/SVG/1.1/DTD/svg11.dtd">
<svg width="100%" height="100%" viewBox="0 0 210 164" version="1.1" xmlns="http://www.w3.org/2000/svg" xmlns:xlink="http://www.w3.org/1999/xlink" xml:space="preserve" xmlns:serif="http://www.serif.com/" style="fill-rule:evenodd;clip-rule:evenodd;stroke-linejoin:round;stroke-miterlimit:2;">
    <g transform="matrix(1,0,0,1,-14.5833,-435.417)">
        <g id="Artboard13" transform="matrix(0.709906,0,0,0.695153,487.508,-143.877)">
            <rect x="-666.179" y="833.333" width="294.444" height="235.774" style="fill:none;"/>
            <clipPath id="_clip1">
                <rect x="-666.179" y="833.333" width="294.444" height="235.774"/>
            </clipPath>
            <g clip-path="url(#_clip1)">
                <g transform="matrix(1.40864,0,0,1.43853,-727.807,776.391)">
                    <rect x="0" y="0" width="294.444" height="235.774" style="fill:rgb(235,235,235);"/>
                </g>
                <g transform="matrix(5.86932,0,0,5.99389,-1529.07,-656.427)">
                    <path d="M187.253,282.295L154.023,282.295L154.023,271.962L154.023,282.261L162.268,282.261L162.268,281.566L187.253,281.566L187.253,282.295Z" style="fill:rgb(205,218,221);fill-rule:nonzero;"/>
                </g>
                <g transform="matrix(5.86932,0,0,5.99389,-1529.07,-656.427)">
                    <path d="M162.268,282.261L154.023,282.261L154.023,261.437L155.075,261.437L155.075,281.566L162.268,281.566L162.268,282.261Z" style="fill:rgb(205,218,221);fill-rule:nonzero;"/>
                </g>
                <g transform="matrix(5.86932,0,0,5.99389,-1529.07,-656.427)">
                    <path d="M188.306,271.234L187.253,271.234L187.253,261.437L163.319,261.437L163.319,260.709L155.075,260.709L155.075,261.437L155.075,260.709L188.306,260.709L188.306,271.234Z" style="fill:rgb(195,208,211);fill-rule:nonzero;"/>
                </g>
                <g transform="matrix(5.86932,0,0,5.99389,-1529.07,-656.427)">
                    <rect x="163.319" y="261.437" width="23.934" height="9.797" style="fill:rgb(178,190,194);fill-rule:nonzero;"/>
                </g>
                <g transform="matrix(5.86932,0,0,5.99389,-1529.07,-656.427)">
                    <path d="M188.306,281.566L187.253,281.566L187.253,271.234L188.306,271.234L188.306,281.566Z" style="fill:rgb(195,208,211);fill-rule:nonzero;"/>
                </g>
                <g transform="matrix(5.86932,0,0,5.99389,-1529.07,-656.427)">
                    <rect x="163.319" y="271.234" width="23.934" height="0.728" style="fill:rgb(178,190,194);fill-rule:nonzero;"/>
                </g>
                <g transform="matrix(5.86932,0,0,5.99389,-1529.07,-656.427)">
                    <path d="M187.253,281.566L162.268,281.566L162.268,281.533L163.319,281.533L163.319,271.962L187.253,271.962L187.253,281.566Z" style="fill:rgb(178,190,194);fill-rule:nonzero;"/>
                </g>
                <g transform="matrix(5.86932,0,0,5.99389,-1529.07,-656.427)">
                    <path d="M162.268,281.566L155.075,281.566L155.075,271.234L155.075,281.533L162.268,281.533L162.268,281.566Z" style="fill:rgb(178,190,194);fill-rule:nonzero;"/>
                </g>
                <g transform="matrix(5.86932,0,0,5.99389,-1529.07,-656.427)">
                    <rect x="155.075" y="260.709" width="8.244" height="0.728" style="fill:rgb(195,208,211);fill-rule:nonzero;"/>
                </g>
                <g transform="matrix(5.86932,0,0,5.99389,-1529.07,-656.427)">
                    <path d="M163.319,271.962L162.268,271.962L162.268,261.437L155.075,261.437L163.319,261.437L163.319,271.962Z" style="fill:rgb(178,190,194);fill-rule:nonzero;"/>
                </g>
                <g transform="matrix(5.86932,0,0,5.99389,-1529.07,-656.427)">
                    <rect x="162.268" y="271.962" width="1.051" height="9.571" style="fill:rgb(178,190,194);fill-rule:nonzero;"/>
                </g>
                <g transform="matrix(5.86932,0,0,5.99389,-1529.07,-656.427)">
                    <path d="M162.268,281.533L155.075,281.533L155.075,261.437L162.268,261.437L162.268,281.533Z" style="fill:rgb(178,190,194);fill-rule:nonzero;"/>
                </g>
                <g transform="matrix(5.86932,0,0,5.99389,-1529.07,-656.427)">
                    <rect x="156.948" y="259.168" width="33.229" height="20.857" style="fill:rgb(234,57,52);fill-rule:nonzero;"/>
                </g>
                <g transform="matrix(5.86932,0,0,5.99389,-1529.07,-656.427)">
                    <rect x="156.948" y="269.695" width="33.229" height="10.33" style="fill:rgb(61,183,99);fill-rule:nonzero;"/>
                </g>
                <g transform="matrix(5.86932,0,0,5.99389,-1529.07,-656.427)">
                    <rect x="156.948" y="259.168" width="8.244" height="20.826" style="fill:white;fill-rule:nonzero;"/>
                </g>
                <g transform="matrix(5.86932,0,0,5.99389,-1529.07,-656.427)">
                    <path d="M163.336,256.543L163.673,254.195L163.71,254.195L164.665,256.121L165.61,254.195L165.649,254.195L165.987,256.543L165.757,256.543L165.524,254.863L164.694,256.543L164.634,256.543L163.794,254.851L163.563,256.543L163.336,256.543Z" style="fill-rule:nonzero;"/>
                </g>
                <g transform="matrix(5.86932,0,0,5.99389,-1529.07,-656.427)">
                    <path d="M167.249,254.976C167.124,254.976 167.009,255.007 166.904,255.068C166.799,255.128 166.716,255.214 166.653,255.326C166.591,255.437 166.56,255.552 166.56,255.677C166.56,255.798 166.591,255.916 166.653,256.027C166.716,256.138 166.801,256.226 166.907,256.289C167.013,256.351 167.126,256.382 167.247,256.382C167.37,256.382 167.485,256.351 167.595,256.289C167.704,256.228 167.788,256.144 167.848,256.039C167.907,255.933 167.937,255.814 167.937,255.683C167.937,255.482 167.87,255.314 167.737,255.179C167.604,255.045 167.442,254.976 167.249,254.976ZM168.142,254.806L168.142,256.543L167.922,256.543L167.922,256.244C167.828,256.359 167.724,256.443 167.606,256.502C167.489,256.558 167.362,256.587 167.224,256.587C166.978,256.587 166.769,256.498 166.595,256.32C166.42,256.142 166.333,255.925 166.333,255.67C166.333,255.42 166.421,255.205 166.597,255.027C166.772,254.849 166.983,254.761 167.23,254.761C167.373,254.761 167.502,254.791 167.618,254.851C167.733,254.912 167.835,255.003 167.922,255.125L167.922,254.806L168.142,254.806Z" style="fill-rule:nonzero;"/>
                </g>
                <g transform="matrix(5.86932,0,0,5.99389,-1529.07,-656.427)">
                    <path d="M169.485,254.976C169.361,254.976 169.247,255.007 169.142,255.068C169.036,255.128 168.952,255.214 168.89,255.326C168.827,255.437 168.797,255.552 168.797,255.677C168.797,255.798 168.828,255.916 168.892,256.027C168.954,256.138 169.038,256.226 169.144,256.289C169.249,256.351 169.362,256.382 169.484,256.382C169.606,256.382 169.722,256.351 169.832,256.289C169.941,256.228 170.026,256.144 170.085,256.039C170.144,255.933 170.173,255.814 170.173,255.683C170.173,255.482 170.106,255.314 169.975,255.179C169.843,255.045 169.679,254.976 169.485,254.976ZM170.38,254.134L170.38,256.543L170.159,256.543L170.159,256.244C170.065,256.359 169.96,256.443 169.843,256.502C169.728,256.558 169.6,256.587 169.461,256.587C169.216,256.587 169.005,256.498 168.831,256.32C168.657,256.142 168.569,255.925 168.569,255.67C168.569,255.42 168.657,255.205 168.833,255.027C169.009,254.849 169.22,254.761 169.468,254.761C169.61,254.761 169.739,254.791 169.854,254.851C169.97,254.912 170.071,255.003 170.159,255.125L170.159,254.134L170.38,254.134Z" style="fill-rule:nonzero;"/>
                </g>
                <g transform="matrix(5.86932,0,0,5.99389,-1529.07,-656.427)">
                    <path d="M171.723,254.976C171.599,254.976 171.483,255.007 171.378,255.068C171.272,255.128 171.189,255.214 171.127,255.326C171.065,255.437 171.034,255.552 171.034,255.677C171.034,255.798 171.065,255.916 171.128,256.027C171.19,256.138 171.274,256.226 171.381,256.289C171.486,256.351 171.601,256.382 171.722,256.382C171.844,256.382 171.96,256.351 172.069,256.289C172.179,256.228 172.263,256.144 172.321,256.039C172.381,255.933 172.41,255.814 172.41,255.683C172.41,255.482 172.345,255.314 172.212,255.179C172.079,255.045 171.917,254.976 171.723,254.976ZM172.616,254.806L172.616,256.543L172.396,256.543L172.396,256.244C172.302,256.359 172.197,256.443 172.081,256.502C171.964,256.558 171.837,256.587 171.698,256.587C171.452,256.587 171.242,256.498 171.068,256.32C170.894,256.142 170.808,255.925 170.808,255.67C170.808,255.42 170.896,255.205 171.07,255.027C171.246,254.849 171.458,254.761 171.704,254.761C171.847,254.761 171.976,254.791 172.092,254.851C172.207,254.912 172.309,255.003 172.396,255.125L172.396,254.806L172.616,254.806Z" style="fill-rule:nonzero;"/>
                </g>
                <g transform="matrix(5.86932,0,0,5.99389,-1529.07,-656.427)">
                    <path d="M173.958,254.976C173.831,254.976 173.714,255.007 173.604,255.068C173.496,255.128 173.411,255.214 173.349,255.322C173.288,255.429 173.257,255.546 173.257,255.673C173.257,255.863 173.32,256.021 173.448,256.146C173.575,256.269 173.741,256.332 173.944,256.332C174.15,256.332 174.315,256.271 174.44,256.146C174.565,256.023 174.628,255.861 174.628,255.66C174.628,255.529 174.6,255.412 174.542,255.31C174.484,255.207 174.403,255.125 174.298,255.066C174.192,255.005 174.079,254.976 173.958,254.976ZM174.617,254.806L174.841,254.806L174.841,256.189C174.841,256.433 174.819,256.614 174.776,256.724C174.718,256.885 174.616,257.007 174.472,257.093C174.327,257.179 174.153,257.222 173.95,257.222C173.8,257.222 173.667,257.204 173.548,257.161C173.429,257.118 173.333,257.06 173.259,256.99C173.184,256.92 173.114,256.817 173.052,256.679L173.295,256.679C173.36,256.793 173.446,256.878 173.551,256.933C173.655,256.99 173.784,257.017 173.938,257.017C174.091,257.017 174.22,256.989 174.325,256.931C174.431,256.875 174.505,256.804 174.55,256.718C174.595,256.632 174.617,256.494 174.617,256.302L174.617,256.212C174.532,256.318 174.431,256.4 174.309,256.457C174.187,256.515 174.058,256.543 173.922,256.543C173.762,256.543 173.612,256.503 173.471,256.423C173.33,256.345 173.222,256.238 173.146,256.103C173.068,255.97 173.03,255.822 173.03,255.662C173.03,255.502 173.069,255.351 173.149,255.212C173.229,255.074 173.341,254.962 173.481,254.882C173.622,254.8 173.771,254.761 173.929,254.761C174.058,254.761 174.179,254.789 174.292,254.841C174.404,254.896 174.513,254.984 174.617,255.107L174.617,254.806Z" style="fill-rule:nonzero;"/>
                </g>
                <g transform="matrix(5.86932,0,0,5.99389,-1529.07,-656.427)">
                    <path d="M176.157,254.976C176.032,254.976 175.917,255.007 175.813,255.068C175.707,255.128 175.624,255.214 175.562,255.326C175.499,255.437 175.468,255.552 175.468,255.677C175.468,255.798 175.499,255.916 175.562,256.027C175.624,256.138 175.709,256.226 175.815,256.289C175.921,256.351 176.034,256.382 176.155,256.382C176.278,256.382 176.394,256.351 176.503,256.289C176.612,256.228 176.696,256.144 176.756,256.039C176.815,255.933 176.845,255.814 176.845,255.683C176.845,255.482 176.778,255.314 176.646,255.179C176.513,255.045 176.351,254.976 176.157,254.976ZM177.05,254.806L177.05,256.543L176.83,256.543L176.83,256.244C176.736,256.359 176.632,256.443 176.515,256.502C176.397,256.558 176.271,256.587 176.132,256.587C175.886,256.587 175.677,256.498 175.503,256.32C175.328,256.142 175.241,255.925 175.241,255.67C175.241,255.42 175.329,255.205 175.505,255.027C175.681,254.849 175.892,254.761 176.139,254.761C176.281,254.761 176.41,254.791 176.526,254.851C176.642,254.912 176.743,255.003 176.83,255.125L176.83,254.806L177.05,254.806Z" style="fill-rule:nonzero;"/>
                </g>
                <g transform="matrix(5.86932,0,0,5.99389,-1529.07,-656.427)">
                    <path d="M178.427,254.996L178.283,255.144C178.163,255.029 178.046,254.97 177.933,254.97L177.746,255.043L177.669,255.209L177.732,255.371C177.774,255.423 177.864,255.484 178.001,255.554C178.167,255.64 178.28,255.724 178.341,255.804C178.399,255.884 178.429,255.976 178.429,256.076C178.429,256.218 178.378,256.339 178.278,256.439C178.178,256.539 178.052,256.587 177.902,256.587C177.802,256.587 177.706,256.566 177.615,256.521C177.524,256.478 177.448,256.418 177.389,256.341L177.529,256.181C177.644,256.31 177.765,256.375 177.893,256.375L178.122,256.289L178.216,256.086L178.153,255.916C178.112,255.867 178.019,255.804 177.872,255.73C177.716,255.65 177.608,255.57 177.552,255.49C177.495,255.412 177.468,255.322 177.468,255.22C177.468,255.089 177.513,254.978 177.603,254.892C177.692,254.804 177.806,254.761 177.944,254.761C178.104,254.761 178.265,254.839 178.427,254.996Z" style="fill-rule:nonzero;"/>
                </g>
                <g transform="matrix(5.86932,0,0,5.99389,-1529.07,-656.427)">
                    <path d="M180.509,255.166L180.331,255.277C180.179,255.074 179.97,254.972 179.705,254.972C179.493,254.972 179.317,255.041 179.178,255.175C179.038,255.312 178.968,255.478 178.968,255.671C178.968,255.798 179.001,255.918 179.064,256.029C179.129,256.14 179.218,256.228 179.329,256.289C179.441,256.351 179.567,256.382 179.706,256.382C179.962,256.382 180.17,256.281 180.331,256.076L180.509,256.193C180.426,256.318 180.314,256.416 180.175,256.484C180.034,256.552 179.875,256.587 179.696,256.587C179.421,256.587 179.194,256.5 179.013,256.326C178.832,256.152 178.741,255.939 178.741,255.689C178.741,255.521 178.784,255.365 178.868,255.22C178.953,255.076 179.069,254.962 179.218,254.882C179.365,254.8 179.53,254.761 179.714,254.761C179.829,254.761 179.94,254.779 180.047,254.814C180.153,254.849 180.245,254.894 180.319,254.951L180.509,255.166Z" style="fill-rule:nonzero;"/>
                </g>
                <g transform="matrix(5.86932,0,0,5.99389,-1529.07,-656.427)">
                    <path d="M181.776,254.976C181.651,254.976 181.536,255.007 181.432,255.068C181.326,255.128 181.243,255.214 181.181,255.326C181.118,255.437 181.087,255.552 181.087,255.677C181.087,255.798 181.118,255.916 181.181,256.027C181.243,256.138 181.328,256.226 181.435,256.289C181.54,256.351 181.653,256.382 181.774,256.382C181.897,256.382 182.013,256.351 182.122,256.289C182.231,256.228 182.315,256.144 182.375,256.039C182.435,255.933 182.464,255.814 182.464,255.683C182.464,255.482 182.397,255.314 182.265,255.179C182.132,255.045 181.97,254.976 181.776,254.976ZM182.669,254.806L182.669,256.543L182.449,256.543L182.449,256.244C182.355,256.359 182.251,256.443 182.134,256.502C182.017,256.558 181.89,256.587 181.751,256.587C181.505,256.587 181.296,256.498 181.122,256.32C180.947,256.142 180.86,255.925 180.86,255.67C180.86,255.42 180.948,255.205 181.124,255.027C181.3,254.849 181.511,254.761 181.758,254.761C181.9,254.761 182.029,254.791 182.146,254.851C182.261,254.912 182.362,255.003 182.449,255.125L182.449,254.806L182.669,254.806Z" style="fill-rule:nonzero;"/>
                </g>
                <g transform="matrix(5.86932,0,0,5.99389,-1529.07,-656.427)">
                    <path d="M183.088,254.806L183.315,254.806L183.315,255.06C183.384,254.959 183.456,254.884 183.532,254.836L183.769,254.761L183.966,254.82L183.85,255.007L183.731,254.978L183.516,255.07C183.446,255.13 183.394,255.226 183.357,255.355C183.33,255.455 183.315,255.654 183.315,255.955L183.315,256.543L183.088,256.543L183.088,254.806Z" style="fill-rule:nonzero;"/>
                </g>
            </g>
        </g>
    </g>
</svg>
