<?xml version="1.0" encoding="UTF-8" standalone="no"?>
<!DOCTYPE svg PUBLIC "-//W3C//DTD SVG 1.1//EN" "http://www.w3.org/Graphics/SVG/1.1/DTD/svg11.dtd">
<svg width="100%" height="100%" viewBox="0 0 210 164" version="1.1" xmlns="http://www.w3.org/2000/svg" xmlns:xlink="http://www.w3.org/1999/xlink" xml:space="preserve" xmlns:serif="http://www.serif.com/" style="fill-rule:evenodd;clip-rule:evenodd;stroke-linejoin:round;stroke-miterlimit:2;">
    <g transform="matrix(1,0,0,1,-490.625,-435.417)">
        <g id="Artboard15" transform="matrix(0.709906,0,0,0.695153,963.55,-143.877)">
            <rect x="-666.179" y="833.333" width="294.444" height="235.774" style="fill:none;"/>
            <clipPath id="_clip1">
                <rect x="-666.179" y="833.333" width="294.444" height="235.774"/>
            </clipPath>
            <g clip-path="url(#_clip1)">
                <g transform="matrix(1.40864,0,0,1.43853,-727.807,776.391)">
                    <rect x="0" y="0" width="294.444" height="235.774" style="fill:rgb(235,235,235);"/>
                </g>
                <g transform="matrix(5.86932,0,0,5.99389,-1530.45,-101.349)">
                    <path d="M187.506,190.308L154.239,190.308L154.239,169.451L155.291,169.451L154.243,169.451L154.243,179.853L155.291,179.853L155.291,189.579L187.506,189.579L187.506,190.308Z" style="fill:rgb(205,218,221);fill-rule:nonzero;"/>
                </g>
                <g transform="matrix(5.86932,0,0,5.99389,-1530.45,-101.349)">
                    <rect x="154.243" y="169.451" width="1.048" height="10.402" style="fill:rgb(205,218,221);fill-rule:nonzero;"/>
                </g>
                <g transform="matrix(5.86932,0,0,5.99389,-1530.45,-101.349)">
                    <path d="M188.558,189.579L187.506,189.579L187.506,179.125L188.558,179.125L188.558,189.579ZM155.296,169.451L155.291,169.451L155.291,168.722L188.558,168.722L155.296,168.722L155.296,169.451Z" style="fill:rgb(195,208,211);fill-rule:nonzero;"/>
                </g>
                <g transform="matrix(5.86932,0,0,5.99389,-1530.45,-101.349)">
                    <rect x="155.291" y="179.853" width="32.215" height="9.726" style="fill:rgb(178,190,194);fill-rule:nonzero;"/>
                </g>
                <g transform="matrix(5.86932,0,0,5.99389,-1530.45,-101.349)">
                    <path d="M187.506,179.853L155.291,179.853L155.291,169.451L155.296,169.451L155.296,179.125L187.506,179.125L187.506,179.853Z" style="fill:rgb(178,190,194);fill-rule:nonzero;"/>
                </g>
                <g transform="matrix(5.86932,0,0,5.99389,-1530.45,-101.349)">
                    <path d="M188.558,179.125L187.506,179.125L187.506,169.451L155.296,169.451L155.296,168.722L188.558,168.722L188.558,179.125Z" style="fill:rgb(195,208,211);fill-rule:nonzero;"/>
                </g>
                <g transform="matrix(5.86932,0,0,5.99389,-1530.45,-101.349)">
                    <path d="M187.506,179.125L155.296,179.125L155.296,169.451L187.506,169.451L187.506,179.125ZM158.932,170.655C157.513,171.35 156.535,172.809 156.535,174.496C156.535,176.856 158.449,178.771 160.81,178.771C161.153,178.771 161.485,178.731 161.806,178.653C161.007,178.463 160.295,178.048 159.741,177.479C160.366,177.837 161.09,178.042 161.862,178.042C162.206,178.042 162.537,178.002 162.858,177.924C160.977,177.476 159.579,175.784 159.579,173.768C159.579,172.541 160.095,171.435 160.923,170.656C161.202,170.519 161.497,170.412 161.806,170.339C161.675,170.307 161.542,170.281 161.407,170.262C161.839,169.961 162.33,169.736 162.858,169.61C162.537,169.532 162.206,169.493 161.862,169.493C160.728,169.493 159.697,169.934 158.932,170.655ZM165.72,177.206L165.44,176.42L166.065,175.957L166.067,175.952L166.069,175.957L166.772,176.477L166.478,175.647L166.469,175.642L166.471,175.642L167.198,175.153L166.317,175.155L166.315,175.155L166.316,175.153L166.087,174.442L166.44,174.704L166.162,173.917L166.788,173.455L166.788,173.451L166.79,173.455L167.493,173.975L167.198,173.146L167.19,173.14L167.192,173.14L167.919,172.65L167.039,172.652L167.036,172.654L167.038,172.65L166.769,171.818L166.53,172.652L165.75,172.651L165.717,172.546L165.687,172.651L165.659,172.65L165.682,172.666L165.478,173.38L164.606,173.379L165.331,173.869L165.335,173.869L165.327,173.874L165.031,174.704L165.735,174.183L165.736,174.179L165.737,174.183L166.026,174.397L165.809,175.155L165.029,175.153L164.995,175.048L164.965,175.153L164.937,175.153L164.961,175.169L164.757,175.883L163.884,175.881L164.608,176.37L164.612,176.37L164.604,176.376L164.312,177.206L165.013,176.685L165.015,176.681L165.017,176.685L165.72,177.206ZM162.945,177.206L162.667,176.419L163.292,175.957L163.294,175.952L163.295,175.957L163.997,176.477L163.704,175.647L163.695,175.642L163.698,175.642L164.424,175.153L163.544,175.155L163.542,175.155L163.542,175.153L163.274,174.32L163.034,175.155L162.255,175.153L162.222,175.048L162.192,175.153L162.163,175.153L162.187,175.169L161.982,175.883L161.11,175.881L161.835,176.37L161.839,176.37L161.831,176.376L161.536,177.206L162.239,176.685L162.241,176.681L162.243,176.685L162.945,177.206ZM162.038,174.704L161.759,173.917L162.384,173.455L162.386,173.451L162.388,173.455L163.091,173.975L162.796,173.146L162.788,173.14L162.79,173.14L163.517,172.65L163.353,172.651L163.558,172.499L163.559,172.495L163.56,172.499L164.264,173.019L163.984,172.234L164.61,171.771L164.61,171.767L164.612,171.771L165.315,172.291L165.02,171.461L165.013,171.457L165.016,171.457L165.742,170.967L164.862,170.968L164.86,170.97L164.86,170.967L164.592,170.134L164.353,170.968L163.574,170.967L163.54,170.862L163.51,170.967L163.481,170.967L163.505,170.983L163.3,171.696L162.429,171.695L163.153,172.185L163.157,172.185L163.149,172.19L162.985,172.651L162.637,172.652L162.634,172.654L162.636,172.65L162.366,171.818L162.128,172.652L161.347,172.651L161.313,172.546L161.284,172.651L161.256,172.65L161.279,172.666L161.075,173.38L160.204,173.379L160.929,173.869L160.933,173.869L160.925,173.874L160.63,174.704L161.332,174.183L161.334,174.179L161.335,174.183L162.038,174.704ZM165.263,175.884L165.265,175.881L165.055,175.233L165.661,175.642L165.665,175.642L165.657,175.647L165.574,175.883L165.265,175.883L165.263,175.884ZM162.489,175.884L162.49,175.881L162.281,175.232L162.888,175.642L162.891,175.642L162.884,175.647L162.8,175.883L162.491,175.883L162.489,175.884ZM165.984,173.382L165.985,173.379L165.776,172.729L166.383,173.14L166.388,173.14L166.379,173.146L166.295,173.38L165.987,173.38L165.984,173.382ZM161.582,173.382L161.583,173.379L161.373,172.729L161.98,173.14L161.984,173.14L161.977,173.146L161.893,173.38L161.585,173.38L161.582,173.382ZM163.808,171.699L163.809,171.695L163.599,171.047L164.206,171.457L164.21,171.457L164.202,171.461L164.119,171.696L163.81,171.696L163.808,171.699Z" style="fill:rgb(178,190,194);fill-rule:nonzero;"/>
                </g>
                <g transform="matrix(5.86932,0,0,5.99389,-1530.45,-101.349)">
                    <path d="M160.81,178.771C158.449,178.771 156.535,176.856 156.535,174.496C156.535,172.809 157.513,171.35 158.932,170.655C158.104,171.434 157.587,172.541 157.587,173.768C157.587,175.356 158.454,176.743 159.741,177.479C160.295,178.048 161.007,178.463 161.806,178.653C161.485,178.731 161.153,178.771 160.81,178.771ZM160.923,170.656C161.074,170.513 161.236,170.382 161.407,170.262C161.542,170.281 161.675,170.307 161.806,170.339C161.497,170.412 161.202,170.519 160.923,170.656Z" style="fill:rgb(178,190,194);fill-rule:nonzero;"/>
                </g>
                <g transform="matrix(5.86932,0,0,5.99389,-1530.45,-101.349)">
                    <path d="M166.44,174.704L166.087,174.442L166.048,174.32L166.026,174.397L165.737,174.183L165.736,174.179L165.735,174.183L165.031,174.704L165.327,173.874L165.335,173.869L165.331,173.869L164.606,173.379L165.478,173.38L165.682,172.666L165.776,172.729L165.985,173.379L165.984,173.382L165.987,173.38L166.295,173.38L166.083,173.975L166.162,173.917L166.44,174.704ZM165.75,172.651L165.687,172.651L165.717,172.546L165.75,172.651Z" style="fill:rgb(178,190,194);fill-rule:nonzero;"/>
                </g>
                <g transform="matrix(5.86932,0,0,5.99389,-1530.45,-101.349)">
                    <path d="M162.038,174.704L161.335,174.183L161.334,174.179L161.332,174.183L160.63,174.704L160.925,173.874L160.933,173.869L160.929,173.869L160.204,173.379L161.075,173.38L161.279,172.666L161.373,172.729L161.583,173.379L161.582,173.382L161.585,173.38L161.893,173.38L161.682,173.975L161.759,173.917L162.038,174.704ZM161.347,172.651L161.284,172.651L161.313,172.546L161.347,172.651Z" style="fill:rgb(178,190,194);fill-rule:nonzero;"/>
                </g>
                <g transform="matrix(5.86932,0,0,5.99389,-1530.45,-101.349)">
                    <path d="M165.72,177.206L165.017,176.685L165.015,176.681L165.013,176.685L164.312,177.206L164.604,176.376L164.612,176.37L164.608,176.37L163.884,175.881L164.757,175.883L164.961,175.169L165.055,175.233L165.265,175.881L165.263,175.884L165.265,175.883L165.574,175.883L165.363,176.477L165.44,176.42L165.72,177.206ZM165.029,175.153L164.965,175.153L164.995,175.048L165.029,175.153Z" style="fill:rgb(178,190,194);fill-rule:nonzero;"/>
                </g>
                <g transform="matrix(5.86932,0,0,5.99389,-1530.45,-101.349)">
                    <path d="M162.945,177.206L162.243,176.685L162.241,176.681L162.239,176.685L161.536,177.206L161.831,176.376L161.839,176.37L161.835,176.37L161.11,175.881L161.982,175.883L162.187,175.169L162.281,175.232L162.49,175.881L162.489,175.884L162.491,175.883L162.8,175.883L162.589,176.477L162.667,176.419L162.945,177.206ZM162.255,175.153L162.192,175.153L162.222,175.048L162.255,175.153Z" style="fill:rgb(178,190,194);fill-rule:nonzero;"/>
                </g>
                <g transform="matrix(5.86932,0,0,5.99389,-1530.45,-101.349)">
                    <path d="M164.264,173.019L163.56,172.499L163.559,172.495L163.558,172.499L163.353,172.651L162.985,172.651L163.149,172.19L163.157,172.185L163.153,172.185L162.429,171.695L163.3,171.696L163.505,170.983L163.599,171.047L163.809,171.695L163.808,171.699L163.81,171.696L164.119,171.696L163.907,172.291L163.984,172.234L164.264,173.019ZM163.574,170.967L163.51,170.967L163.54,170.862L163.574,170.967Z" style="fill:rgb(178,190,194);fill-rule:nonzero;"/>
                </g>
                <g transform="matrix(5.86932,0,0,5.99389,-1530.45,-101.349)">
                    <path d="M161.862,178.042C161.09,178.042 160.366,177.837 159.741,177.479C158.989,176.709 158.526,175.656 158.526,174.496C158.526,172.809 159.504,171.351 160.923,170.656C160.095,171.435 159.579,172.541 159.579,173.768C159.579,175.784 160.977,177.476 162.858,177.924C162.537,178.002 162.206,178.042 161.862,178.042ZM158.932,170.655C159.697,169.934 160.728,169.493 161.862,169.493C162.206,169.493 162.537,169.532 162.858,169.61C162.33,169.736 161.839,169.961 161.407,170.262C161.212,170.235 161.013,170.221 160.81,170.221C160.136,170.221 159.499,170.377 158.932,170.655Z" style="fill:rgb(178,190,194);fill-rule:nonzero;"/>
                </g>
                <g transform="matrix(5.86932,0,0,5.99389,-1530.45,-101.349)">
                    <path d="M159.741,177.479C158.454,176.743 157.587,175.356 157.587,173.768C157.587,172.541 158.104,171.434 158.932,170.655C159.499,170.377 160.136,170.221 160.81,170.221C161.013,170.221 161.212,170.235 161.407,170.262C161.236,170.382 161.074,170.513 160.923,170.656C159.504,171.351 158.526,172.809 158.526,174.496C158.526,175.656 158.989,176.709 159.741,177.479Z" style="fill:rgb(178,190,194);fill-rule:nonzero;"/>
                </g>
                <g transform="matrix(5.86932,0,0,5.99389,-1530.45,-101.349)">
                    <path d="M167.493,173.975L166.79,173.455L166.788,173.451L166.788,173.455L166.162,173.917L166.147,173.874L166.139,173.869L166.141,173.869L166.866,173.379L166.295,173.38L166.379,173.146L166.388,173.14L166.383,173.14L165.776,172.729L165.75,172.651L166.53,172.652L166.769,171.818L167.038,172.65L167.036,172.654L167.039,172.652L167.919,172.65L167.192,173.14L167.19,173.14L167.198,173.146L167.493,173.975ZM165.682,172.666L165.659,172.65L165.687,172.651L165.682,172.666Z" style="fill:rgb(178,190,194);fill-rule:nonzero;"/>
                </g>
                <g transform="matrix(5.86932,0,0,5.99389,-1530.45,-101.349)">
                    <path d="M166.083,173.975L166.295,173.38L166.866,173.379L166.141,173.869L166.139,173.869L166.147,173.874L166.162,173.917L166.083,173.975ZM165.776,172.729L165.682,172.666L165.687,172.651L165.75,172.651L165.776,172.729Z" style="fill:rgb(178,190,194);fill-rule:nonzero;"/>
                </g>
                <g transform="matrix(5.86932,0,0,5.99389,-1530.45,-101.349)">
                    <path d="M163.091,173.975L162.388,173.455L162.386,173.451L162.384,173.455L161.759,173.917L161.744,173.874L161.735,173.869L161.738,173.869L162.464,173.379L161.893,173.38L161.977,173.146L161.984,173.14L161.98,173.14L161.373,172.729L161.347,172.651L162.128,172.652L162.366,171.818L162.636,172.65L162.634,172.654L162.637,172.652L162.985,172.651L162.854,173.019L163.353,172.651L163.517,172.65L162.79,173.14L162.788,173.14L162.796,173.146L163.091,173.975ZM161.279,172.666L161.256,172.65L161.284,172.651L161.279,172.666Z" style="fill:rgb(178,190,194);fill-rule:nonzero;"/>
                </g>
                <g transform="matrix(5.86932,0,0,5.99389,-1530.45,-101.349)">
                    <path d="M161.682,173.975L161.893,173.38L162.464,173.379L161.738,173.869L161.735,173.869L161.744,173.874L161.759,173.917L161.682,173.975ZM161.373,172.729L161.279,172.666L161.284,172.651L161.347,172.651L161.373,172.729Z" style="fill:rgb(178,190,194);fill-rule:nonzero;"/>
                </g>
                <g transform="matrix(5.86932,0,0,5.99389,-1530.45,-101.349)">
                    <path d="M162.854,173.019L162.985,172.651L163.353,172.651L162.854,173.019Z" style="fill:rgb(178,190,194);fill-rule:nonzero;"/>
                </g>
                <g transform="matrix(5.86932,0,0,5.99389,-1530.45,-101.349)">
                    <path d="M166.772,176.477L166.069,175.957L166.067,175.952L166.065,175.957L165.44,176.42L165.425,176.376L165.417,176.37L165.419,176.37L166.146,175.881L165.574,175.883L165.657,175.647L165.665,175.642L165.661,175.642L165.055,175.233L165.029,175.153L165.809,175.155L166.026,174.397L166.087,174.442L166.316,175.153L166.315,175.155L166.317,175.155L167.198,175.153L166.471,175.642L166.469,175.642L166.478,175.647L166.772,176.477ZM164.961,175.169L164.937,175.153L164.965,175.153L164.961,175.169Z" style="fill:rgb(178,190,194);fill-rule:nonzero;"/>
                </g>
                <g transform="matrix(5.86932,0,0,5.99389,-1530.45,-101.349)">
                    <path d="M166.087,174.442L166.026,174.397L166.048,174.32L166.087,174.442Z" style="fill:rgb(178,190,194);fill-rule:nonzero;"/>
                </g>
                <g transform="matrix(5.86932,0,0,5.99389,-1530.45,-101.349)">
                    <path d="M165.363,176.477L165.574,175.883L166.146,175.881L165.419,176.37L165.417,176.37L165.425,176.376L165.44,176.42L165.363,176.477ZM165.055,175.233L164.961,175.169L164.965,175.153L165.029,175.153L165.055,175.233Z" style="fill:rgb(178,190,194);fill-rule:nonzero;"/>
                </g>
                <g transform="matrix(5.86932,0,0,5.99389,-1530.45,-101.349)">
                    <path d="M163.997,176.477L163.295,175.957L163.294,175.952L163.292,175.957L162.667,176.419L162.651,176.376L162.644,176.37L162.645,176.37L163.372,175.881L162.8,175.883L162.884,175.647L162.891,175.642L162.888,175.642L162.281,175.232L162.255,175.153L163.034,175.155L163.274,174.32L163.542,175.153L163.542,175.155L163.544,175.155L164.424,175.153L163.698,175.642L163.695,175.642L163.704,175.647L163.997,176.477ZM162.187,175.169L162.163,175.153L162.192,175.153L162.187,175.169Z" style="fill:rgb(178,190,194);fill-rule:nonzero;"/>
                </g>
                <g transform="matrix(5.86932,0,0,5.99389,-1530.45,-101.349)">
                    <path d="M162.589,176.477L162.8,175.883L163.372,175.881L162.645,176.37L162.644,176.37L162.651,176.376L162.667,176.419L162.589,176.477ZM162.281,175.232L162.187,175.169L162.192,175.153L162.255,175.153L162.281,175.232Z" style="fill:rgb(178,190,194);fill-rule:nonzero;"/>
                </g>
                <g transform="matrix(5.86932,0,0,5.99389,-1530.45,-101.349)">
                    <path d="M165.315,172.291L164.612,171.771L164.61,171.767L164.61,171.771L163.984,172.234L163.969,172.19L163.961,172.185L163.964,172.185L164.69,171.695L164.119,171.696L164.202,171.461L164.21,171.457L164.206,171.457L163.599,171.047L163.574,170.967L164.353,170.968L164.592,170.134L164.86,170.967L164.86,170.97L164.862,170.968L165.742,170.967L165.016,171.457L165.013,171.457L165.02,171.461L165.315,172.291ZM163.505,170.983L163.481,170.967L163.51,170.967L163.505,170.983Z" style="fill:rgb(178,190,194);fill-rule:nonzero;"/>
                </g>
                <g transform="matrix(5.86932,0,0,5.99389,-1530.45,-101.349)">
                    <path d="M163.907,172.291L164.119,171.696L164.69,171.695L163.964,172.185L163.961,172.185L163.969,172.19L163.984,172.234L163.907,172.291ZM163.599,171.047L163.505,170.983L163.51,170.967L163.574,170.967L163.599,171.047Z" style="fill:rgb(178,190,194);fill-rule:nonzero;"/>
                </g>
                <g transform="matrix(5.86932,0,0,5.99389,-1530.45,-101.349)">
                    <rect x="157.163" y="167.182" width="33.268" height="20.857" style="fill:white;fill-rule:nonzero;"/>
                </g>
                <g transform="matrix(5.86932,0,0,5.99389,-1530.45,-101.349)">
                    <rect x="157.168" y="167.182" width="33.263" height="10.403" style="fill:rgb(234,57,52);fill-rule:nonzero;"/>
                </g>
                <g transform="matrix(5.86932,0,0,5.99389,-1530.45,-101.349)">
                    <path d="M164.729,176.384C164.409,176.462 164.077,176.502 163.733,176.502C161.374,176.502 159.46,174.588 159.46,172.228C159.46,169.867 161.374,167.953 163.733,167.953C164.077,167.953 164.409,167.992 164.729,168.07C162.849,168.519 161.451,170.21 161.451,172.228C161.451,174.244 162.849,175.936 164.729,176.384Z" style="fill:white;fill-rule:nonzero;"/>
                </g>
                <g transform="matrix(5.86932,0,0,5.99389,-1530.45,-101.349)">
                    <path d="M169.071,171.606L169.365,172.435L168.661,171.915L168.661,171.911L168.659,171.915L167.956,172.435L168.251,171.606L168.259,171.6L168.255,171.6L167.53,171.11L168.402,171.112L168.642,170.278L168.91,171.11L168.909,171.114L168.911,171.112L169.791,171.11L169.065,171.6L169.063,171.6L169.071,171.606Z" style="fill:white;fill-rule:nonzero;"/>
                </g>
                <g transform="matrix(5.86932,0,0,5.99389,-1530.45,-101.349)">
                    <path d="M164.669,171.606L164.962,172.435L164.259,171.915L164.259,171.911L164.257,171.915L163.554,172.435L163.849,171.606L163.856,171.6L163.853,171.6L163.128,171.11L163.999,171.112L164.237,170.278L164.507,171.11L164.507,171.114L164.509,171.112L165.389,171.11L164.663,171.6L164.66,171.6L164.669,171.606Z" style="fill:white;fill-rule:nonzero;"/>
                </g>
                <g transform="matrix(5.86932,0,0,5.99389,-1530.45,-101.349)">
                    <path d="M168.349,174.107L168.644,174.937L167.94,174.417L167.938,174.412L167.938,174.417L167.235,174.937L167.528,174.107L167.537,174.102L167.532,174.102L166.809,173.613L167.681,173.615L167.919,172.78L168.188,173.613L168.187,173.615L168.189,173.615L169.069,173.613L168.343,174.102L168.341,174.102L168.349,174.107Z" style="fill:white;fill-rule:nonzero;"/>
                </g>
                <g transform="matrix(5.86932,0,0,5.99389,-1530.45,-101.349)">
                    <path d="M165.575,174.107L165.87,174.937L165.167,174.417L165.166,174.412L165.164,174.417L164.461,174.937L164.755,174.107L164.763,174.102L164.759,174.102L164.035,173.613L164.907,173.615L165.146,172.78L165.415,173.613L165.413,173.615L165.416,173.615L166.296,173.613L165.57,174.102L165.567,174.102L165.575,174.107Z" style="fill:white;fill-rule:nonzero;"/>
                </g>
                <g transform="matrix(5.86932,0,0,5.99389,-1530.45,-101.349)">
                    <path d="M166.894,169.921L167.188,170.751L166.484,170.231L166.483,170.227L166.481,170.231L165.778,170.751L166.073,169.921L166.081,169.917L166.077,169.917L165.353,169.427L166.225,169.428L166.464,168.594L166.733,169.427L166.731,169.43L166.733,169.428L167.614,169.427L166.888,169.917L166.886,169.917L166.894,169.921Z" style="fill:white;fill-rule:nonzero;"/>
                </g>
                <g transform="matrix(5.86932,0,0,5.99389,-1530.45,-101.349)">
                    <path d="M165.854,162.921L166.055,162.802C166.195,163.06 166.357,163.19 166.542,163.19L166.764,163.135L166.922,162.987L166.976,162.791L166.896,162.559C166.823,162.455 166.688,162.329 166.493,162.182C166.298,162.034 166.177,161.927 166.128,161.861C166.045,161.751 166.003,161.631 166.003,161.502C166.003,161.399 166.028,161.307 166.077,161.222L166.284,161.024C166.372,160.975 166.47,160.951 166.573,160.951C166.685,160.951 166.788,160.979 166.884,161.033C166.98,161.088 167.083,161.189 167.19,161.336L166.999,161.481C166.91,161.364 166.835,161.287 166.772,161.25L166.569,161.194C166.474,161.194 166.396,161.222 166.337,161.28L166.246,161.492L166.278,161.641L166.396,161.797C166.426,161.827 166.526,161.905 166.698,162.032C166.901,162.182 167.041,162.315 167.116,162.433C167.192,162.55 167.229,162.668 167.229,162.786C167.229,162.956 167.165,163.104 167.036,163.23C166.907,163.355 166.749,163.418 166.563,163.418C166.421,163.418 166.292,163.38 166.177,163.304C166.06,163.228 165.953,163.1 165.854,162.921Z" style="fill-rule:nonzero;"/>
                </g>
                <g transform="matrix(5.86932,0,0,5.99389,-1530.45,-101.349)">
                    <path d="M167.656,161.622L167.88,161.622L167.88,163.359L167.656,163.359L167.656,161.622ZM167.768,160.906L167.897,160.961L167.952,161.091L167.897,161.221L167.768,161.275L167.639,161.221L167.585,161.091L167.639,160.961L167.768,160.906Z" style="fill-rule:nonzero;"/>
                </g>
                <g transform="matrix(5.86932,0,0,5.99389,-1530.45,-101.349)">
                    <path d="M168.345,161.622L168.568,161.622L168.568,161.933C168.657,161.814 168.757,161.725 168.865,161.666C168.974,161.607 169.093,161.577 169.22,161.577C169.35,161.577 169.465,161.61 169.565,161.676C169.666,161.742 169.74,161.831 169.788,161.942C169.837,162.054 169.86,162.229 169.86,162.465L169.86,163.359L169.637,163.359L169.637,162.53C169.637,162.33 169.628,162.196 169.612,162.129C169.586,162.014 169.536,161.928 169.463,161.87C169.39,161.812 169.294,161.783 169.175,161.783C169.04,161.783 168.919,161.828 168.812,161.917C168.705,162.006 168.634,162.117 168.601,162.249C168.579,162.336 168.568,162.493 168.568,162.722L168.568,163.359L168.345,163.359L168.345,161.622Z" style="fill-rule:nonzero;"/>
                </g>
                <g transform="matrix(5.86932,0,0,5.99389,-1530.45,-101.349)">
                    <path d="M171.177,161.793C171.051,161.793 170.933,161.823 170.824,161.884C170.716,161.945 170.63,162.03 170.569,162.138C170.507,162.246 170.476,162.363 170.476,162.489C170.476,162.679 170.54,162.837 170.668,162.961C170.796,163.086 170.961,163.148 171.165,163.148C171.37,163.148 171.535,163.086 171.66,162.963C171.785,162.839 171.848,162.677 171.848,162.476C171.848,162.345 171.819,162.228 171.762,162.126C171.704,162.023 171.622,161.941 171.518,161.882C171.412,161.822 171.299,161.793 171.177,161.793ZM171.837,161.622L172.06,161.622L172.06,163.006C172.06,163.25 172.039,163.428 171.997,163.541C171.938,163.701 171.836,163.824 171.691,163.91C171.546,163.996 171.372,164.039 171.169,164.039C171.021,164.039 170.886,164.018 170.768,163.976C170.649,163.934 170.552,163.877 170.478,163.806C170.403,163.735 170.335,163.631 170.272,163.495L170.515,163.495C170.581,163.609 170.666,163.695 170.771,163.75C170.875,163.806 171.005,163.833 171.159,163.833C171.312,163.833 171.44,163.805 171.545,163.748C171.649,163.691 171.725,163.62 171.77,163.534C171.814,163.448 171.837,163.309 171.837,163.118L171.837,163.028C171.753,163.135 171.649,163.216 171.528,163.274C171.407,163.331 171.278,163.359 171.142,163.359C170.981,163.359 170.831,163.319 170.69,163.24C170.55,163.161 170.441,163.054 170.364,162.92C170.288,162.786 170.249,162.638 170.249,162.478C170.249,162.317 170.29,162.167 170.37,162.028C170.449,161.889 170.56,161.779 170.701,161.698C170.843,161.617 170.991,161.577 171.147,161.577C171.278,161.577 171.399,161.604 171.511,161.658C171.624,161.711 171.732,161.8 171.837,161.923L171.837,161.622Z" style="fill-rule:nonzero;"/>
                </g>
                <g transform="matrix(5.86932,0,0,5.99389,-1530.45,-101.349)">
                    <path d="M173.376,161.793C173.253,161.793 173.138,161.823 173.032,161.884C172.927,161.945 172.843,162.031 172.78,162.142C172.719,162.253 172.688,162.369 172.688,162.493C172.688,162.615 172.72,162.732 172.782,162.844C172.845,162.955 172.929,163.042 173.034,163.105C173.14,163.167 173.254,163.198 173.375,163.198C173.497,163.198 173.613,163.167 173.723,163.105C173.832,163.044 173.917,162.96 173.976,162.855C174.034,162.75 174.063,162.631 174.063,162.499C174.063,162.298 173.998,162.13 173.866,161.995C173.733,161.86 173.57,161.793 173.376,161.793ZM174.271,161.622L174.271,163.359L174.05,163.359L174.05,163.06C173.956,163.174 173.851,163.26 173.734,163.317C173.618,163.375 173.49,163.404 173.353,163.404C173.106,163.404 172.896,163.315 172.722,163.136C172.548,162.958 172.461,162.741 172.461,162.485C172.461,162.235 172.549,162.022 172.724,161.844C172.899,161.666 173.111,161.577 173.358,161.577C173.501,161.577 173.63,161.607 173.745,161.668C173.86,161.729 173.962,161.82 174.05,161.941L174.05,161.622L174.271,161.622Z" style="fill-rule:nonzero;"/>
                </g>
                <g transform="matrix(5.86932,0,0,5.99389,-1530.45,-101.349)">
                    <path d="M175.671,161.793C175.478,161.793 175.314,161.86 175.183,161.995C175.05,162.13 174.983,162.298 174.983,162.499C174.983,162.631 175.013,162.75 175.072,162.855C175.132,162.96 175.216,163.044 175.325,163.105C175.436,163.167 175.552,163.198 175.674,163.198C175.794,163.198 175.906,163.167 176.013,163.105C176.118,163.042 176.202,162.955 176.265,162.844C176.327,162.732 176.358,162.615 176.358,162.493C176.358,162.369 176.327,162.253 176.266,162.142C176.203,162.031 176.12,161.945 176.015,161.884C175.909,161.823 175.794,161.793 175.671,161.793ZM174.776,161.622L175,161.622L175,161.941C175.088,161.82 175.189,161.729 175.305,161.668C175.419,161.607 175.548,161.577 175.688,161.577C175.936,161.577 176.146,161.666 176.322,161.844C176.497,162.022 176.585,162.235 176.585,162.485C176.585,162.741 176.499,162.958 176.325,163.136C176.151,163.315 175.94,163.404 175.695,163.404C175.558,163.404 175.43,163.375 175.313,163.317C175.198,163.26 175.093,163.174 175,163.06L175,163.995L174.776,163.995L174.776,161.622Z" style="fill-rule:nonzero;"/>
                </g>
                <g transform="matrix(5.86932,0,0,5.99389,-1530.45,-101.349)">
                    <path d="M177.825,161.795C177.64,161.795 177.479,161.864 177.346,162.002C177.212,162.139 177.146,162.305 177.146,162.5C177.146,162.626 177.177,162.743 177.237,162.851C177.298,162.96 177.38,163.044 177.483,163.103C177.587,163.162 177.701,163.191 177.825,163.191C177.948,163.191 178.063,163.162 178.167,163.103C178.271,163.044 178.353,162.96 178.413,162.851C178.474,162.743 178.505,162.626 178.505,162.5C178.505,162.305 178.438,162.139 178.304,162.002C178.169,161.864 178.01,161.795 177.825,161.795ZM177.825,161.577C178.093,161.577 178.315,161.674 178.491,161.868C178.651,162.045 178.731,162.253 178.731,162.495C178.731,162.738 178.646,162.95 178.478,163.131C178.309,163.313 178.091,163.404 177.825,163.404C177.56,163.404 177.341,163.313 177.173,163.131C177.003,162.95 176.919,162.738 176.919,162.495C176.919,162.254 176.999,162.046 177.159,161.869C177.335,161.674 177.558,161.577 177.825,161.577Z" style="fill-rule:nonzero;"/>
                </g>
                <g transform="matrix(5.86932,0,0,5.99389,-1530.45,-101.349)">
                    <path d="M179.06,161.622L179.288,161.622L179.288,161.876C179.356,161.775 179.429,161.701 179.504,161.651L179.74,161.577L179.938,161.636L179.821,161.824L179.704,161.794L179.487,161.886C179.419,161.947 179.366,162.042 179.329,162.171C179.302,162.27 179.288,162.47 179.288,162.772L179.288,163.359L179.06,163.359L179.06,161.622Z" style="fill-rule:nonzero;"/>
                </g>
                <g transform="matrix(5.86932,0,0,5.99389,-1530.45,-101.349)">
                    <path d="M181.578,162.315C181.548,162.195 181.505,162.1 181.448,162.029C181.391,161.958 181.315,161.9 181.222,161.857C181.128,161.813 181.028,161.791 180.926,161.791C180.755,161.791 180.608,161.846 180.485,161.956C180.396,162.035 180.329,162.155 180.283,162.315L181.578,162.315ZM181.578,162.782L181.767,162.881C181.704,163.003 181.634,163.101 181.552,163.175C181.472,163.25 181.38,163.307 181.278,163.345C181.178,163.384 181.063,163.404 180.935,163.404C180.651,163.404 180.431,163.311 180.271,163.125C180.11,162.94 180.03,162.729 180.03,162.495C180.03,162.275 180.099,162.078 180.233,161.906C180.405,161.687 180.635,161.577 180.923,161.577C181.219,161.577 181.455,161.69 181.632,161.914C181.758,162.072 181.821,162.271 181.823,162.508L180.261,162.508C180.265,162.71 180.329,162.875 180.454,163.004C180.579,163.133 180.733,163.198 180.916,163.198L181.175,163.151L181.388,163.029C181.446,162.978 181.51,162.896 181.578,162.782Z" style="fill-rule:nonzero;"/>
                </g>
            </g>
        </g>
    </g>
</svg>
