<?xml version="1.0" encoding="UTF-8" standalone="no"?>
<!DOCTYPE svg PUBLIC "-//W3C//DTD SVG 1.1//EN" "http://www.w3.org/Graphics/SVG/1.1/DTD/svg11.dtd">
<svg width="100%" height="100%" viewBox="0 0 210 164" version="1.1" xmlns="http://www.w3.org/2000/svg" xmlns:xlink="http://www.w3.org/1999/xlink" xml:space="preserve" xmlns:serif="http://www.serif.com/" style="fill-rule:evenodd;clip-rule:evenodd;stroke-linejoin:round;stroke-miterlimit:2;">
    <g transform="matrix(1,0,0,1,-484.375,-212.5)">
        <g id="Artboard9" transform="matrix(0.709906,0,0,0.695153,957.3,-366.794)">
            <rect x="-666.179" y="833.333" width="294.444" height="235.774" style="fill:none;"/>
            <clipPath id="_clip1">
                <rect x="-666.179" y="833.333" width="294.444" height="235.774"/>
            </clipPath>
            <g clip-path="url(#_clip1)">
                <g transform="matrix(1.40864,0,0,1.43853,-727.807,776.391)">
                    <rect x="0" y="0" width="294.444" height="235.774" style="fill:rgb(235,235,235);"/>
                </g>
                <g transform="matrix(5.86932,0,0,5.99389,-1239.12,-101.507)">
                    <path d="M105.634,170.379L104.648,169.495L104.648,169.46L105.634,169.46L105.634,170.379Z" style="fill:rgb(205,218,221);fill-rule:nonzero;"/>
                </g>
                <g transform="matrix(5.86932,0,0,5.99389,-1239.12,-101.507)">
                    <path d="M137.878,190.316L104.648,190.316L104.648,190.183L105.634,189.299L105.634,189.515L105.7,189.455L105.7,189.588L137.878,189.588L137.878,190.316Z" style="fill:rgb(205,218,221);fill-rule:nonzero;"/>
                </g>
                <g transform="matrix(5.86932,0,0,5.99389,-1239.12,-101.507)">
                    <path d="M104.581,190.243L104.581,169.435L104.648,169.495L105.634,170.379L105.634,189.299L104.648,190.183L104.581,190.243Z" style="fill:rgb(205,218,221);fill-rule:nonzero;"/>
                </g>
                <g transform="matrix(5.86932,0,0,5.99389,-1239.12,-101.507)">
                    <path d="M138.931,175.59L137.878,175.59L137.878,169.46L106.474,169.46L105.7,168.766L105.7,168.731L138.931,168.731L138.931,175.59Z" style="fill:rgb(195,208,211);fill-rule:nonzero;"/>
                </g>
                <g transform="matrix(5.86932,0,0,5.99389,-1239.12,-101.507)">
                    <path d="M137.878,175.59L113.305,175.59L106.474,169.46L137.878,169.46L137.878,175.59Z" style="fill:rgb(178,190,194);fill-rule:nonzero;"/>
                </g>
                <g transform="matrix(5.86932,0,0,5.99389,-1239.12,-101.507)">
                    <path d="M138.931,189.588L137.878,189.588L137.878,183.336L137.896,183.336L137.896,182.608L138.931,182.608L138.931,189.588Z" style="fill:rgb(195,208,211);fill-rule:nonzero;"/>
                </g>
                <g transform="matrix(5.86932,0,0,5.99389,-1239.12,-101.507)">
                    <path d="M137.878,189.588L105.7,189.588L105.7,189.455L112.525,183.336L137.878,183.336L137.878,189.588Z" style="fill:rgb(178,190,194);fill-rule:nonzero;"/>
                </g>
                <g transform="matrix(5.86932,0,0,5.99389,-1239.12,-101.507)">
                    <path d="M137.896,183.336L112.525,183.336L113.338,182.608L137.896,182.608L137.896,183.336Z" style="fill:rgb(178,190,194);fill-rule:nonzero;"/>
                </g>
                <g transform="matrix(5.86932,0,0,5.99389,-1239.12,-101.507)">
                    <path d="M138.948,182.608L137.896,182.608L137.896,176.318L137.878,176.318L137.878,175.59L138.948,175.59L138.948,182.608Z" style="fill:rgb(195,208,211);fill-rule:nonzero;"/>
                </g>
                <g transform="matrix(5.86932,0,0,5.99389,-1239.12,-101.507)">
                    <path d="M137.878,176.318L114.117,176.318L113.305,175.59L137.878,175.59L137.878,176.318Z" style="fill:rgb(178,190,194);fill-rule:nonzero;"/>
                </g>
                <g transform="matrix(5.86932,0,0,5.99389,-1239.12,-101.507)">
                    <path d="M137.896,182.608L113.338,182.608L117.233,179.115L114.117,176.318L137.896,176.318L137.896,182.608Z" style="fill:rgb(178,190,194);fill-rule:nonzero;"/>
                </g>
                <g transform="matrix(5.86932,0,0,5.99389,-1239.12,-101.507)">
                    <path d="M106.474,169.46L105.634,169.46L105.634,168.706L105.7,168.766L106.474,169.46Z" style="fill:rgb(195,208,211);fill-rule:nonzero;"/>
                </g>
                <g transform="matrix(5.86932,0,0,5.99389,-1239.12,-101.507)">
                    <path d="M114.117,176.318L112.252,176.318L105.634,170.379L105.634,169.46L106.474,169.46L113.305,175.59L114.117,176.318Z" style="fill:rgb(178,190,194);fill-rule:nonzero;"/>
                </g>
                <g transform="matrix(5.86932,0,0,5.99389,-1239.12,-101.507)">
                    <path d="M105.634,189.515L105.634,189.299L112.285,183.336L112.525,183.336L105.7,189.455L105.634,189.515Z" style="fill:rgb(178,190,194);fill-rule:nonzero;"/>
                </g>
                <g transform="matrix(5.86932,0,0,5.99389,-1239.12,-101.507)">
                    <path d="M112.525,183.336L112.285,183.336L116.181,179.844L112.252,176.318L114.117,176.318L117.233,179.115L113.338,182.608L112.525,183.336Z" style="fill:rgb(178,190,194);fill-rule:nonzero;"/>
                </g>
                <g transform="matrix(5.86932,0,0,5.99389,-1239.12,-101.507)">
                    <path d="M105.634,189.299L105.634,170.379L112.252,176.318L116.181,179.844L112.285,183.336L105.634,189.299Z" style="fill:rgb(178,190,194);fill-rule:nonzero;"/>
                </g>
                <g transform="matrix(5.86932,0,0,5.99389,-1239.12,-101.507)">
                    <rect x="107.573" y="167.191" width="33.229" height="20.857" style="fill:rgb(234,57,52);fill-rule:nonzero;"/>
                </g>
                <g transform="matrix(5.86932,0,0,5.99389,-1239.12,-101.507)">
                    <rect x="107.573" y="177.274" width="33.229" height="10.774" style="fill:rgb(36,38,42);fill-rule:nonzero;"/>
                </g>
                <g transform="matrix(5.86932,0,0,5.99389,-1239.12,-101.507)">
                    <rect x="107.573" y="174.05" width="33.246" height="7.018" style="fill:white;fill-rule:nonzero;"/>
                </g>
                <g transform="matrix(5.86932,0,0,5.99389,-1239.12,-101.507)">
                    <path d="M107.506,187.975L107.506,167.166L119.104,177.575L107.506,187.975Z" style="fill:rgb(36,153,76);fill-rule:nonzero;"/>
                </g>
                <g transform="matrix(5.86932,0,0,5.99389,-1239.12,-101.507)">
                    <path d="M119.37,162.921L119.569,162.802C119.71,163.06 119.872,163.19 120.056,163.19L120.278,163.135L120.437,162.987L120.491,162.791L120.411,162.559C120.337,162.455 120.203,162.329 120.009,162.182C119.813,162.034 119.69,161.927 119.643,161.861C119.56,161.751 119.519,161.631 119.519,161.502C119.519,161.399 119.543,161.307 119.592,161.222L119.798,161.024C119.888,160.975 119.983,160.951 120.089,160.951C120.199,160.951 120.303,160.979 120.399,161.033C120.495,161.088 120.597,161.189 120.704,161.336L120.513,161.481C120.425,161.364 120.35,161.287 120.287,161.25L120.083,161.194C119.989,161.194 119.911,161.222 119.851,161.28L119.761,161.492L119.793,161.641L119.909,161.797C119.94,161.827 120.042,161.905 120.213,162.032C120.416,162.182 120.556,162.315 120.632,162.433C120.707,162.55 120.745,162.668 120.745,162.786C120.745,162.956 120.68,163.104 120.551,163.23C120.421,163.355 120.265,163.418 120.079,163.418C119.937,163.418 119.807,163.38 119.69,163.304C119.575,163.228 119.468,163.1 119.37,162.921Z" style="fill-rule:nonzero;"/>
                </g>
                <g transform="matrix(5.86932,0,0,5.99389,-1239.12,-101.507)">
                    <path d="M121.176,161.622L121.399,161.622L121.399,162.433C121.399,162.631 121.41,162.767 121.432,162.841C121.464,162.948 121.524,163.032 121.614,163.094C121.704,163.156 121.812,163.187 121.937,163.187C122.062,163.187 122.167,163.156 122.255,163.096C122.341,163.036 122.401,162.957 122.435,162.859C122.456,162.792 122.468,162.65 122.468,162.433L122.468,161.622L122.696,161.622L122.696,162.474C122.696,162.714 122.668,162.894 122.612,163.016C122.556,163.137 122.472,163.232 122.36,163.301C122.247,163.369 122.106,163.404 121.938,163.404C121.769,163.404 121.627,163.369 121.514,163.301C121.4,163.232 121.315,163.136 121.26,163.013C121.204,162.89 121.176,162.705 121.176,162.459L121.176,161.622Z" style="fill-rule:nonzero;"/>
                </g>
                <g transform="matrix(5.86932,0,0,5.99389,-1239.12,-101.507)">
                    <path d="M124.033,161.793C123.909,161.793 123.794,161.823 123.688,161.884C123.583,161.945 123.499,162.031 123.438,162.142C123.375,162.253 123.345,162.369 123.345,162.493C123.345,162.615 123.376,162.732 123.438,162.844C123.501,162.955 123.585,163.042 123.69,163.105C123.797,163.167 123.91,163.198 124.032,163.198C124.153,163.198 124.27,163.167 124.38,163.105C124.489,163.044 124.573,162.96 124.632,162.855C124.69,162.75 124.721,162.631 124.721,162.499C124.721,162.298 124.654,162.13 124.522,161.995C124.39,161.86 124.227,161.793 124.033,161.793ZM124.927,160.951L124.927,163.359L124.706,163.359L124.706,163.06C124.612,163.174 124.507,163.26 124.391,163.317C124.274,163.375 124.147,163.404 124.009,163.404C123.763,163.404 123.553,163.315 123.378,163.136C123.204,162.958 123.117,162.741 123.117,162.485C123.117,162.235 123.205,162.022 123.381,161.844C123.557,161.666 123.768,161.577 124.015,161.577C124.157,161.577 124.286,161.607 124.401,161.668C124.518,161.729 124.619,161.82 124.706,161.941L124.706,160.951L124.927,160.951Z" style="fill-rule:nonzero;"/>
                </g>
                <g transform="matrix(5.86932,0,0,5.99389,-1239.12,-101.507)">
                    <path d="M126.271,161.793C126.146,161.793 126.03,161.823 125.926,161.884C125.82,161.945 125.737,162.031 125.675,162.142C125.612,162.253 125.581,162.369 125.581,162.493C125.581,162.615 125.612,162.732 125.675,162.844C125.737,162.955 125.822,163.042 125.929,163.105C126.034,163.167 126.147,163.198 126.269,163.198C126.392,163.198 126.507,163.167 126.616,163.105C126.726,163.044 126.81,162.96 126.869,162.855C126.929,162.75 126.958,162.631 126.958,162.499C126.958,162.298 126.892,162.13 126.759,161.995C126.626,161.86 126.464,161.793 126.271,161.793ZM127.163,161.622L127.163,163.359L126.943,163.359L126.943,163.06C126.85,163.174 126.745,163.26 126.628,163.317C126.511,163.375 126.384,163.404 126.245,163.404C125.999,163.404 125.79,163.315 125.616,163.136C125.441,162.958 125.354,162.741 125.354,162.485C125.354,162.235 125.442,162.022 125.618,161.844C125.794,161.666 126.005,161.577 126.252,161.577C126.395,161.577 126.523,161.607 126.64,161.668C126.755,161.729 126.856,161.82 126.943,161.941L126.943,161.622L127.163,161.622Z" style="fill-rule:nonzero;"/>
                </g>
                <g transform="matrix(5.86932,0,0,5.99389,-1239.12,-101.507)">
                    <path d="M127.667,161.622L127.89,161.622L127.89,161.933C127.979,161.814 128.078,161.725 128.187,161.666C128.296,161.607 128.414,161.577 128.542,161.577C128.671,161.577 128.785,161.61 128.888,161.676C128.987,161.742 129.062,161.831 129.11,161.942C129.158,162.054 129.183,162.229 129.183,162.465L129.183,163.359L128.957,163.359L128.957,162.53C128.957,162.33 128.95,162.196 128.934,162.129C128.907,162.014 128.858,161.928 128.784,161.87C128.711,161.812 128.615,161.783 128.496,161.783C128.362,161.783 128.241,161.828 128.134,161.917C128.026,162.006 127.956,162.117 127.922,162.249C127.901,162.336 127.89,162.493 127.89,162.722L127.89,163.359L127.667,163.359L127.667,161.622Z" style="fill-rule:nonzero;"/>
                </g>
            </g>
        </g>
    </g>
</svg>
